<?xml version="1.0" encoding="iso-8859-1"?>
<!-- Generator: Adobe Illustrator 19.0.0, SVG Export Plug-In . SVG Version: 6.00 Build 0)  -->
<svg version="1.1" id="Layer_1" xmlns="http://www.w3.org/2000/svg" xmlns:xlink="http://www.w3.org/1999/xlink" x="0px" y="0px"
	 viewBox="0 0 350 350" style="enable-background:new 0 0 350 350;" xml:space="preserve">
<g id="XMLID_1319_">
	<path id="XMLID_1320_" style="fill:#4B905E;" d="M190,109V46c0-8.822,7.178-16,16-16h9c8.284,0,15-6.716,15-15s-6.716-15-15-15h-9
		c-25.364,0-46,20.636-46,46v63H190z"/>
	<path id="XMLID_1321_" style="fill:#BD3C1A;" d="M235,192.925V120c0-33.137-26.863-60-60-60s-60,26.863-60,60v72.925
		C96.59,209.404,85,233.348,85,260c0,49.705,40.294,90,90,90s90-40.295,90-90C265,233.348,253.41,209.404,235,192.925z"/>
	<path id="XMLID_1322_" style="fill:#802812;" d="M175,60c-33.137,0-60,26.863-60,60v72.925C96.59,209.404,85,233.348,85,260
		c0,49.705,40.294,90,90,90C175,269.666,175,136.334,175,60z"/>
	<path id="XMLID_1323_" style="fill:#91DC5A;" d="M220.131,74.834C206.925,61.627,186.833,59.71,175,60.031
		c-11.833-0.321-31.925,1.596-45.131,14.803C109.264,95.437,115,129.776,115,129.776s36.16,6.181,56.076-13.737
		C173.833,113.418,175,110,175,110s1.166,3.418,3.924,6.039C198.84,135.957,235,129.776,235,129.776S240.736,95.437,220.131,74.834z
		"/>
	<g id="XMLID_1324_">
		<path id="XMLID_1325_" style="fill:#64C37D;" d="M175,60.031c-11.833-0.321-31.925,1.596-45.131,14.803
			C109.264,95.437,115,129.776,115,129.776s36.16,6.181,56.076-13.737C173.833,113.418,175,110,175,110S175,74.334,175,60.031z"/>
	</g>
</g>
<g>
</g>
<g>
</g>
<g>
</g>
<g>
</g>
<g>
</g>
<g>
</g>
<g>
</g>
<g>
</g>
<g>
</g>
<g>
</g>
<g>
</g>
<g>
</g>
<g>
</g>
<g>
</g>
<g>
</g>
</svg>
