<?xml version="1.0" encoding="iso-8859-1"?>
<!-- Generator: Adobe Illustrator 19.0.0, SVG Export Plug-In . SVG Version: 6.00 Build 0)  -->
<svg version="1.1" id="Layer_1" xmlns="http://www.w3.org/2000/svg" xmlns:xlink="http://www.w3.org/1999/xlink" x="0px" y="0px"
	 viewBox="0 0 280 280" style="enable-background:new 0 0 280 280;" xml:space="preserve">
<g id="XMLID_1113_">
	<path id="XMLID_1114_" style="fill:#804C09;" d="M155,65c0,8.284-6.716,15-15,15l0,0c-8.284,0-15-6.716-15-15V15
		c0-8.284,6.716-15,15-15l0,0c8.284,0,15,6.716,15,15V65z"/>
	<path id="XMLID_1115_" style="fill:#91DC5A;" d="M192.039,50.115C180.716,32.71,162.256,20,140,20S99.284,32.71,87.961,50.115
		C76,68.5,45,129.667,45,185c0,52.467,42.533,95,95,95s95-42.533,95-95C235,129.667,204,68.5,192.039,50.115z"/>
	<path id="XMLID_1116_" style="fill:#64C37D;" d="M140,20c-22.256,0-40.716,12.71-52.039,30.115C76,68.5,45,129.667,45,185
		c0,52.467,42.533,95,95,95C140,243,140,56.5,140,20z"/>
	<circle id="XMLID_1117_" style="fill:#BD720D;" cx="140" cy="185" r="55"/>
	<path id="XMLID_1118_" style="fill:#804C09;" d="M140,240c-30.375,0-55-24.624-55-55s24.625-55,55-55"/>
</g>
<g>
</g>
<g>
</g>
<g>
</g>
<g>
</g>
<g>
</g>
<g>
</g>
<g>
</g>
<g>
</g>
<g>
</g>
<g>
</g>
<g>
</g>
<g>
</g>
<g>
</g>
<g>
</g>
<g>
</g>
</svg>
