<?xml version="1.0" encoding="iso-8859-1"?>
<!-- Generator: Adobe Illustrator 19.0.0, SVG Export Plug-In . SVG Version: 6.00 Build 0)  -->
<svg version="1.1" id="Layer_1" xmlns="http://www.w3.org/2000/svg" xmlns:xlink="http://www.w3.org/1999/xlink" x="0px" y="0px"
	 viewBox="0 0 299.656 299.656" style="enable-background:new 0 0 299.656 299.656;" xml:space="preserve">
<g id="XMLID_846_">
	<path id="XMLID_847_" style="fill:#FFE98F;" d="M267.253,189.656c-18.334,21.116-49.84,30-80,30c-23.881,0-45.804-8.376-63-22.344
		v98.694c10.619,2.384,21.661,3.65,33,3.65c59.496,0,110.9-34.64,135.148-84.851L267.253,189.656z"/>
	<path id="XMLID_848_" style="fill:#FFDA44;" d="M275.771,198.174l-8.518-8.518c-18.334,21.116-49.84,30-80,30
		c-23.881,0-45.804-8.376-63-22.344v40.026c15.984,7.882,33.973,12.318,53,12.318C218.053,249.656,254.09,229.29,275.771,198.174z"
		/>
	<path id="XMLID_849_" style="fill:#BD720D;" d="M280.388,235.282c4.518-6.474,8.553-13.309,12.014-20.477l-25.148-25.149
		c-3.66,4.216-7.859,7.929-12.456,11.194C263.829,213.636,271.281,223.451,280.388,235.282z"/>
	<path id="XMLID_850_" style="fill:#FFDA44;" d="M87.253,119.656c0-40.996,24.682-76.208,59.986-91.644V0
		C69.066,5.154,7.253,70.18,7.253,149.656c0,79.369,61.646,144.33,139.668,149.639v-88.113
		C111.782,195.675,87.253,160.533,87.253,119.656z"/>
	<path id="XMLID_851_" style="fill:#FFAD41;" d="M87.253,119.656c0-40.996,24.682-76.208,59.986-91.644V13.44
		c-51.75,13.327-89.986,60.306-89.986,116.216c0,55.795,38.08,102.692,89.668,116.129v-34.604
		C111.782,195.675,87.253,160.533,87.253,119.656z"/>
	<path id="XMLID_852_" style="fill:#BD720D;" d="M147.24,28.013V0c-26.397,1.741-50.924,10.316-71.841,23.962l33.545,33.545
		C119.049,44.801,132.171,34.601,147.24,28.013z"/>
</g>
<g>
</g>
<g>
</g>
<g>
</g>
<g>
</g>
<g>
</g>
<g>
</g>
<g>
</g>
<g>
</g>
<g>
</g>
<g>
</g>
<g>
</g>
<g>
</g>
<g>
</g>
<g>
</g>
<g>
</g>
</svg>
