<?xml version="1.0" encoding="iso-8859-1"?>
<!-- Generator: Adobe Illustrator 19.0.0, SVG Export Plug-In . SVG Version: 6.00 Build 0)  -->
<svg version="1.1" id="Layer_1" xmlns="http://www.w3.org/2000/svg" xmlns:xlink="http://www.w3.org/1999/xlink" x="0px" y="0px"
	 viewBox="0 0 290 290" style="enable-background:new 0 0 290 290;" xml:space="preserve">
<g id="XMLID_1592_">
	<path id="XMLID_1593_" style="fill:#FFAD41;" d="M290,145c0,15.172-12.147,28.231-16.572,41.922
		c-4.586,14.19-2.557,31.896-11.112,43.707c-8.642,11.93-26.09,15.424-37.963,24.105c-11.757,8.597-20.41,24.236-34.533,28.844
		c-13.628,4.444-29.716-2.952-44.819-2.952c-15.102,0-31.19,7.398-44.817,2.952c-14.125-4.607-22.777-20.247-34.534-28.842
		c-11.874-8.683-29.322-12.176-37.963-24.105c-8.557-11.811-6.527-29.52-11.113-43.708C12.146,173.233,0,160.173,0,145
		s12.148-28.233,16.572-41.924c4.586-14.19,2.557-31.897,11.112-43.709c8.642-11.929,26.09-15.422,37.964-24.103
		C77.404,26.667,86.057,11.028,100.18,6.42c13.629-4.443,29.716,2.955,44.82,2.955c15.102,0,31.19-7.398,44.818-2.954
		c14.124,4.607,22.777,20.247,34.533,28.844c11.874,8.681,29.322,12.175,37.964,24.104c8.556,11.812,6.526,29.517,11.112,43.706
		C277.853,116.766,290,129.826,290,145z"/>
	<path id="XMLID_1594_" style="fill:#FF9811;" d="M145,9.375c-15.104,0-31.191-7.398-44.819-2.954
		c-14.123,4.607-22.776,20.247-34.532,28.844c-11.874,8.681-29.322,12.174-37.964,24.103c-8.556,11.812-6.526,29.519-11.112,43.709
		C12.148,116.767,0,129.828,0,145s12.146,28.232,16.572,41.923c4.586,14.188,2.557,31.897,11.113,43.708
		c8.641,11.929,26.089,15.422,37.963,24.105c11.757,8.595,20.409,24.234,34.534,28.842c13.627,4.446,29.715-2.952,44.817-2.952
		C145,195.231,145,105.819,145,9.375z"/>
	<circle id="XMLID_1595_" style="fill:#804C09;" cx="55" cy="145.646" r="10"/>
	<circle id="XMLID_1596_" style="fill:#BD720D;" cx="235" cy="145.646" r="10"/>
	<g id="XMLID_1597_">
		<circle id="XMLID_1598_" style="fill:#BD720D;" cx="145" cy="55.646" r="10"/>
		<path id="XMLID_1599_" style="fill:#804C09;" d="M145,65.646c-5.523,0-10-4.477-10-10s4.477-10,10-10"/>
	</g>
	<g id="XMLID_1600_">
		<circle id="XMLID_1601_" style="fill:#BD720D;" cx="145" cy="105.646" r="10"/>
		<path id="XMLID_1602_" style="fill:#804C09;" d="M145,115.646c-5.523,0-10-4.477-10-10s4.477-10,10-10"/>
	</g>
	<circle id="XMLID_26_" style="fill:#804C09;" cx="104.999" cy="145.646" r="10"/>
	<g id="XMLID_1603_">
		<circle id="XMLID_25_" style="fill:#BD720D;" cx="144.999" cy="185.647" r="10"/>
		<path id="XMLID_24_" style="fill:#804C09;" d="M144.999,195.647c-5.523,0-10-4.477-10-10s4.477-10,10-10"/>
	</g>
	<circle id="XMLID_22_" style="fill:#BD720D;" cx="185" cy="145.647" r="10"/>
	<g id="XMLID_1604_">
		<circle id="XMLID_1605_" style="fill:#BD720D;" cx="145" cy="235.646" r="10"/>
		<path id="XMLID_1606_" style="fill:#804C09;" d="M145,245.646c-5.523,0-10-4.477-10-10s4.477-10,10-10"/>
	</g>
	<circle id="XMLID_18_" style="fill:#804C09;" cx="81.36" cy="209.286" r="10"/>
	<circle id="XMLID_17_" style="fill:#BD720D;" cx="208.64" cy="82.006" r="10"/>
	<circle id="XMLID_16_" style="fill:#804C09;" cx="81.36" cy="82.006" r="10"/>
	<circle id="XMLID_15_" style="fill:#BD720D;" cx="208.64" cy="209.286" r="10"/>
</g>
<g>
</g>
<g>
</g>
<g>
</g>
<g>
</g>
<g>
</g>
<g>
</g>
<g>
</g>
<g>
</g>
<g>
</g>
<g>
</g>
<g>
</g>
<g>
</g>
<g>
</g>
<g>
</g>
<g>
</g>
</svg>
