<?xml version="1.0" encoding="iso-8859-1"?>
<!-- Generator: Adobe Illustrator 19.0.0, SVG Export Plug-In . SVG Version: 6.00 Build 0)  -->
<svg version="1.1" id="Layer_1" xmlns="http://www.w3.org/2000/svg" xmlns:xlink="http://www.w3.org/1999/xlink" x="0px" y="0px"
	 viewBox="0 0 365 365" style="enable-background:new 0 0 365 365;" xml:space="preserve">
<g id="XMLID_1724_">
	<g id="XMLID_1725_">
		<path id="XMLID_1726_" style="fill:#CDCDD0;" d="M213.677,332.356c-5.526-6.175-15.01-6.699-21.181-1.173
			c-2.75,2.461-6.3,3.816-9.996,3.816c-8.271,0-15-6.728-15-15s6.729-15,15-15c8.284,0,15-6.716,15-15V15c0-8.284-6.716-15-15-15
			s-15,6.716-15,15v262.58c-17.459,6.192-30,22.865-30,42.42c0,24.814,20.186,45,45,45c11.091,0,21.746-4.071,30.004-11.463
			C218.677,348.012,219.202,338.528,213.677,332.356z"/>
		<path id="XMLID_1727_" style="fill:#ACABB1;" d="M182.5,335c-8.271,0-15-6.728-15-15s6.729-15,15-15c0-41.5,0-245,0-305
			c-8.284,0-15,6.716-15,15v262.58c-17.459,6.192-30,22.865-30,42.42c0,24.814,20.186,45,45,45C182.5,353,182.5,345.5,182.5,335z"/>
	</g>
	<path id="XMLID_27_" style="fill:#FF5023;" d="M192.5,160c22.092,0,40,17.908,40,40l0,0c0,22.091-17.908,40-40,40h-20
		c-22.092,0-40-17.909-40-40l0,0c0-22.092,17.908-40,40-40H192.5z"/>
	<path id="XMLID_1728_" style="fill:#BD3C1A;" d="M184.167,160H172.5c-22.092,0-40,17.908-40,40c0,22.091,17.908,40,40,40h11.667
		L184.167,160L184.167,160z"/>
	<g id="XMLID_1729_">
		<rect id="XMLID_1730_" x="132.5" y="230" style="fill:#91DC5A;" width="100" height="30"/>
		<rect id="XMLID_1731_" x="132.5" y="230" style="fill:#64C37D;" width="50" height="30"/>
	</g>
	<path id="XMLID_22_" style="fill:#FF5023;" d="M192.5,70c22.092,0,40,17.908,40,40l0,0c0,22.091-17.908,40-40,40h-20
		c-22.092,0-40-17.909-40-40l0,0c0-22.092,17.908-40,40-40H192.5z"/>
	<path id="XMLID_1732_" style="fill:#BD3C1A;" d="M182.5,70h-10c-22.092,0-40,17.908-40,40c0,22.091,17.908,40,40,40h10V70z"/>
	<g id="XMLID_1733_">
		<rect id="XMLID_1734_" x="132.5" y="140" style="fill:#91DC5A;" width="100" height="30"/>
		<rect id="XMLID_1735_" x="132.5" y="140" style="fill:#64C37D;" width="50" height="30"/>
	</g>
	<g id="XMLID_1736_">
		<rect id="XMLID_1737_" x="132.5" y="50" style="fill:#91DC5A;" width="100" height="30"/>
		<rect id="XMLID_1738_" x="132.5" y="50" style="fill:#64C37D;" width="50" height="30"/>
	</g>
</g>
<g>
</g>
<g>
</g>
<g>
</g>
<g>
</g>
<g>
</g>
<g>
</g>
<g>
</g>
<g>
</g>
<g>
</g>
<g>
</g>
<g>
</g>
<g>
</g>
<g>
</g>
<g>
</g>
<g>
</g>
</svg>
