<?xml version="1.0" encoding="iso-8859-1"?>
<!-- Generator: Adobe Illustrator 19.0.0, SVG Export Plug-In . SVG Version: 6.00 Build 0)  -->
<svg version="1.1" id="Layer_1" xmlns="http://www.w3.org/2000/svg" xmlns:xlink="http://www.w3.org/1999/xlink" x="0px" y="0px"
	 viewBox="0 0 360 360" style="enable-background:new 0 0 360 360;" xml:space="preserve">
<g id="XMLID_1088_">
	<rect id="XMLID_1089_" x="165" y="70" style="fill:#CDCDD0;" width="30" height="90"/>
	<g id="XMLID_1090_">
		<polygon id="XMLID_1091_" style="fill:#FFE98F;" points="310,190 60,190 50,240 50,300 310,300 		"/>
		<polygon id="XMLID_1092_" style="fill:#FFDA44;" points="180,190 60,190 50,240 50,300 180,300 		"/>
		<path id="XMLID_1093_" style="fill:#FF5023;" d="M276,130H120v80h190v-46C310,145.223,294.777,130,276,130z"/>
		<path id="XMLID_1094_" style="fill:#BD3C1A;" d="M84,130c-18.778,0-34,15.223-34,34v36v10v35c0,8.284,6.716,15,15,15
			s15-6.716,15-15v-35c0-8.284,6.716-15,15-15s15,6.716,15,15v20c0,8.284,6.716,15,15,15s15-6.716,15-15v-5c0-8.284,6.716-15,15-15
			h25v-30v-50H84z"/>
		<rect id="XMLID_1095_" x="50" y="280" style="fill:#BD720D;" width="260" height="40"/>
		<rect id="XMLID_1096_" x="50" y="280" style="fill:#804C09;" width="130" height="40"/>
	</g>
	<path id="XMLID_1097_" style="fill:#FFDA44;" d="M210,70c0,16.568-13.432,30-30,30s-30-13.432-30-30c0-30,30-50,30-50
		S210,40,210,70z"/>
	<path id="XMLID_1098_" style="fill:#FF9811;" d="M180,100c-16.568,0-30-13.432-30-30c0-30,30-50,30-50S180,71.667,180,100z"/>
	<path id="XMLID_1099_" style="fill:#CDCDD0;" d="M360,325c0,8.284-6.716,15-15,15H15c-8.284,0-15-6.716-15-15l0,0
		c0-8.284,6.716-15,15-15h330C353.284,310,360,316.716,360,325L360,325z"/>
	<path id="XMLID_1100_" style="fill:#ACABB1;" d="M180,310H15c-8.284,0-15,6.716-15,15s6.716,15,15,15h165V310z"/>
</g>
<g>
</g>
<g>
</g>
<g>
</g>
<g>
</g>
<g>
</g>
<g>
</g>
<g>
</g>
<g>
</g>
<g>
</g>
<g>
</g>
<g>
</g>
<g>
</g>
<g>
</g>
<g>
</g>
<g>
</g>
</svg>
