<?xml version="1.0" encoding="iso-8859-1"?>
<!-- Generator: Adobe Illustrator 19.0.0, SVG Export Plug-In . SVG Version: 6.00 Build 0)  -->
<svg version="1.1" id="Layer_1" xmlns="http://www.w3.org/2000/svg" xmlns:xlink="http://www.w3.org/1999/xlink" x="0px" y="0px"
	 viewBox="0 0 343.333 343.333" style="enable-background:new 0 0 343.333 343.333;" xml:space="preserve">
<g id="XMLID_1856_">
	<path id="XMLID_1857_" style="fill:#FFF6D2;" d="M91.666,343.333c-13.807,0-25-11.193-25-25V105c0-57.897,47.104-105,105-105
		c57.897,0,105,47.103,105,105c0,13.807-11.193,25-25,25s-25-11.193-25-25c0-30.327-24.673-55-55-55s-55,24.673-55,55v213.333
		C116.666,332.14,105.473,343.333,91.666,343.333z"/>
	<path id="XMLID_1858_" style="fill:#FFE98F;" d="M171.667,0c-57.897,0-105,47.103-105,105v213.333c0,13.807,11.193,25,25,25
		s25-11.193,25-25V105c0-30.327,24.673-55,55-55C171.667,35.051,171.667,14.78,171.667,0z"/>
	<rect id="XMLID_1859_" x="66.666" y="265.333" style="fill:#BD3C1A;" width="50" height="53"/>
	<rect id="XMLID_1860_" x="66.666" y="159.333" style="fill:#BD3C1A;" width="50" height="53"/>
	<path id="XMLID_1861_" style="fill:#BD3C1A;" d="M116.666,106.333h-50V105c0-23.011,7.31-44.862,21.139-63.191l39.914,30.113
		c-7.23,9.585-11.053,21.022-11.053,33.078V106.333z"/>
	<path id="XMLID_1862_" style="fill:#FF5023;" d="M226.667,105.002c-0.001-9.403-2.406-18.672-6.956-26.804l43.635-24.414
		c8.714,15.573,13.32,33.283,13.321,51.214L226.667,105.002z"/>
	<path id="XMLID_1863_" style="fill:#FF5023;" d="M193.044,54.302C186.287,51.447,179.094,50,171.667,50
		c-4.865,0-9.683,0.631-14.316,1.875L144.387,3.584C153.247,1.206,162.425,0,171.667,0c14.148,0,27.887,2.773,40.835,8.243
		L193.044,54.302z"/>
	<path id="XMLID_1864_" style="fill:#BD3C1A;" d="M171.667,0c-9.241,0-18.42,1.206-27.279,3.584l12.963,48.291
		c4.634-1.244,9.451-1.875,14.316-1.875C171.667,30.5,171.667,19,171.667,0z"/>
</g>
<g>
</g>
<g>
</g>
<g>
</g>
<g>
</g>
<g>
</g>
<g>
</g>
<g>
</g>
<g>
</g>
<g>
</g>
<g>
</g>
<g>
</g>
<g>
</g>
<g>
</g>
<g>
</g>
<g>
</g>
</svg>
