<?xml version="1.0" encoding="iso-8859-1"?>
<!-- Generator: Adobe Illustrator 19.0.0, SVG Export Plug-In . SVG Version: 6.00 Build 0)  -->
<svg version="1.1" id="Layer_1" xmlns="http://www.w3.org/2000/svg" xmlns:xlink="http://www.w3.org/1999/xlink" x="0px" y="0px"
	 viewBox="0 0 360.001 360.001" style="enable-background:new 0 0 360.001 360.001;" xml:space="preserve">
<g id="XMLID_1568_">
	<path id="XMLID_1569_" style="fill:#802812;" d="M82.33,154.121c-1.456-0.983-3.028-1.839-4.735-2.505l-44.808-17.468
		c-12.373-4.822-26.315,1.298-31.138,13.67c-4.824,12.376,1.297,26.313,13.67,31.138L17.997,180l-2.678,1.044
		c-12.373,4.824-18.494,18.763-13.67,31.138c4.823,12.373,18.765,18.492,31.138,13.67l44.808-17.467
		c1.707-0.666,3.28-1.524,4.735-2.506V154.121z"/>
	<path id="XMLID_1570_" style="fill:#BD3C1A;" d="M277.67,154.121c1.455-0.983,3.028-1.839,4.735-2.505l44.808-17.468
		c12.373-4.822,26.315,1.298,31.139,13.67c4.824,12.376-1.297,26.313-13.67,31.138L342.003,180l2.679,1.044
		c12.373,4.824,18.494,18.763,13.67,31.138c-4.823,12.373-18.766,18.492-31.139,13.67l-44.808-17.467
		c-1.707-0.666-3.28-1.524-4.735-2.506L277.67,154.121L277.67,154.121z"/>
	<ellipse id="XMLID_1571_" style="fill:#FF5023;" cx="180" cy="180" rx="120" ry="90"/>
	<path id="XMLID_1572_" style="fill:#BD3C1A;" d="M180,270c-66.274,0-120-40.295-120-90s53.726-90,120-90"/>
	<g id="XMLID_1573_">
		<ellipse id="XMLID_1574_" style="fill:#FFFFFF;" cx="180" cy="180" rx="60" ry="40"/>
		<path id="XMLID_1575_" style="fill:#FFE98F;" d="M180,220c-33.137,0-60-17.907-60-40c0-22.092,26.863-40,60-40"/>
	</g>
</g>
<g>
</g>
<g>
</g>
<g>
</g>
<g>
</g>
<g>
</g>
<g>
</g>
<g>
</g>
<g>
</g>
<g>
</g>
<g>
</g>
<g>
</g>
<g>
</g>
<g>
</g>
<g>
</g>
<g>
</g>
</svg>
