<?xml version="1.0" encoding="iso-8859-1"?>
<!-- Generator: Adobe Illustrator 19.0.0, SVG Export Plug-In . SVG Version: 6.00 Build 0)  -->
<svg version="1.1" id="Layer_1" xmlns="http://www.w3.org/2000/svg" xmlns:xlink="http://www.w3.org/1999/xlink" x="0px" y="0px"
	 viewBox="0 0 360 360" style="enable-background:new 0 0 360 360;" xml:space="preserve">
<g id="XMLID_878_">
	<path id="XMLID_879_" style="fill:#91DC5A;" d="M230,35c-12.881,0-24.889,3.782-35,10.271V15c0-8.284-6.716-15-15-15
		s-15,6.716-15,15v30.271C154.889,38.782,142.881,35,130,35c-8.284,0-15,6.716-15,15s6.716,15,15,15c19.299,0,35,15.701,35,35v23h30
		v-23c0-19.299,15.701-35,35-35c8.284,0,15-6.716,15-15S238.284,35,230,35z"/>
	<path id="XMLID_880_" style="fill:#64C37D;" d="M180,123c0,0,0-110.304,0-123c-8.284,0-15,6.716-15,15v30.271
		C154.889,38.782,142.881,35,130,35c-8.284,0-15,6.716-15,15s6.716,15,15,15c19.299,0,35,15.701,35,35v23H180z"/>
	<path id="XMLID_881_" style="fill:#FFAD41;" d="M240,200c0,110-60,160-60,160s-60-50-60-160v-60c0-33.137,26.863-60,60-60l0,0
		c33.137,0,60,26.863,60,60V200z"/>
	<path id="XMLID_882_" style="fill:#FF9811;" d="M180,360c0,0-60-50-60-160v-60c0-33.137,26.863-60,60-60l0,0
		C180,147,180,360,180,360z"/>
	<path id="XMLID_883_" style="fill:#BD720D;" d="M150,170h-30v20h30c5.523,0,10-4.477,10-10S155.523,170,150,170z"/>
	<path id="XMLID_17_" style="fill:#FF9811;" d="M210,160h30v-20h-30c-5.523,0-10,4.477-10,10S204.477,160,210,160z"/>
	<path id="XMLID_884_" style="fill:#BD720D;" d="M160,240c0-5.523-4.477-10-10-10h-28.446c0.735,6.961,1.714,13.624,2.89,20H150
		C155.523,250,160,245.523,160,240z"/>
	<path id="XMLID_885_" style="fill:#FF9811;" d="M200,210c0,5.523,4.477,10,10,10h29.32c0.443-6.432,0.68-13.098,0.68-20h-30
		C204.477,200,200,204.477,200,210z"/>
</g>
<g>
</g>
<g>
</g>
<g>
</g>
<g>
</g>
<g>
</g>
<g>
</g>
<g>
</g>
<g>
</g>
<g>
</g>
<g>
</g>
<g>
</g>
<g>
</g>
<g>
</g>
<g>
</g>
<g>
</g>
</svg>
