<?xml version="1.0" encoding="iso-8859-1"?>
<!-- Generator: Adobe Illustrator 19.0.0, SVG Export Plug-In . SVG Version: 6.00 Build 0)  -->
<svg version="1.1" id="Layer_1" xmlns="http://www.w3.org/2000/svg" xmlns:xlink="http://www.w3.org/1999/xlink" x="0px" y="0px"
	 viewBox="0 0 260 260" style="enable-background:new 0 0 260 260;" xml:space="preserve">
<g id="XMLID_1265_">
	<path id="XMLID_1266_" style="fill:#FFE98F;" d="M220,180c0-22.094,17.91-40,40-40V0h-30c0,16.568-13.432,30-30,30
		s-30-13.432-30-30H0v50c27.614,0,50,22.386,50,50c0,27.613-22.386,50-50,50v110h110c0-11.047,8.955-20,20-20
		c11.047,0,20,8.953,20,20h110v-40C237.91,220,220,202.09,220,180z"/>
	<path id="XMLID_1267_" style="fill:#FFDA44;" d="M130,240V0H0v50c27.614,0,50,22.386,50,50c0,27.613-22.386,50-50,50v110h110
		C110,248.953,118.955,240,130,240z"/>
	<circle id="XMLID_1268_" style="fill:#FFFFFF;" cx="50" cy="210" r="20"/>
	<circle id="XMLID_1269_" style="fill:#FFFFFF;" cx="130" cy="140" r="40"/>
	<circle id="XMLID_1270_" style="fill:#FFFFFF;" cx="210" cy="90" r="10"/>
	<circle id="XMLID_1271_" style="fill:#FFFFFF;" cx="80" cy="50" r="20"/>
</g>
<g>
</g>
<g>
</g>
<g>
</g>
<g>
</g>
<g>
</g>
<g>
</g>
<g>
</g>
<g>
</g>
<g>
</g>
<g>
</g>
<g>
</g>
<g>
</g>
<g>
</g>
<g>
</g>
<g>
</g>
</svg>
