<?xml version="1.0" encoding="iso-8859-1"?>
<!-- Generator: Adobe Illustrator 19.0.0, SVG Export Plug-In . SVG Version: 6.00 Build 0)  -->
<svg version="1.1" id="Layer_1" xmlns="http://www.w3.org/2000/svg" xmlns:xlink="http://www.w3.org/1999/xlink" x="0px" y="0px"
	 viewBox="0 0 300.001 300.001" style="enable-background:new 0 0 300.001 300.001;" xml:space="preserve">
<g id="XMLID_1233_">
	<path id="XMLID_23_" style="fill:#91DC5A;" d="M248.874,1.365c0,0,7.682,43.532-17.07,68.285
		c-24.754,24.752-68.285,17.071-68.285,17.071s-8.535-42.678,17.072-68.284C206.196-7.17,248.874,1.365,248.874,1.365z"/>
	<path id="XMLID_1234_" style="fill:#804C09;" d="M201.095,108.336c-14.358-15.777-28.571-28.688-36.094-35.252V25
		c0-8.284-6.716-15-15-15s-15,6.716-15,15v48.084c-7.523,6.563-21.736,19.475-36.094,35.252
		C69.773,140.35,55.001,167.825,55.001,190v70h30v-70c0-24.126,36.594-64.858,64.936-90.17c7.401,6.669,18.208,16.872,28.97,28.697
		c31.405,34.51,36.094,53.328,36.094,61.473v70h30v-70C245.001,167.825,230.229,140.35,201.095,108.336z"/>
	<g id="XMLID_1235_">
		<path id="XMLID_1236_" style="fill:#FF5023;" d="M295.001,226.457c-0.548-22.999-19.351-41.479-42.483-41.479
			c-8.267,0-15.977,2.367-22.505,6.449c-6.527-4.082-14.237-6.449-22.504-6.449c-23.478,0-42.508,19.032-42.508,42.509
			c0,1.37,0.087,2.718,0.214,4.055c2.311,38.241,30.438,68.459,64.82,68.459c34.998,0,63.521-31.307,64.924-70.519
			C294.99,228.819,295.001,226.457,295.001,226.457z"/>
		<path id="XMLID_1237_" style="fill:#BD3C1A;" d="M230.013,191.427c-6.527-4.082-14.237-6.449-22.504-6.449
			c-23.478,0-42.508,19.032-42.508,42.509c0,1.37,0.087,2.718,0.214,4.055c2.311,38.241,30.438,68.459,64.82,68.459
			C230.035,257.976,230.013,239.734,230.013,191.427z"/>
	</g>
	<path id="XMLID_1238_" style="fill:#402604;" d="M150.001,10c-8.284,0-15,6.716-15,15v48.084
		c-7.523,6.563-21.736,19.475-36.094,35.252C69.773,140.35,55.001,167.825,55.001,190v70h30v-70c0-24.126,36.658-64.858,65-90.17
		C150.001,72.75,150.001,34.75,150.001,10z"/>
	<g id="XMLID_1239_">
		<path id="XMLID_1240_" style="fill:#FF5023;" d="M135.001,226.457c-0.548-22.999-19.351-41.479-42.483-41.479
			c-8.267,0-15.977,2.367-22.505,6.449c-6.527-4.082-14.237-6.449-22.504-6.449c-23.477,0-42.508,19.032-42.508,42.509
			c0,1.37,0.087,2.718,0.214,4.055C7.526,269.782,35.653,300,70.035,300c34.998,0,63.521-31.307,64.924-70.519
			C134.99,228.819,135.001,226.457,135.001,226.457z"/>
		<path id="XMLID_1241_" style="fill:#BD3C1A;" d="M70.013,191.427c-6.527-4.082-14.237-6.449-22.504-6.449
			c-23.477,0-42.508,19.032-42.508,42.509c0,1.37,0.087,2.718,0.214,4.055C7.526,269.782,35.653,300,70.035,300
			C70.035,257.976,70.013,239.734,70.013,191.427z"/>
	</g>
</g>
<g>
</g>
<g>
</g>
<g>
</g>
<g>
</g>
<g>
</g>
<g>
</g>
<g>
</g>
<g>
</g>
<g>
</g>
<g>
</g>
<g>
</g>
<g>
</g>
<g>
</g>
<g>
</g>
<g>
</g>
</svg>
