<?xml version="1.0" encoding="iso-8859-1"?>
<!-- Generator: Adobe Illustrator 19.0.0, SVG Export Plug-In . SVG Version: 6.00 Build 0)  -->
<svg version="1.1" id="Layer_1" xmlns="http://www.w3.org/2000/svg" xmlns:xlink="http://www.w3.org/1999/xlink" x="0px" y="0px"
	 viewBox="0 0 328.334 328.334" style="enable-background:new 0 0 328.334 328.334;" xml:space="preserve">
<g id="XMLID_1190_">
	<path id="XMLID_1191_" style="fill:#4B905E;" d="M189.167,303.334c0,13.807-11.193,25-25,25l0,0c-13.807,0-25-11.193-25-25V245
		c0-13.807,11.193-25,25-25l0,0c13.807,0,25,11.193,25,25V303.334z"/>
	<g id="XMLID_1192_">
		<g id="XMLID_1193_">
			<path id="XMLID_1194_" style="fill:#FFE98F;" d="M224.025,216l-9.759-165.9c0-27.67-22.431-50.1-50.1-50.1
				s-50.099,22.43-50.099,50.1L104.31,216H224.025z"/>
			<path id="XMLID_1195_" style="fill:#FFDA44;" d="M164.167,216V0c-27.669,0-50.099,22.43-50.099,50.1L104.31,216H164.167z"/>
		</g>
		<path id="XMLID_18_" style="fill:#91DC5A;" d="M49.148,136.509c19.688-4.112,38.981,8.51,43.095,28.194
			c0,0,22.696,93.297,29.835,115.204c7.139,21.909,32.155,35.504,55.11,28.023c22.959-7.48,35.359-32.596,28.023-55.112
			c-7.336-22.518-42.971-80.01-58.325-114.665c-12.639-28.527-37.442-45.277-68.336-35.211
			c-19.192,6.254-33.522,20.521-40.517,37.888C41.39,138.841,45.117,137.353,49.148,136.509z"/>
		<path id="XMLID_17_" style="fill:#91DC5A;" d="M279.186,136.509c-19.688-4.112-38.981,8.51-43.096,28.194
			c0,0-22.695,93.297-29.834,115.204c-7.139,21.909-32.155,35.504-55.11,28.023c-22.959-7.48-35.359-32.596-28.023-55.112
			c7.336-22.518,42.971-80.01,58.325-114.665c12.639-28.527,37.441-45.277,68.336-35.211c19.191,6.254,33.521,20.521,40.517,37.888
			C286.944,138.841,283.217,137.353,279.186,136.509z"/>
		<path id="XMLID_1196_" style="fill:#64C37D;" d="M164.167,174.671c-6.675-13.667-12.83-26.473-17.281-36.518
			c-12.639-28.527-37.442-45.277-68.336-35.211c-19.192,6.254-33.522,20.521-40.517,37.888c3.357-1.989,7.084-3.477,11.115-4.321
			c19.688-4.112,38.981,8.51,43.095,28.194c0,0,22.696,93.297,29.835,115.204c5.752,17.651,23.107,29.897,41.64,30.081
			c0.15,0.002,0.3,0.011,0.45,0.011c0.149,0,0.3-0.009,0.45-0.011C164.617,248.333,164.167,240.333,164.167,174.671z"/>
	</g>
</g>
<g>
</g>
<g>
</g>
<g>
</g>
<g>
</g>
<g>
</g>
<g>
</g>
<g>
</g>
<g>
</g>
<g>
</g>
<g>
</g>
<g>
</g>
<g>
</g>
<g>
</g>
<g>
</g>
<g>
</g>
</svg>
