<?xml version="1.0" encoding="iso-8859-1"?>
<!-- Generator: Adobe Illustrator 19.0.0, SVG Export Plug-In . SVG Version: 6.00 Build 0)  -->
<svg version="1.1" id="Layer_1" xmlns="http://www.w3.org/2000/svg" xmlns:xlink="http://www.w3.org/1999/xlink" x="0px" y="0px"
	 viewBox="0 0 390 390" style="enable-background:new 0 0 390 390;" xml:space="preserve">
<g id="XMLID_859_">
	<path id="XMLID_860_" style="fill:#91DC5A;" d="M368.4,195c30-20,20-60,20-60c-60,0-80,60-80,60s20,60,80,60
		C388.4,255,398.4,215,368.4,195z"/>
	<path id="XMLID_861_" style="fill:#64C37D;" d="M110,115c0,0,20-50,110-40v60L110,115z"/>
	<path id="XMLID_862_" style="fill:#64C37D;" d="M110,275c0,0,20,50,110,40v-60L110,275z"/>
	<path id="XMLID_863_" style="fill:#C2FB3B;" d="M330,195c0,0-60,90-160,90C40,285,0,195,0,195s40-90,170-90
		C270,105,330,195,330,195z"/>
	<path id="XMLID_864_" style="fill:#91DC5A;" d="M190,106.226c-6.477-0.789-13.141-1.226-20-1.226C40,105,0,195,0,195s40,90,170,90
		c6.859,0,13.523-0.437,20-1.226V106.226z"/>
	<circle id="XMLID_865_" style="fill:#FFF6D2;" cx="90" cy="195" r="30"/>
	<circle id="XMLID_866_" cx="90" cy="195" r="15"/>
	<path id="XMLID_15_" style="fill:#64C37D;" d="M240,195c0,27.614-22.386,50-50,50v-50C190,195,216.192,195,240,195z"/>
</g>
<g>
</g>
<g>
</g>
<g>
</g>
<g>
</g>
<g>
</g>
<g>
</g>
<g>
</g>
<g>
</g>
<g>
</g>
<g>
</g>
<g>
</g>
<g>
</g>
<g>
</g>
<g>
</g>
<g>
</g>
</svg>
