<?xml version="1.0" encoding="iso-8859-1"?>
<!-- Generator: Adobe Illustrator 19.0.0, SVG Export Plug-In . SVG Version: 6.00 Build 0)  -->
<svg version="1.1" id="Layer_1" xmlns="http://www.w3.org/2000/svg" xmlns:xlink="http://www.w3.org/1999/xlink" x="0px" y="0px"
	 viewBox="0 0 319 319" style="enable-background:new 0 0 319 319;" xml:space="preserve">
<g id="XMLID_1159_">
	<path id="XMLID_18_" style="fill:#91DC5A;" d="M80.627,30.365c0,0-7.682,43.532,17.07,68.285
		c24.754,24.752,68.285,17.071,68.285,17.071s8.535-42.678-17.072-68.284C123.305,21.83,80.627,30.365,80.627,30.365z"/>
	<path id="XMLID_1160_" style="fill:#804C09;" d="M174.5,109V46c0-8.822,7.178-16,16-16h9c8.284,0,15-6.716,15-15s-6.716-15-15-15
		h-9c-25.364,0-46,20.636-46,46v63H174.5z"/>
	<path id="XMLID_1161_" style="fill:#91DC5A;" d="M269.5,149c0-22.092-17.908-40-40-40c-0.42,0-0.836,0.019-1.253,0.031
		C223.818,91.764,208.15,79,189.5,79c-11.951,0-22.67,5.248-30,13.557C152.17,84.248,141.451,79,129.5,79
		c-18.65,0-34.318,12.764-38.747,30.031C90.336,109.019,89.92,109,89.5,109c-22.092,0-40,17.908-40,40s17.908,40,40,40
		c1.271,0,2.525-0.066,3.766-0.182C84.836,196.151,79.5,206.949,79.5,219c0,22.092,17.908,40,40,40c1.899,0,3.765-0.142,5.593-0.397
		c-3.549,5.974-5.593,12.945-5.593,20.397c0,22.092,17.908,40,40,40s40-17.908,40-40c0-7.452-2.044-14.424-5.593-20.397
		c1.828,0.256,3.693,0.397,5.593,0.397c22.092,0,40-17.908,40-40c0-12.051-5.336-22.849-13.766-30.182
		c1.24,0.115,2.495,0.182,3.766,0.182C251.592,189,269.5,171.092,269.5,149z"/>
	<path id="XMLID_1162_" style="fill:#64C37D;" d="M159.5,92.557C152.17,84.248,141.451,79,129.5,79
		c-18.65,0-34.318,12.764-38.747,30.031C90.336,109.019,89.92,109,89.5,109c-22.092,0-40,17.908-40,40s17.908,40,40,40
		c1.271,0,2.525-0.066,3.766-0.182C84.836,196.151,79.5,206.949,79.5,219c0,22.092,17.908,40,40,40c1.899,0,3.765-0.142,5.593-0.397
		c-3.549,5.974-5.593,12.945-5.593,20.397c0,22.092,17.908,40,40,40C159.5,275,159.5,148.5,159.5,92.557z"/>
</g>
<g>
</g>
<g>
</g>
<g>
</g>
<g>
</g>
<g>
</g>
<g>
</g>
<g>
</g>
<g>
</g>
<g>
</g>
<g>
</g>
<g>
</g>
<g>
</g>
<g>
</g>
<g>
</g>
<g>
</g>
</svg>
