<?xml version="1.0" encoding="iso-8859-1"?>
<!-- Generator: Adobe Illustrator 19.0.0, SVG Export Plug-In . SVG Version: 6.00 Build 0)  -->
<svg version="1.1" id="Layer_1" xmlns="http://www.w3.org/2000/svg" xmlns:xlink="http://www.w3.org/1999/xlink" x="0px" y="0px"
	 viewBox="0 0 340 340" style="enable-background:new 0 0 340 340;" xml:space="preserve">
<g id="XMLID_1778_">
	<polygon id="XMLID_1779_" style="fill:#FFAD41;" points="170,340 110,160 230,160 	"/>
	<polygon id="XMLID_1780_" style="fill:#FF9811;" points="170,340 110,160 170,160 	"/>
	<path id="XMLID_1781_" style="fill:#804C09;" d="M240,117.248L240,117.248c3.139-4.179,5-9.37,5-15c0-13.807-11.193-25-25-25
		h-10.988c0.602-4.092,0.988-8.467,0.988-12.96C210,0,159.488,0,159.488,0c9.153,27.461-0.866,47.125-22.78,59.601
		C116.811,70.93,96.17,79.462,95.054,100.68C95.022,101.2,95,101.721,95,102.248c0,0.035,0.004,0.069,0.004,0.104
		c0,0.05-0.004,0.097-0.004,0.146c0,0.062,0.015,0.118,0.018,0.178c0.093,5.463,1.924,10.5,4.982,14.572l0,0
		c-13.807,0-25,11.193-25,25s11.193,25,25,25h140c13.807,0,25-11.193,25-25S253.807,117.248,240,117.248z"/>
	<path id="XMLID_1782_" style="fill:#402604;" d="M170,1.637C163.85,0.01,159.488,0,159.488,0
		c9.153,27.461-0.866,47.125-22.78,59.601C116.811,70.93,96.17,79.462,95.054,100.68C95.022,101.2,95,101.721,95,102.248
		c0,0.035,0.004,0.069,0.004,0.104c0,0.05-0.004,0.097-0.004,0.146c0,0.062,0.015,0.118,0.018,0.178
		c0.093,5.463,1.924,10.5,4.982,14.572c-13.807,0-25,11.193-25,25s11.193,25,25,25V217c0,8.284,6.716,15,15,15s15-6.716,15-15v-35
		c0-7.378,5.331-13.497,12.349-14.752H170V1.637z"/>
</g>
<g>
</g>
<g>
</g>
<g>
</g>
<g>
</g>
<g>
</g>
<g>
</g>
<g>
</g>
<g>
</g>
<g>
</g>
<g>
</g>
<g>
</g>
<g>
</g>
<g>
</g>
<g>
</g>
<g>
</g>
</svg>
