<?xml version="1.0" encoding="iso-8859-1"?>
<!-- Generator: Adobe Illustrator 19.0.0, SVG Export Plug-In . SVG Version: 6.00 Build 0)  -->
<svg version="1.1" id="Layer_1" xmlns="http://www.w3.org/2000/svg" xmlns:xlink="http://www.w3.org/1999/xlink" x="0px" y="0px"
	 viewBox="0 0 280 280" style="enable-background:new 0 0 280 280;" xml:space="preserve">
<g id="XMLID_1427_">
	<path id="XMLID_1428_" style="fill:#EEEEEF;" d="M216,70h-1V40H65v30h-1c-18.777,0-34,15.223-34,34v46h220v-46
		C250,85.223,234.777,70,216,70z"/>
	<path id="XMLID_1429_" style="fill:#DEDDE0;" d="M140,40H65v30h-1c-18.777,0-34,15.223-34,34v46h110V40z"/>
	<path id="XMLID_1430_" style="fill:#FF5023;" d="M140,120H30v126c0,18.777,15.223,34,34,34h152c18.777,0,34-15.223,34-34V120H140z"
		/>
	<path id="XMLID_1431_" style="fill:#BD3C1A;" d="M140,120H30v126c0,18.777,15.223,34,34,34h76V120z"/>
	<path id="XMLID_1432_" style="fill:#FFFFFF;" d="M180,190c0-22.092-17.909-40-40-40s-40,17.908-40,40H80v40h120v-40H180z"/>
	<path id="XMLID_1433_" style="fill:#FFE98F;" d="M100,190H80v40h60v-40v-40C117.909,150,100,167.908,100,190z"/>
	<path id="XMLID_1434_" style="fill:#FF5023;" d="M30,70c27.499,0,27.499,20,54.998,20c27.497,0,27.497-20,54.996-20
		c27.502,0,27.502,20,55.003,20S222.498,70,250,70l-30-30l-80-10L60,40L30,70z"/>
	<path id="XMLID_1435_" style="fill:#BD3C1A;" d="M220,0H120v40h100c11.046,0,20-8.954,20-20S231.046,0,220,0z"/>
	<path id="XMLID_1436_" style="fill:#802812;" d="M140,0H60C48.954,0,40,8.954,40,20s8.954,20,20,20h80V0z"/>
</g>
<g>
</g>
<g>
</g>
<g>
</g>
<g>
</g>
<g>
</g>
<g>
</g>
<g>
</g>
<g>
</g>
<g>
</g>
<g>
</g>
<g>
</g>
<g>
</g>
<g>
</g>
<g>
</g>
<g>
</g>
</svg>
