<?xml version="1.0" encoding="iso-8859-1"?>
<!-- Generator: Adobe Illustrator 19.0.0, SVG Export Plug-In . SVG Version: 6.00 Build 0)  -->
<svg version="1.1" id="Layer_1" xmlns="http://www.w3.org/2000/svg" xmlns:xlink="http://www.w3.org/1999/xlink" x="0px" y="0px"
	 viewBox="0 0 280 280" style="enable-background:new 0 0 280 280;" xml:space="preserve">
<g id="XMLID_1326_">
	<circle id="XMLID_1327_" style="fill:#804C09;" cx="140" cy="140" r="140"/>
	<path id="XMLID_1328_" style="fill:#402604;" d="M140,280C62.68,280,0,217.32,0,140C0,62.681,62.68,0,140,0"/>
	<circle id="XMLID_1329_" style="fill:#91DC5A;" cx="140" cy="140" r="120"/>
	<path id="XMLID_1330_" style="fill:#64C37D;" d="M140,260c-66.274,0-120.001-53.725-120.001-120C19.999,73.726,73.726,20,140,20"/>
	<path id="XMLID_1331_" style="fill:#C2FB3B;" d="M210,120h-21.716l15.355-15.355c7.813-7.812,7.811-20.473,0-28.283
		c-7.809-7.811-20.473-7.813-28.283-0.002L160,91.715V70c0-11.046-8.954-20-20-20s-20,8.954-20,20v21.715L104.644,76.36
		c-7.81-7.811-20.474-7.811-28.284,0c-7.811,7.811-7.811,20.474,0,28.284L91.715,120H70c-11.046,0-20,8.954-20,20
		c0,11.045,8.953,20,20,20h21.715L76.36,175.355c-7.811,7.811-7.811,20.473,0.001,28.284c7.81,7.81,20.474,7.812,28.284,0
		L120,188.284V210c0,11.047,8.953,20,20,20c11.045,0,20-8.953,20-20v-21.717l15.355,15.355c7.811,7.813,20.473,7.811,28.283,0
		c7.811-7.81,7.813-20.473,0-28.283L188.283,160l21.716-0.001c11.048,0.001,20-8.953,19.999-19.999C230,128.955,221.047,120,210,120
		z"/>
	<path id="XMLID_1332_" style="fill:#91DC5A;" d="M140,50c-11.046,0-20,8.954-20,20v21.715L104.644,76.36
		c-7.81-7.811-20.474-7.811-28.284,0c-7.811,7.811-7.811,20.474,0,28.284L91.715,120H70c-11.046,0-20,8.954-20,20
		c0,11.045,8.953,20,20,20h21.715L76.36,175.355c-7.811,7.811-7.811,20.473,0.001,28.284c7.81,7.81,20.474,7.812,28.284,0
		L120,188.284V210c0,11.047,8.953,20,20,20C140,189,140,112.5,140,50z"/>
	<g id="XMLID_1333_">
		<circle id="XMLID_1334_" style="fill:#804C09;" cx="140" cy="80" r="10"/>
		<circle id="XMLID_26_" cx="97.573" cy="97.573" r="10"/>
		<circle id="XMLID_25_" cx="79.999" cy="140" r="10"/>
		<circle id="XMLID_24_" cx="97.573" cy="182.427" r="10"/>
		<circle id="XMLID_23_" style="fill:#804C09;" cx="140" cy="200" r="10"/>
		<path id="XMLID_22_" d="M140,210c-5.523,0-10-4.475-10-10c0-5.523,4.476-10,10-10"/>
		<circle id="XMLID_21_" style="fill:#804C09;" cx="182.427" cy="182.426" r="10"/>
		<circle id="XMLID_20_" style="fill:#804C09;" cx="200" cy="140" r="10"/>
		<circle id="XMLID_19_" style="fill:#804C09;" cx="182.426" cy="97.573" r="10"/>
		<path id="XMLID_1335_" d="M140,90c-5.523,0-10-4.477-10-10s4.477-10,10-10"/>
	</g>
	<circle id="XMLID_1336_" style="fill:#FFF6D2;" cx="140" cy="140" r="40"/>
	<path id="XMLID_1337_" style="fill:#FFE98F;" d="M140,180c-22.092,0-40-17.91-40-40c0-22.092,17.908-40,40-40"/>
</g>
<g>
</g>
<g>
</g>
<g>
</g>
<g>
</g>
<g>
</g>
<g>
</g>
<g>
</g>
<g>
</g>
<g>
</g>
<g>
</g>
<g>
</g>
<g>
</g>
<g>
</g>
<g>
</g>
<g>
</g>
</svg>
