<?xml version="1.0" encoding="iso-8859-1"?>
<!-- Generator: Adobe Illustrator 19.0.0, SVG Export Plug-In . SVG Version: 6.00 Build 0)  -->
<svg version="1.1" id="Layer_1" xmlns="http://www.w3.org/2000/svg" xmlns:xlink="http://www.w3.org/1999/xlink" x="0px" y="0px"
	 viewBox="0 0 340 340" style="enable-background:new 0 0 340 340;" xml:space="preserve">
<g id="XMLID_1840_">
	<rect id="XMLID_1841_" x="150" y="100" style="fill:#FFF6D2;" width="40" height="240"/>
	<rect id="XMLID_1842_" x="150" y="100" style="fill:#FFE98F;" width="20" height="240"/>
	<circle id="XMLID_1843_" style="fill:#FF5023;" cx="170" cy="80" r="80"/>
	<path id="XMLID_1844_" style="fill:#BD3C1A;" d="M170,160c-44.183,0-80-35.817-80-80s35.817-80,80-80"/>
	<path id="XMLID_1845_" style="fill:#FF734F;" d="M270,80c0,11.046-8.954,20-20,20H90c-11.046,0-20-8.954-20-20l0,0
		c0-11.046,8.954-20,20-20h160C261.046,60,270,68.954,270,80L270,80z"/>
	<path id="XMLID_1846_" style="fill:#FF5023;" d="M170,60H90c-11.046,0-20,8.954-20,20s8.954,20,20,20h80V60z"/>
</g>
<g>
</g>
<g>
</g>
<g>
</g>
<g>
</g>
<g>
</g>
<g>
</g>
<g>
</g>
<g>
</g>
<g>
</g>
<g>
</g>
<g>
</g>
<g>
</g>
<g>
</g>
<g>
</g>
<g>
</g>
</svg>
