<?xml version="1.0" encoding="iso-8859-1"?>
<!-- Generator: Adobe Illustrator 19.0.0, SVG Export Plug-In . SVG Version: 6.00 Build 0)  -->
<svg version="1.1" id="Layer_1" xmlns="http://www.w3.org/2000/svg" xmlns:xlink="http://www.w3.org/1999/xlink" x="0px" y="0px"
	 viewBox="0 0 320 320" style="enable-background:new 0 0 320 320;" xml:space="preserve">
<g id="XMLID_1576_">
	<g id="XMLID_1577_">
		<path id="XMLID_1578_" style="fill:#91DC5A;" d="M194.715,30h-69.43C94.752,30,70,53.104,70,83.637v33.55
			C70,147.72,94.752,170,125.285,170h69.43C225.249,170,250,147.72,250,117.187v-33.55C250,53.104,225.249,30,194.715,30z"/>
		<path id="XMLID_1579_" style="fill:#64C37D;" d="M159.412,30h-34.127C94.752,30,70,53.104,70,83.637v33.55
			C70,147.72,94.752,170,125.285,170h34.127V30z"/>
		<rect id="XMLID_1580_" x="70" y="83.529" style="fill:#C2FB3B;" width="180" height="32.941"/>
		<rect id="XMLID_1581_" x="70" y="83.529" style="fill:#91DC5A;" width="89.412" height="32.941"/>
	</g>
	<g id="XMLID_1582_">
		<path id="XMLID_1583_" style="fill:#FF5023;" d="M264.715,150h-69.43C164.751,150,140,173.104,140,203.637v33.55
			C140,267.72,164.751,290,195.285,290h69.43C295.249,290,320,267.72,320,237.186v-33.55C320,173.104,295.249,150,264.715,150z"/>
		<path id="XMLID_1584_" style="fill:#BD3C1A;" d="M229.412,150h-34.127C164.751,150,140,173.104,140,203.637v33.55
			C140,267.72,164.751,290,195.285,290h34.127V150z"/>
		<rect id="XMLID_1585_" x="140" y="203.529" style="fill:#FF734F;" width="180" height="32.941"/>
		<rect id="XMLID_1586_" x="140" y="203.529" style="fill:#FF5023;" width="89.412" height="32.941"/>
	</g>
	<g id="XMLID_1587_">
		<path id="XMLID_1588_" style="fill:#FFAD41;" d="M124.715,150h-69.43C24.751,150,0,173.104,0,203.637v33.55
			C0,267.72,24.751,290,55.285,290h69.43C155.249,290,180,267.72,180,237.186v-33.55C180,173.104,155.249,150,124.715,150z"/>
		<path id="XMLID_1589_" style="fill:#FF9811;" d="M90,150H55.285C24.751,150,0,173.104,0,203.637v33.55
			C0,267.72,24.751,290,55.285,290H90V150z"/>
		<rect id="XMLID_1590_" y="203.529" style="fill:#FFE98F;" width="180" height="32.941"/>
		<rect id="XMLID_1591_" y="203.529" style="fill:#FFCE8D;" width="90" height="32.941"/>
	</g>
</g>
<g>
</g>
<g>
</g>
<g>
</g>
<g>
</g>
<g>
</g>
<g>
</g>
<g>
</g>
<g>
</g>
<g>
</g>
<g>
</g>
<g>
</g>
<g>
</g>
<g>
</g>
<g>
</g>
<g>
</g>
</svg>
