<?xml version="1.0" encoding="iso-8859-1"?>
<!-- Generator: Adobe Illustrator 19.0.0, SVG Export Plug-In . SVG Version: 6.00 Build 0)  -->
<svg version="1.1" id="Layer_1" xmlns="http://www.w3.org/2000/svg" xmlns:xlink="http://www.w3.org/1999/xlink" x="0px" y="0px"
	 viewBox="0 0 240 240" style="enable-background:new 0 0 240 240;" xml:space="preserve">
<g id="XMLID_1474_">
	<path id="XMLID_1475_" style="fill:#EEEEEF;" d="M240,190c0,27.614-22.386,50-50,50H50c-27.614,0-50-22.386-50-50V50
		C0,22.386,22.386,0,50,0h140c27.614,0,50,22.386,50,50V190z"/>
	<path id="XMLID_1476_" style="fill:#565659;" d="M240,190c0,27.614-22.386,50-50,50H50c-27.614,0-50-22.386-50-50V50
		C0,22.386,22.386,0,50,0h140c27.614,0,50,22.386,50,50V190z"/>
	<path id="XMLID_1477_" d="M120,0H50C22.386,0,0,22.386,0,50v140c0,27.614,22.386,50,50,50h70V0z"/>
	<rect id="XMLID_1478_" x="40" y="40" style="fill:#EEEEEF;" width="160" height="160"/>
	<rect id="XMLID_1479_" x="40" y="40" style="fill:#DEDDE0;" width="80" height="160"/>
	<circle id="XMLID_1480_" style="fill:#FFAD41;" cx="120" cy="120" r="60"/>
	<path id="XMLID_1481_" style="fill:#FF9811;" d="M120,180c-33.137,0-60-26.863-60-60s26.863-60,60-60"/>
	<g id="XMLID_1482_">
		<path id="XMLID_16_" style="fill:#FFC170;" d="M162.424,162.428c4.961-4.961,8.859-10.577,11.719-16.566L94.139,65.854
			c-5.989,2.861-11.605,6.759-16.566,11.72S68.714,88.15,65.854,94.14l80.006,80.004
			C151.848,171.285,157.465,167.387,162.424,162.428z"/>
	</g>
</g>
<g>
</g>
<g>
</g>
<g>
</g>
<g>
</g>
<g>
</g>
<g>
</g>
<g>
</g>
<g>
</g>
<g>
</g>
<g>
</g>
<g>
</g>
<g>
</g>
<g>
</g>
<g>
</g>
<g>
</g>
</svg>
