<?xml version="1.0" encoding="iso-8859-1"?>
<!-- Generator: Adobe Illustrator 19.0.0, SVG Export Plug-In . SVG Version: 6.00 Build 0)  -->
<svg version="1.1" id="Layer_1" xmlns="http://www.w3.org/2000/svg" xmlns:xlink="http://www.w3.org/1999/xlink" x="0px" y="0px"
	 viewBox="0 0 250 250" style="enable-background:new 0 0 250 250;" xml:space="preserve">
<g id="XMLID_1119_">
	<polygon id="XMLID_1120_" style="fill:#FF5023;" points="25,150 45,240 205,240 225,150 125,140 	"/>
	<polygon id="XMLID_1121_" style="fill:#BD3C1A;" points="125,150 25,150 45,240 125,240 	"/>
	<g id="XMLID_1122_">
		<polygon id="XMLID_1123_" style="fill:#FF5023;" points="85,150 95,240 155,240 165,150 		"/>
		<polygon id="XMLID_1124_" style="fill:#FF734F;" points="125,150 125,240 155,240 165,150 		"/>
	</g>
	<path id="XMLID_1125_" style="fill:#BD720D;" d="M220.744,137.179C223.508,129.105,225,120.061,225,110
		c0-55.229-44.772-100-100-100S25,54.771,25,110c0,10.061,1.492,19.105,4.256,27.179H220.744z"/>
	<path id="XMLID_1126_" style="fill:#FFE98F;" d="M250,125c0,13.807-11.193,25-25,25H25c-13.807,0-25-11.193-25-25l0,0
		c0-13.807,11.193-25,25-25h200C238.807,100,250,111.193,250,125L250,125z"/>
	<path id="XMLID_1127_" style="fill:#FFDA44;" d="M125,100H25c-13.807,0-25,11.193-25,25s11.193,25,25,25h100V100z"/>
	<path id="XMLID_1128_" style="fill:#804C09;" d="M125,10c-51.854,0-94.486,39.467-99.504,90H35c8.284,0,15,6.716,15,15v45
		c0,8.284,6.716,15,15,15s15-6.716,15-15v-40c0-8.284,6.716-15,15-15s15,6.716,15,15v30c0,8.284,6.716,15,15,15s15-6.716,15-15v-30
		c0-8.284,6.716-15,15-15s15,6.716,15,15v40c0,8.284,6.716,15,15,15s15-6.716,15-15v-45c0-8.284,6.716-15,15-15h9.504
		C219.486,49.467,176.853,10,125,10z"/>
	<path id="XMLID_1129_" style="fill:#402604;" d="M125,10c-51.854,0-94.486,39.467-99.504,90H35c8.284,0,15,6.716,15,15v45
		c0,8.284,6.716,15,15,15s15-6.716,15-15v-40c0-8.284,6.716-15,15-15s15,6.716,15,15v30c0,8.284,6.716,15,15,15
		C125,153.75,125,19.327,125,10z"/>
	<circle id="XMLID_1130_" style="fill:#FF5023;" cx="175" cy="70" r="10"/>
	<circle id="XMLID_1131_" style="fill:#64C37D;" cx="75" cy="70" r="10"/>
	<circle id="XMLID_1132_" style="fill:#FF9811;" cx="125" cy="40" r="10"/>
</g>
<g>
</g>
<g>
</g>
<g>
</g>
<g>
</g>
<g>
</g>
<g>
</g>
<g>
</g>
<g>
</g>
<g>
</g>
<g>
</g>
<g>
</g>
<g>
</g>
<g>
</g>
<g>
</g>
<g>
</g>
</svg>
