<?xml version="1.0" encoding="iso-8859-1"?>
<!-- Generator: Adobe Illustrator 19.0.0, SVG Export Plug-In . SVG Version: 6.00 Build 0)  -->
<svg version="1.1" id="Layer_1" xmlns="http://www.w3.org/2000/svg" xmlns:xlink="http://www.w3.org/1999/xlink" x="0px" y="0px"
	 viewBox="0 0 290 290" style="enable-background:new 0 0 290 290;" xml:space="preserve">
<g id="XMLID_1207_">
	<g id="XMLID_1208_">
		<polygon id="XMLID_25_" style="fill:#BD3C1A;" points="214.572,30 185,0 44.572,0 44.572,30 		"/>
		
			<rect id="XMLID_24_" x="119.79" y="-19.14" transform="matrix(-0.3484 -0.9373 0.9373 -0.3484 124.7095 208.4031)" style="fill:#FF5023;" width="30" height="159.993"/>
	</g>
	<polygon id="XMLID_1209_" style="fill:#FFDA44;" points="245,170 185,170 185,0 215,0 245,120 	"/>
	<g id="XMLID_1210_">
		<path id="XMLID_1211_" style="fill:#FFDA44;" d="M227.94,235c4.546-10.759,7.06-22.586,7.06-35c0-49.705-40.295-90-90-90
			s-90,40.295-90,90c0,12.414,2.514,24.241,7.06,35H227.94z"/>
		<path id="XMLID_1212_" style="fill:#FFAD41;" d="M145,235c0-22.923,0-45,0-125c-49.705,0-90,40.295-90,90
			c0,12.414,2.514,24.241,7.06,35H145z"/>
		<path id="XMLID_1213_" style="fill:#FFE98F;" d="M193.719,235c7.092-9.854,11.281-21.934,11.281-35c0-33.137-26.863-60-60-60
			s-60,26.863-60,60c0,13.066,4.189,25.146,11.281,35H193.719z"/>
	</g>
	<path id="XMLID_1214_" style="fill:#91DC5A;" d="M275,170H15c-8.284,0-15,6.716-15,15s6.716,15,15,15h10
		c0,35.264,26.079,64.424,60,69.277V290h120v-20.723c33.921-4.854,60-34.014,60-69.277h10c8.284,0,15-6.716,15-15
		S283.284,170,275,170z"/>
	<path id="XMLID_1215_" style="fill:#64C37D;" d="M15,170c-8.284,0-15,6.716-15,15s6.716,15,15,15h10
		c0,35.264,26.079,64.424,60,69.277V290h60V170H15z"/>
	<path id="XMLID_1216_" style="fill:#FFE98F;" d="M215,0v125c0,8.284,6.716,15,15,15s15-6.716,15-15V0H215z"/>
</g>
<g>
</g>
<g>
</g>
<g>
</g>
<g>
</g>
<g>
</g>
<g>
</g>
<g>
</g>
<g>
</g>
<g>
</g>
<g>
</g>
<g>
</g>
<g>
</g>
<g>
</g>
<g>
</g>
<g>
</g>
</svg>
