<?xml version="1.0" encoding="iso-8859-1"?>
<!-- Generator: Adobe Illustrator 19.0.0, SVG Export Plug-In . SVG Version: 6.00 Build 0)  -->
<svg version="1.1" id="Layer_1" xmlns="http://www.w3.org/2000/svg" xmlns:xlink="http://www.w3.org/1999/xlink" x="0px" y="0px"
	 viewBox="0 0 330 330" style="enable-background:new 0 0 330 330;" xml:space="preserve">
<g id="XMLID_1101_">
	<circle id="XMLID_1102_" style="fill:#ACABB1;" cx="190" cy="140" r="60"/>
	<circle id="XMLID_1103_" style="fill:#FFFFFF;" cx="190" cy="140" r="30"/>
	<polygon id="XMLID_1104_" style="fill:#CDCDD0;" points="190,110 190,80 190,40 100,40 130,90 130,110 160,120 	"/>
	<path id="XMLID_1105_" style="fill:#FFE98F;" d="M209.998,159.745C198.75,149.75,190,145,190,121.334V110h-60v11.334
		c0,23.666-8.75,28.416-19.998,38.411C91.592,176.103,80,201.579,80,230c0,49.706,35.816,90,80,90s80-40.294,80-90
		C240,201.579,228.408,176.103,209.998,159.745z"/>
	<path id="XMLID_1106_" style="fill:#FFDA44;" d="M110.002,159.745C121.25,149.75,130,145,130,121.334C130,110,130,110,130,110h30
		c0,0,0,201.132,0,210c-44.184,0-80-40.294-80-90C80,201.579,91.592,176.103,110.002,159.745z"/>
	<path id="XMLID_1107_" style="fill:#FFDA44;" d="M220,315c0,8.284-6.716,15-15,15h-90c-8.284,0-15-6.716-15-15l0,0
		c0-8.284,6.716-15,15-15h90C213.284,300,220,306.716,220,315L220,315z"/>
	<path id="XMLID_1108_" style="fill:#FF9811;" d="M160,300h-45c-8.284,0-15,6.716-15,15s6.716,15,15,15h45V300z"/>
	<polygon id="XMLID_1109_" style="fill:#BD720D;" points="190,40 160,50 130,40 130,0 190,0 	"/>
	<rect id="XMLID_1110_" x="130" style="fill:#804C09;" width="30" height="40"/>
	<polygon id="XMLID_1111_" style="fill:#FF9811;" points="180,70 140,70 130,40 190,40 	"/>
	<polygon id="XMLID_1112_" style="fill:#BD720D;" points="160,70 140,70 130,40 160,40 	"/>
</g>
<g>
</g>
<g>
</g>
<g>
</g>
<g>
</g>
<g>
</g>
<g>
</g>
<g>
</g>
<g>
</g>
<g>
</g>
<g>
</g>
<g>
</g>
<g>
</g>
<g>
</g>
<g>
</g>
<g>
</g>
</svg>
