<?xml version="1.0" encoding="iso-8859-1"?>
<!-- Generator: Adobe Illustrator 19.0.0, SVG Export Plug-In . SVG Version: 6.00 Build 0)  -->
<svg version="1.1" id="Layer_1" xmlns="http://www.w3.org/2000/svg" xmlns:xlink="http://www.w3.org/1999/xlink" x="0px" y="0px"
	 viewBox="0 0 280 280" style="enable-background:new 0 0 280 280;" xml:space="preserve">
<g id="XMLID_836_">
	<path id="XMLID_24_" style="fill:#91DC5A;" d="M226.721,1.366c0,0,7.682,43.532-17.07,68.284
		c-24.754,24.753-68.285,17.072-68.285,17.072s-8.535-42.678,17.072-68.284C184.043-7.17,226.721,1.366,226.721,1.366z"/>
	<path id="XMLID_837_" style="fill:#64C37D;" d="M155,75c0,8.284-6.716,15-15,15l0,0c-8.284,0-15-6.716-15-15V25
		c0-8.284,6.716-15,15-15l0,0c8.284,0,15,6.716,15,15V75z"/>
	<circle id="XMLID_838_" style="fill:#FFAD41;" cx="140" cy="170" r="110"/>
	<path id="XMLID_839_" style="fill:#FF9811;" d="M140,280c-60.751,0-110-49.248-110-110S79.248,60,140,60"/>
	<circle id="XMLID_840_" style="fill:#804C09;" cx="100" cy="120" r="10"/>
	<circle id="XMLID_841_" style="fill:#804C09;" cx="70" cy="170" r="10"/>
	<circle id="XMLID_842_" style="fill:#804C09;" cx="100" cy="220" r="10"/>
	<circle id="XMLID_843_" style="fill:#BD720D;" cx="180" cy="120" r="10"/>
	<circle id="XMLID_844_" style="fill:#BD720D;" cx="210" cy="170" r="10"/>
	<circle id="XMLID_845_" style="fill:#BD720D;" cx="180" cy="220" r="10"/>
</g>
<g>
</g>
<g>
</g>
<g>
</g>
<g>
</g>
<g>
</g>
<g>
</g>
<g>
</g>
<g>
</g>
<g>
</g>
<g>
</g>
<g>
</g>
<g>
</g>
<g>
</g>
<g>
</g>
<g>
</g>
</svg>
