<?xml version="1.0" encoding="iso-8859-1"?>
<!-- Generator: Adobe Illustrator 19.0.0, SVG Export Plug-In . SVG Version: 6.00 Build 0)  -->
<svg version="1.1" id="Layer_1" xmlns="http://www.w3.org/2000/svg" xmlns:xlink="http://www.w3.org/1999/xlink" x="0px" y="0px"
	 viewBox="0 0 280 280" style="enable-background:new 0 0 280 280;" xml:space="preserve">
<g id="XMLID_1282_">
	<path id="XMLID_19_" style="fill:#91DC5A;" d="M226.721,1.365c0,0,7.682,43.532-17.07,68.285
		c-24.754,24.752-68.285,17.071-68.285,17.071s-8.535-42.678,17.072-68.284C184.043-7.17,226.721,1.365,226.721,1.365z"/>
	<path id="XMLID_1283_" style="fill:#804C09;" d="M155,75c0,8.284-6.716,15-15,15l0,0c-8.284,0-15-6.716-15-15V25
		c0-8.284,6.716-15,15-15l0,0c8.284,0,15,6.716,15,15V75z"/>
	<ellipse id="XMLID_1284_" style="fill:#FF9811;" cx="180" cy="170" rx="90" ry="110"/>
	<ellipse id="XMLID_1285_" style="fill:#FFAD41;" cx="100" cy="170" rx="90" ry="110"/>
	<path id="XMLID_1286_" style="fill:#FF9811;" d="M140,71.444C127.95,64.123,114.37,60,100,60c-49.706,0-90,49.248-90,110
		s40.294,110,90,110c14.37,0,27.95-4.123,40-11.443V71.444z"/>
</g>
<g>
</g>
<g>
</g>
<g>
</g>
<g>
</g>
<g>
</g>
<g>
</g>
<g>
</g>
<g>
</g>
<g>
</g>
<g>
</g>
<g>
</g>
<g>
</g>
<g>
</g>
<g>
</g>
<g>
</g>
</svg>
