<?xml version="1.0" encoding="iso-8859-1"?>
<!-- Generator: Adobe Illustrator 19.0.0, SVG Export Plug-In . SVG Version: 6.00 Build 0)  -->
<svg version="1.1" id="Layer_1" xmlns="http://www.w3.org/2000/svg" xmlns:xlink="http://www.w3.org/1999/xlink" x="0px" y="0px"
	 viewBox="0 0 350 350" style="enable-background:new 0 0 350 350;" xml:space="preserve">
<g id="XMLID_1664_">
	<path id="XMLID_1665_" style="fill:#FFDA44;" d="M314.916,219.5c0.05-1.262,0.084-2.527,0.084-3.8c0-63.622-62.682-115.2-140-115.2
		c-77.319,0-140,51.578-140,115.2c0,1.273,0.034,2.538,0.084,3.8H314.916z"/>
	<path id="XMLID_1666_" style="fill:#FFAD41;" d="M175,219.5v-119c-77.319,0-140,51.578-140,115.2c0,1.273,0.034,2.538,0.084,3.8
		H175z"/>
	<path id="XMLID_1667_" style="fill:#FF9811;" d="M325,209.5v-40c0-11.046-8.954-20-20-20c-21.667,0-21.667,15.758-43.336,15.758
		c-21.668,0-21.668-15.758-43.335-15.758c-21.665,0-21.665,15.758-43.328,15.758c-21.665,0-21.665-15.758-43.33-15.758
		c-21.667,0-21.667,15.758-43.335,15.758C66.667,165.258,66.667,149.5,45,149.5c-11.046,0-20,8.954-20,20v40H325z"/>
	<path id="XMLID_1668_" style="fill:#BD720D;" d="M175.001,165.258c-21.665,0-21.665-15.758-43.33-15.758
		c-21.667,0-21.667,15.758-43.335,15.758C66.667,165.258,66.667,149.5,45,149.5c-11.046,0-20,8.954-20,20v40h150
		C175,209.5,175.001,179.833,175.001,165.258z"/>
	<path id="XMLID_1669_" style="fill:#CDCDD0;" d="M335,179.5H15c-8.284,0-15,6.716-15,15s6.716,15,15,15h10
		c0,22.092,17.908,40,40,40h220c22.092,0,40-17.908,40-40h10c8.284,0,15-6.716,15-15S343.284,179.5,335,179.5z"/>
	<path id="XMLID_1670_" style="fill:#ACABB1;" d="M175,179.5H15c-8.284,0-15,6.716-15,15s6.716,15,15,15h10
		c0,22.092,17.908,40,40,40h110V179.5z"/>
	<path id="XMLID_1671_" style="fill:#BD720D;" d="M120,130.5c8.284,0,15-6.716,15-15v-10.22
		c-10.569,2.589-20.618,6.171-29.979,10.626C105.237,124.001,111.853,130.5,120,130.5z"/>
	<path id="XMLID_1672_" style="fill:#FFAD41;" d="M230,130.5c8.146,0,14.762-6.499,14.98-14.594
		c-9.361-4.455-19.41-8.037-29.98-10.626v10.22C215,123.784,221.716,130.5,230,130.5z"/>
	<path id="XMLID_1673_" style="fill:#FFAD41;" d="M175,130.5c8.284,0,15-6.716,15-15v-14.341c-4.929-0.432-9.932-0.659-15-0.659
		s-10.071,0.228-15,0.659V115.5C160,123.784,166.716,130.5,175,130.5z"/>
	<path id="XMLID_1674_" style="fill:#BD720D;" d="M175,130.5c0-7,0-13.5,0-30c-5.068,0-10.071,0.228-15,0.659V115.5
		C160,123.784,166.716,130.5,175,130.5z"/>
</g>
<g>
</g>
<g>
</g>
<g>
</g>
<g>
</g>
<g>
</g>
<g>
</g>
<g>
</g>
<g>
</g>
<g>
</g>
<g>
</g>
<g>
</g>
<g>
</g>
<g>
</g>
<g>
</g>
<g>
</g>
</svg>
