<?xml version="1.0" encoding="iso-8859-1"?>
<!-- Generator: Adobe Illustrator 19.0.0, SVG Export Plug-In . SVG Version: 6.00 Build 0)  -->
<svg version="1.1" id="Layer_1" xmlns="http://www.w3.org/2000/svg" xmlns:xlink="http://www.w3.org/1999/xlink" x="0px" y="0px"
	 viewBox="0 0 340 340" style="enable-background:new 0 0 340 340;" xml:space="preserve">
<g id="XMLID_1040_">
	<path id="XMLID_1041_" style="fill:#FFE98F;" d="M249.605,60.266C249.864,58.548,250,56.79,250,55c0-19.33-15.67-35-35-35
		c-4.367,0-8.544,0.807-12.399,2.268C197.507,9.235,184.836,0,170,0s-27.507,9.235-32.601,22.268C133.544,20.807,129.367,20,125,20
		c-19.33,0-35,15.67-35,35c0,1.79,0.136,3.548,0.395,5.266C73.069,62.362,59.641,77.108,59.641,95c0,19.33,15.67,35,35,35
		c12.862,0,137.857,0,150.719,0c19.33,0,35-15.67,35-35C280.359,77.108,266.931,62.362,249.605,60.266z"/>
	<path id="XMLID_1042_" style="fill:#FFDA44;" d="M170,0c-14.836,0-27.507,9.235-32.601,22.268C133.544,20.807,129.367,20,125,20
		c-19.33,0-35,15.67-35,35c0,1.79,0.136,3.548,0.395,5.266C73.069,62.362,59.641,77.108,59.641,95c0,19.33,15.67,35,35,35H170
		C170,130,170,18.076,170,0z"/>
	<polygon id="XMLID_1043_" style="fill:#BD3C1A;" points="60,100 90,340 250,340 280,100 	"/>
	<polygon id="XMLID_1044_" style="fill:#FF5023;" points="200,340 130,340 120,100 210,100 	"/>
	<polygon id="XMLID_1045_" style="fill:#FF734F;" points="200,340 170,340 170,100 210,100 	"/>
	<polygon id="XMLID_1046_" style="fill:#802812;" points="60,100 90,340 140,340 130,100 	"/>
	<g id="XMLID_1047_">
		<ellipse id="XMLID_1048_" style="fill:#FFFFFF;" cx="170" cy="230" rx="50" ry="25"/>
		<path id="XMLID_1049_" style="fill:#FFE98F;" d="M170,255c-27.614,0-50-11.192-50-25s22.386-25,50-25"/>
	</g>
</g>
<g>
</g>
<g>
</g>
<g>
</g>
<g>
</g>
<g>
</g>
<g>
</g>
<g>
</g>
<g>
</g>
<g>
</g>
<g>
</g>
<g>
</g>
<g>
</g>
<g>
</g>
<g>
</g>
<g>
</g>
</svg>
