<?xml version="1.0" encoding="iso-8859-1"?>
<!-- Generator: Adobe Illustrator 19.0.0, SVG Export Plug-In . SVG Version: 6.00 Build 0)  -->
<svg version="1.1" id="Layer_1" xmlns="http://www.w3.org/2000/svg" xmlns:xlink="http://www.w3.org/1999/xlink" x="0px" y="0px"
	 viewBox="0 0 313 313" style="enable-background:new 0 0 313 313;" xml:space="preserve">
<g id="XMLID_1181_">
	<g id="XMLID_1182_">
		<path id="XMLID_1183_" style="fill:#91DC5A;" d="M206.5,35c-12.881,0-24.889,3.781-35,10.271V15c0-8.284-6.716-15-15-15
			s-15,6.716-15,15v30.271C131.389,38.781,119.381,35,106.5,35c-8.284,0-15,6.716-15,15s6.716,15,15,15c19.299,0,35,15.701,35,35v23
			h30v-23c0-19.299,15.701-35,35-35c8.284,0,15-6.716,15-15S214.784,35,206.5,35z"/>
		<path id="XMLID_1184_" style="fill:#64C37D;" d="M156.5,123c0,0,0-110.304,0-123c-8.284,0-15,6.716-15,15v30.271
			C131.389,38.781,119.381,35,106.5,35c-8.284,0-15,6.716-15,15s6.716,15,15,15c19.299,0,35,15.701,35,35v23H156.5z"/>
	</g>
	<path id="XMLID_1185_" style="fill:#FF5023;" d="M226.5,183c0,50-40,70-70,130c-30-60-70-80-70-130c0-38.66,31.34-70,70-70
		S226.5,144.34,226.5,183z"/>
	<path id="XMLID_1186_" style="fill:#BD3C1A;" d="M156.5,313c-30-60-70-80-70-130c0-38.66,31.34-70,70-70
		C156.5,175,156.5,204,156.5,313z"/>
	<path id="XMLID_1187_" style="fill:#802812;" d="M126.5,163c0-5.523-4.477-10-10-10H93.245c-2.954,6.217-5.012,12.939-6.022,20
		H116.5C122.023,173,126.5,168.523,126.5,163z"/>
	<path id="XMLID_1188_" style="fill:#BD3C1A;" d="M196.5,183c-5.523,0-10,4.477-10,10s4.477,10,10,10h27.642
		c1.519-6.182,2.358-12.776,2.358-20H196.5z"/>
	<path id="XMLID_1189_" style="fill:#802812;" d="M126.5,223c0-5.523-4.477-10-10-10H92.015c2.695,6.975,6.262,13.52,10.437,20
		H116.5C122.023,233,126.5,228.523,126.5,223z"/>
</g>
<g>
</g>
<g>
</g>
<g>
</g>
<g>
</g>
<g>
</g>
<g>
</g>
<g>
</g>
<g>
</g>
<g>
</g>
<g>
</g>
<g>
</g>
<g>
</g>
<g>
</g>
<g>
</g>
<g>
</g>
</svg>
