<?xml version="1.0" encoding="iso-8859-1"?>
<!-- Generator: Adobe Illustrator 19.0.0, SVG Export Plug-In . SVG Version: 6.00 Build 0)  -->
<svg version="1.1" id="Layer_1" xmlns="http://www.w3.org/2000/svg" xmlns:xlink="http://www.w3.org/1999/xlink" x="0px" y="0px"
	 viewBox="0 0 300 300" style="enable-background:new 0 0 300 300;" xml:space="preserve">
<g id="XMLID_1287_">
	<circle id="XMLID_1288_" style="fill:#FF5023;" cx="225" cy="124.999" r="75"/>
	<circle id="XMLID_1289_" style="fill:#BD3C1A;" cx="75" cy="124.999" r="75"/>
	<path id="XMLID_1290_" style="fill:#FFDA44;" d="M75,138.563c-41.421,0-75,33.578-75,75C0,242.421,16.103,267.458,40,280h69.793
		C133.69,267.458,150,242.421,150,213.563C150,172.141,116.421,138.563,75,138.563z"/>
	<path id="XMLID_1291_" style="fill:#FFE98F;" d="M225,138.563c41.422,0,75,33.578,75,75c0,28.859-16.103,53.897-40,66.438h-69.793
		C166.311,267.458,150,242.421,150,213.563C150,172.141,183.578,138.563,225,138.563z"/>
	<path id="XMLID_1292_" style="fill:#FFAD41;" d="M260,19.999H40c-22.091,0-40,17.909-40,40s17.909,40,40,40v180h220v-180
		c22.092,0,40-17.909,40-40S282.092,19.999,260,19.999z"/>
	<path id="XMLID_1293_" style="fill:#FF9811;" d="M150,280v-260H40c-22.091,0-40,17.909-40,40s17.909,40,40,40v180H150z"/>
	<g id="XMLID_1294_">
		<circle id="XMLID_1295_" style="fill:#804C09;" cx="110" cy="79.999" r="10"/>
		<circle id="XMLID_1296_" style="fill:#804C09;" cx="80" cy="149.999" r="10"/>
		<circle id="XMLID_1297_" style="fill:#BD720D;" cx="150" cy="149.999" r="10"/>
		<path id="XMLID_1298_" style="fill:#804C09;" d="M150,159.999c-5.523,0-10-4.477-10-10s4.477-10,10-10"/>
		<circle id="XMLID_1299_" style="fill:#804C09;" cx="110" cy="219.999" r="10"/>
		<circle id="XMLID_1300_" style="fill:#BD720D;" cx="190" cy="79.999" r="10"/>
		<circle id="XMLID_1301_" style="fill:#BD720D;" cx="220" cy="149.999" r="10"/>
		<circle id="XMLID_1302_" style="fill:#BD720D;" cx="190" cy="219.999" r="10"/>
	</g>
</g>
<g>
</g>
<g>
</g>
<g>
</g>
<g>
</g>
<g>
</g>
<g>
</g>
<g>
</g>
<g>
</g>
<g>
</g>
<g>
</g>
<g>
</g>
<g>
</g>
<g>
</g>
<g>
</g>
<g>
</g>
</svg>
