<?xml version="1.0" encoding="iso-8859-1"?>
<!-- Generator: Adobe Illustrator 19.0.0, SVG Export Plug-In . SVG Version: 6.00 Build 0)  -->
<svg version="1.1" id="Layer_1" xmlns="http://www.w3.org/2000/svg" xmlns:xlink="http://www.w3.org/1999/xlink" x="0px" y="0px"
	 viewBox="0 0 380 380" style="enable-background:new 0 0 380 380;" xml:space="preserve">
<g id="XMLID_830_">
	<path id="XMLID_831_" style="fill:#FFF6D2;" d="M319.598,180.18C314.602,118.5,262.968,70,200,70h-80C53.726,70,0,123.726,0,190
		s53.726,120,120,120h195c35.898,0,65-29.102,65-65C380,210.649,353.348,182.542,319.598,180.18z"/>
	<path id="XMLID_832_" style="fill:#FFE98F;" d="M190,70h-70C53.726,70,0,123.726,0,190s53.726,120,120,120h70V70z"/>
	<path id="XMLID_833_" style="fill:#FF5023;" d="M120,280c-49.626,0-90-40.374-90-90s40.374-90,90-90h80
		c22.755,0,44.471,8.511,61.147,23.964c16.593,15.376,26.731,36.201,28.549,58.638l2.082,25.704l25.726,1.8
		C335.726,211.382,350,226.709,350,245c0,19.299-15.701,35-35,35H120z"/>
	<path id="XMLID_834_" style="fill:#BD3C1A;" d="M190,100h-70c-49.626,0-90,40.374-90,90s40.374,90,90,90h70V100z"/>
	<circle id="XMLID_835_" style="fill:#FFE98F;" cx="110" cy="190" r="30"/>
</g>
<g>
</g>
<g>
</g>
<g>
</g>
<g>
</g>
<g>
</g>
<g>
</g>
<g>
</g>
<g>
</g>
<g>
</g>
<g>
</g>
<g>
</g>
<g>
</g>
<g>
</g>
<g>
</g>
<g>
</g>
</svg>
