<?xml version="1.0" encoding="iso-8859-1"?>
<!-- Generator: Adobe Illustrator 19.0.0, SVG Export Plug-In . SVG Version: 6.00 Build 0)  -->
<svg version="1.1" id="Layer_1" xmlns="http://www.w3.org/2000/svg" xmlns:xlink="http://www.w3.org/1999/xlink" x="0px" y="0px"
	 viewBox="0 0 300 300" style="enable-background:new 0 0 300 300;" xml:space="preserve">
<g id="XMLID_867_">
	<path id="XMLID_868_" style="fill:#91DC5A;" d="M233.873,31.366c0,0-28.378-5.673-52.737,6.117C171.174,14.842,149.999,0,149.999,0
		s-21.429,14.305-31.314,37.395c-24.319-11.676-52.558-6.029-52.558-6.029s-7.682,43.532,17.07,68.284
		c19.21,19.21,49.726,18.885,62.431,17.777c2.666,2.146,4.371,3.284,4.371,3.284s1.647-1.156,4.225-3.297
		c12.617,1.118,43.295,1.52,62.579-17.764C241.555,74.897,233.873,31.366,233.873,31.366z"/>
	<path id="XMLID_869_" style="fill:#64C37D;" d="M149.999,0c0,0-21.429,14.305-31.314,37.395
		c-24.319-11.676-52.558-6.029-52.558-6.029s-7.682,43.532,17.07,68.284c19.21,19.21,49.726,18.885,62.431,17.777
		c2.666,2.146,4.371,3.284,4.371,3.284V0z"/>
	<path id="XMLID_870_" style="fill:#FF5023;" d="M270,160c0-49.706-40.294-90-90-90h-60c-49.706,0-90,40.294-90,90
		c0,35.686,20.77,66.52,50.881,81.075C86.19,274.471,115.11,300,150,300s63.81-25.529,69.119-58.925
		C249.23,226.52,270,195.686,270,160z"/>
	<path id="XMLID_871_" style="fill:#BD3C1A;" d="M150,70h-30c-49.706,0-90,40.294-90,90c0,35.686,20.77,66.52,50.881,81.075
		C86.19,274.471,115.11,300,150,300C150,261,150,120,150,70z"/>
	<circle id="XMLID_872_" style="fill:#FFE98F;" cx="120" cy="220" r="10"/>
	<circle id="XMLID_873_" style="fill:#FFE98F;" cx="80" cy="170" r="10"/>
	<circle id="XMLID_874_" style="fill:#FFE98F;" cx="110" cy="120" r="10"/>
	<circle id="XMLID_875_" style="fill:#FFF6D2;" cx="180" cy="220" r="10"/>
	<circle id="XMLID_876_" style="fill:#FFF6D2;" cx="220" cy="170" r="10"/>
	<circle id="XMLID_877_" style="fill:#FFF6D2;" cx="190" cy="120" r="10"/>
</g>
<g>
</g>
<g>
</g>
<g>
</g>
<g>
</g>
<g>
</g>
<g>
</g>
<g>
</g>
<g>
</g>
<g>
</g>
<g>
</g>
<g>
</g>
<g>
</g>
<g>
</g>
<g>
</g>
<g>
</g>
</svg>
