<?xml version="1.0" encoding="iso-8859-1"?>
<!-- Generator: Adobe Illustrator 19.0.0, SVG Export Plug-In . SVG Version: 6.00 Build 0)  -->
<svg version="1.1" id="Layer_1" xmlns="http://www.w3.org/2000/svg" xmlns:xlink="http://www.w3.org/1999/xlink" x="0px" y="0px"
	 viewBox="0 0 360 360" style="enable-background:new 0 0 360 360;" xml:space="preserve">
<g id="XMLID_987_">
	<path id="XMLID_988_" style="fill:#91DC5A;" d="M0,90c0,99.412,80.588,180,180,180s180-80.588,180-180h-40l-140,10L40,90H0z"/>
	<path id="XMLID_989_" style="fill:#64C37D;" d="M0,90c0,99.412,80.588,180,180,180c0-37,0-170,0-170L40.423,90H0z"/>
	<path id="XMLID_990_" style="fill:#FF5023;" d="M320,90c0,77.32-62.681,140-140,140c-77.32,0-140-62.68-140-140H320z"/>
	<path id="XMLID_991_" style="fill:#BD3C1A;" d="M180,90c0,77.32,0,107,0,140c-77.32,0-140-62.68-140-140H180z"/>
	<circle id="XMLID_992_" cx="100" cy="130" r="10"/>
	<circle id="XMLID_993_" cx="140" cy="180" r="10"/>
	<circle id="XMLID_994_" style="fill:#804C09;" cx="260" cy="130" r="10"/>
	<circle id="XMLID_995_" style="fill:#804C09;" cx="220" cy="180" r="10"/>
	<circle id="XMLID_996_" style="fill:#804C09;" cx="180" cy="130" r="10"/>
	<path id="XMLID_997_" d="M180,140c-5.523,0-10-4.477-10-10s4.477-10,10-10"/>
</g>
<g>
</g>
<g>
</g>
<g>
</g>
<g>
</g>
<g>
</g>
<g>
</g>
<g>
</g>
<g>
</g>
<g>
</g>
<g>
</g>
<g>
</g>
<g>
</g>
<g>
</g>
<g>
</g>
<g>
</g>
</svg>
