<?xml version="1.0" encoding="iso-8859-1"?>
<!-- Generator: Adobe Illustrator 19.0.0, SVG Export Plug-In . SVG Version: 6.00 Build 0)  -->
<svg version="1.1" id="Layer_1" xmlns="http://www.w3.org/2000/svg" xmlns:xlink="http://www.w3.org/1999/xlink" x="0px" y="0px"
	 viewBox="0 0 290 290" style="enable-background:new 0 0 290 290;" xml:space="preserve">
<g id="XMLID_914_">
	<g id="XMLID_915_">
		<path id="XMLID_19_" style="fill:#91DC5A;" d="M231.721,1.366c0,0,7.682,43.532-17.07,68.284
			c-24.754,24.753-68.285,17.072-68.285,17.072s-8.535-42.678,17.072-68.284C189.043-7.17,231.721,1.366,231.721,1.366z"/>
		<path id="XMLID_916_" style="fill:#804C09;" d="M160,75c0,8.284-6.716,15-15,15l0,0c-8.284,0-15-6.716-15-15V25
			c0-8.284,6.716-15,15-15l0,0c8.284,0,15,6.716,15,15V75z"/>
	</g>
	<path id="XMLID_917_" style="fill:#FF5023;" d="M190,60c-16.53,0-31.947,4.734-45,12.898C131.947,64.734,116.53,60,100,60
		c-46.945,0-85,38.056-85,85c0,7.863,1.068,15.476,3.067,22.701C24.066,189.377,50.5,245.5,68.445,269.846
		C77.885,282.652,92.848,290,110,290c13.297,0,25.491-4.719,35-12.572c9.51,7.853,21.703,12.572,35,12.572
		c17.152,0,32.115-7.348,41.555-20.154C239.5,245.5,265.934,189.377,271.933,167.7c1.999-7.224,3.067-14.837,3.067-22.7
		C275,98.056,236.945,60,190,60z"/>
	<path id="XMLID_918_" style="fill:#BD3C1A;" d="M145,72.898C131.947,64.734,116.53,60,100,60c-46.945,0-85,38.056-85,85
		c0,7.863,1.068,15.476,3.067,22.701C24.066,189.377,50.5,245.5,68.445,269.846C77.885,282.652,92.848,290,110,290
		c13.297,0,25.491-4.719,35-12.572C145,227,145,116.666,145,72.898z"/>
</g>
<g>
</g>
<g>
</g>
<g>
</g>
<g>
</g>
<g>
</g>
<g>
</g>
<g>
</g>
<g>
</g>
<g>
</g>
<g>
</g>
<g>
</g>
<g>
</g>
<g>
</g>
<g>
</g>
<g>
</g>
</svg>
