<?xml version="1.0" encoding="iso-8859-1"?>
<!-- Generator: Adobe Illustrator 19.0.0, SVG Export Plug-In . SVG Version: 6.00 Build 0)  -->
<svg version="1.1" id="Layer_1" xmlns="http://www.w3.org/2000/svg" xmlns:xlink="http://www.w3.org/1999/xlink" x="0px" y="0px"
	 viewBox="0 0 320 320" style="enable-background:new 0 0 320 320;" xml:space="preserve">
<g id="XMLID_1348_">
	<g id="XMLID_1349_">
		<path id="XMLID_1350_" style="fill:#4B905E;" d="M135,295c0,13.807,11.193,25,25,25l0,0c13.807,0,25-11.193,25-25v-75
			c0-13.807-11.193-25-25-25l0,0c-13.807,0-25,11.193-25,25V295z"/>
		<path id="XMLID_1351_" style="fill:#64C37D;" d="M160,320L160,320c13.807,0,25-11.193,25-25v-75c0-13.807-11.193-25-25-25l0,0
			C160,243,160,288,160,320z"/>
	</g>
	<path id="XMLID_1352_" style="fill:#C2FB3B;" d="M266.721,81.365c0,0-12.27-2.451-27.598-0.779
		c9.331-23.234,4.75-49.221,4.75-49.221s-28.378-5.672-52.736,6.117C181.174,14.842,160,0,160,0s-21.43,14.305-31.314,37.395
		c-24.319-11.676-52.559-6.029-52.559-6.029s-4.581,25.986,4.75,49.221c-15.328-1.672-27.598,0.779-27.598,0.779
		s-7.682,43.532,17.07,68.285c24.754,24.752,68.285,17.071,68.285,17.071h42.73c0,0,43.531,7.681,68.285-17.071
		C274.402,124.897,266.721,81.365,266.721,81.365z"/>
	<path id="XMLID_1353_" style="fill:#91DC5A;" d="M160,0c0,0-21.43,14.305-31.314,37.395c-24.319-11.676-52.559-6.029-52.559-6.029
		s-4.581,25.986,4.75,49.221c-15.328-1.672-27.598,0.779-27.598,0.779s-7.682,43.532,17.07,68.285
		c24.754,24.752,68.285,17.071,68.285,17.071H160V0z"/>
	<path id="XMLID_1354_" style="fill:#91DC5A;" d="M289.956,127.816c0,0-26.804-9.104-57.036-5.523
		C227.542,98.098,216.672,80,216.672,80S185.759,85.276,160,105.186C134.241,85.276,103.328,80,103.328,80
		s-10.87,18.098-16.248,42.293c-30.232-3.58-57.036,5.523-57.036,5.523s-2.858,64.148,37.458,95.133
		c24.121,18.54,52.498,18.506,77.206,18.506c9.077,0,24.004,0,30.584,0c24.708,0,53.085,0.034,77.206-18.506
		C292.815,191.965,289.956,127.816,289.956,127.816z"/>
	<path id="XMLID_1355_" style="fill:#64C37D;" d="M160,105.186C134.241,85.276,103.328,80,103.328,80s-10.87,18.098-16.248,42.293
		c-30.232-3.58-57.036,5.523-57.036,5.523s-2.858,64.148,37.458,95.133c24.121,18.54,52.498,18.506,77.206,18.506H160
		C160,241.455,160,167.122,160,105.186z"/>
</g>
<g>
</g>
<g>
</g>
<g>
</g>
<g>
</g>
<g>
</g>
<g>
</g>
<g>
</g>
<g>
</g>
<g>
</g>
<g>
</g>
<g>
</g>
<g>
</g>
<g>
</g>
<g>
</g>
<g>
</g>
</svg>
