<?xml version="1.0" encoding="iso-8859-1"?>
<!-- Generator: Adobe Illustrator 19.0.0, SVG Export Plug-In . SVG Version: 6.00 Build 0)  -->
<svg version="1.1" id="Layer_1" xmlns="http://www.w3.org/2000/svg" xmlns:xlink="http://www.w3.org/1999/xlink" x="0px" y="0px"
	 viewBox="0 0 330.006 330.006" style="enable-background:new 0 0 330.006 330.006;" xml:space="preserve">
<g id="XMLID_1501_">
	<path id="XMLID_1502_" style="fill:#FFF6D2;" d="M0,200.003c27.502,0,27.502,20,55.003,20s27.501-20,55.003-20
		c27.499,0,27.499,20,54.998,20c27.497,0,27.497-20,54.996-20c27.502,0,27.502,20,55.003,20s27.501-20,55.003-20v-90
		c-27.502,0-27.502,20-55.003,20c-27.502,0-27.502-20-55.003-20c-27.498,0-27.498,20-54.996,20c-27.499,0-27.499-20-54.998-20
		c-27.502,0-27.502,20-55.003,20c-27.502,0-27.502-20-55.003-20V200.003z"/>
	<path id="XMLID_1503_" style="fill:#FFE98F;" d="M165.004,130.003c-27.499,0-27.499-20-54.998-20c-27.502,0-27.502,20-55.003,20
		c-27.502,0-27.502-20-55.003-20v90c27.502,0,27.502,20,55.003,20s27.501-20,55.003-20c27.499,0,27.499,20,54.998,20
		C165.004,214.003,165.004,148.003,165.004,130.003z"/>
	<path id="XMLID_1504_" style="fill:#FF734F;" d="M0,140.003c27.502,0,27.502,20,55.003,20s27.501-20,55.003-20
		c27.499,0,27.499,20,54.998,20c27.497,0,27.497-20,54.996-20c27.502,0,27.502,20,55.003,20s27.501-20,55.003-20v-30
		c-27.502,0-27.502,20-55.003,20c-27.502,0-27.502-20-55.003-20c-27.498,0-27.498,20-54.996,20c-27.499,0-27.499-20-54.998-20
		c-27.502,0-27.502,20-55.003,20c-27.502,0-27.502-20-55.003-20V140.003z"/>
	<path id="XMLID_1505_" style="fill:#FF5023;" d="M165.004,130.003c-27.499,0-27.499-20-54.998-20c-27.502,0-27.502,20-55.003,20
		c-27.502,0-27.502-20-55.003-20v30c27.502,0,27.502,20,55.003,20s27.501-20,55.003-20c27.499,0,27.499,20,54.998,20
		C165.004,154.003,165.004,148.003,165.004,130.003z"/>
	<path id="XMLID_1506_" style="fill:#FF734F;" d="M0,200.003c27.502,0,27.502,20,55.003,20s27.501-20,55.003-20
		c27.499,0,27.499,20,54.998,20c27.497,0,27.497-20,54.996-20c27.502,0,27.502,20,55.003,20s27.501-20,55.003-20v-30
		c-27.502,0-27.502,20-55.003,20c-27.502,0-27.502-20-55.003-20c-27.498,0-27.498,20-54.996,20c-27.499,0-27.499-20-54.998-20
		c-27.502,0-27.502,20-55.003,20c-27.502,0-27.502-20-55.003-20V200.003z"/>
	<path id="XMLID_1507_" style="fill:#FF5023;" d="M165.004,190.003c-27.499,0-27.499-20-54.998-20c-27.502,0-27.502,20-55.003,20
		c-27.502,0-27.502-20-55.003-20v30c27.502,0,27.502,20,55.003,20s27.501-20,55.003-20c27.499,0,27.499,20,54.998,20
		C165.004,214.003,165.004,208.003,165.004,190.003z"/>
</g>
<g>
</g>
<g>
</g>
<g>
</g>
<g>
</g>
<g>
</g>
<g>
</g>
<g>
</g>
<g>
</g>
<g>
</g>
<g>
</g>
<g>
</g>
<g>
</g>
<g>
</g>
<g>
</g>
<g>
</g>
</svg>
