<?xml version="1.0" encoding="iso-8859-1"?>
<!-- Generator: Adobe Illustrator 19.0.0, SVG Export Plug-In . SVG Version: 6.00 Build 0)  -->
<svg version="1.1" id="Layer_1" xmlns="http://www.w3.org/2000/svg" xmlns:xlink="http://www.w3.org/1999/xlink" x="0px" y="0px"
	 viewBox="0 0 370 370" style="enable-background:new 0 0 370 370;" xml:space="preserve">
<g id="XMLID_1654_">
	<path id="XMLID_1655_" style="fill:#4B905E;" d="M197.5,109V46c0-8.822,7.178-16,16-16h9c8.284,0,15-6.716,15-15s-6.716-15-15-15
		h-9c-25.364,0-46,20.636-46,46v63H197.5z"/>
	<path id="XMLID_1656_" style="fill:#91DC5A;" d="M182.5,370c0,0,50-20,50-60V110.002c0-27.614-22.386-50-50-50l0,0
		c-27.614,0-50,22.386-50,50c0,0,0,159.998,0,199.998S182.5,370,182.5,370z"/>
	<path id="XMLID_1657_" style="fill:#64C37D;" d="M182.5,370c0,0,0-199,0-309.998l0,0c-27.614,0-50,22.386-50,50
		c0,0,0,159.998,0,199.998S182.5,370,182.5,370z"/>
	<circle id="XMLID_1658_" style="fill:#64C37D;" cx="182.5" cy="210.001" r="30"/>
	<circle id="XMLID_1659_" style="fill:#64C37D;" cx="182.5" cy="290" r="30"/>
	<circle id="XMLID_1660_" style="fill:#64C37D;" cx="182.5" cy="130" r="30"/>
	<path id="XMLID_1661_" style="fill:#4B905E;" d="M182.5,240.001c-16.568,0-30-13.432-30-30s13.432-30,30-30"/>
	<path id="XMLID_1662_" style="fill:#4B905E;" d="M182.5,320c-16.568,0-30-13.432-30-30s13.432-30,30-30"/>
	<path id="XMLID_1663_" style="fill:#4B905E;" d="M182.5,160c-16.568,0-30-13.432-30-30s13.432-30,30-30"/>
</g>
<g>
</g>
<g>
</g>
<g>
</g>
<g>
</g>
<g>
</g>
<g>
</g>
<g>
</g>
<g>
</g>
<g>
</g>
<g>
</g>
<g>
</g>
<g>
</g>
<g>
</g>
<g>
</g>
<g>
</g>
</svg>
