<?xml version="1.0" encoding="iso-8859-1"?>
<!-- Generator: Adobe Illustrator 19.0.0, SVG Export Plug-In . SVG Version: 6.00 Build 0)  -->
<svg version="1.1" id="Layer_1" xmlns="http://www.w3.org/2000/svg" xmlns:xlink="http://www.w3.org/1999/xlink" x="0px" y="0px"
	 viewBox="0 0 290.001 290.001" style="enable-background:new 0 0 290.001 290.001;" xml:space="preserve">
<g id="XMLID_1548_">
	<path id="XMLID_1549_" style="fill:#DEDDE0;" d="M92.824,176.251c-7.677,32.358-17.823,76.539-17.823,84
		c0,16.334,13.32,29.75,29.75,29.75h80.5c16.43,0,29.75-13.416,29.75-29.75c0-8.678-11.651-49.346-19.605-84H92.824z"/>
	<path id="XMLID_1550_" style="fill:#CDCDD0;" d="M145.001,176.251H92.824c-7.677,32.358-17.823,76.539-17.823,84
		c0,16.334,13.32,29.75,29.75,29.75h40.25V176.251z"/>
	<g id="XMLID_1551_">
		<ellipse id="XMLID_1552_" style="fill:#FFAD41;" cx="145.001" cy="107.144" rx="89.286" ry="107.144"/>
		<path id="XMLID_1553_" style="fill:#FF9811;" d="M145.001,214.287c-49.312,0-89.286-47.971-89.286-107.144
			c0-59.171,39.974-107.142,89.286-107.142"/>
	</g>
	<g id="XMLID_1554_">
		<path id="XMLID_1555_" style="fill:#EEEEEF;" d="M145.001,236.001c57.99,0,105-56.414,105-126H40
			C40,179.587,87.01,236.001,145.001,236.001z"/>
		<path id="XMLID_1556_" style="fill:#DEDDE0;" d="M40,110.001c0,69.586,47.01,126,105,126v-126H40z"/>
	</g>
</g>
<g>
</g>
<g>
</g>
<g>
</g>
<g>
</g>
<g>
</g>
<g>
</g>
<g>
</g>
<g>
</g>
<g>
</g>
<g>
</g>
<g>
</g>
<g>
</g>
<g>
</g>
<g>
</g>
<g>
</g>
</svg>
