<?xml version="1.0" encoding="iso-8859-1"?>
<!-- Generator: Adobe Illustrator 19.0.0, SVG Export Plug-In . SVG Version: 6.00 Build 0)  -->
<svg version="1.1" id="Layer_1" xmlns="http://www.w3.org/2000/svg" xmlns:xlink="http://www.w3.org/1999/xlink" x="0px" y="0px"
	 viewBox="0 0 380 380" style="enable-background:new 0 0 380 380;" xml:space="preserve">
<g id="XMLID_1133_">
	<path id="XMLID_1134_" style="fill:#FFAD41;" d="M315.603,130H190H64.396C28.831,130,0,158.747,0,194.314V210
		c0,22.091,17.908,40,39.999,40H190h150c22.091,0,40-17.909,40-40v-15.686C380,158.747,351.169,130,315.603,130z"/>
	<path id="XMLID_1135_" style="fill:#FF9811;" d="M190,130H64.396C28.831,130,0,158.747,0,194.314V210c0,22.091,17.908,40,39.999,40
		H190V130z"/>
	<path id="XMLID_1136_" style="fill:#BD720D;" d="M85,130v35c0,8.284,6.716,15,15,15s15-6.716,15-15v-35H85z"/>
	<path id="XMLID_1137_" style="fill:#FF9811;" d="M175,130v35c0,8.284,6.716,15,15,15s15-6.716,15-15v-35H175z"/>
	<path id="XMLID_1138_" style="fill:#FF9811;" d="M265,130v35c0,8.284,6.716,15,15,15s15-6.716,15-15v-35H265z"/>
	<path id="XMLID_1139_" style="fill:#FF9811;" d="M175,130v35c0,8.284,6.716,15,15,15s15-6.716,15-15v-35H175z"/>
	<path id="XMLID_1140_" style="fill:#BD720D;" d="M175,130v35c0,8.284,6.716,15,15,15c0-22.333,0-50,0-50H175z"/>
</g>
<g>
</g>
<g>
</g>
<g>
</g>
<g>
</g>
<g>
</g>
<g>
</g>
<g>
</g>
<g>
</g>
<g>
</g>
<g>
</g>
<g>
</g>
<g>
</g>
<g>
</g>
<g>
</g>
<g>
</g>
</svg>
