<?xml version="1.0" encoding="iso-8859-1"?>
<!-- Generator: Adobe Illustrator 19.0.0, SVG Export Plug-In . SVG Version: 6.00 Build 0)  -->
<svg version="1.1" id="Layer_1" xmlns="http://www.w3.org/2000/svg" xmlns:xlink="http://www.w3.org/1999/xlink" x="0px" y="0px"
	 viewBox="0 0 300 300" style="enable-background:new 0 0 300 300;" xml:space="preserve">
<g id="XMLID_892_">
	<path id="XMLID_893_" style="fill:#91DC5A;" d="M238.292,161.583c-35.567,17.784-55.474,36.416-66.304,59.652
		c2.924-34.693,10.15-64.327,28.012-76.235h-50h-50c17.861,11.908,25.088,41.542,28.012,76.235
		c-10.83-23.236-30.736-41.868-66.304-59.652l-13.416,26.833C101.081,214.811,110,238.179,110,295h80
		c0-56.821,8.919-80.189,61.708-106.583L238.292,161.583z"/>
	<path id="XMLID_894_" style="fill:#64C37D;" d="M150,145h-50c17.861,11.908,25.088,41.542,28.012,76.235
		c-10.83-23.236-30.736-41.868-66.304-59.652l-13.416,26.833C101.081,214.811,110,238.179,110,295h40V145z"/>
	<path id="XMLID_895_" style="fill:#C2FB3B;" d="M276.742,122.761C278.841,117.24,280,111.257,280,105c0-27.614-22.386-50-50-50
		c-1.931,0-3.832,0.121-5.706,0.333C212.507,25.844,183.696,5,150,5c-33.697,0-62.508,20.844-74.294,50.333
		C73.832,55.121,71.931,55,70,55c-27.614,0-50,22.386-50,50c0,6.257,1.159,12.24,3.258,17.761C9.283,131.627,0,147.225,0,165
		c0,27.614,22.386,50,50,50c18.949,0,35.436-10.544,43.917-26.083c11.731-6.403,20.603-17.373,24.252-30.516
		C127.926,162.638,138.685,165,150,165c11.314,0,22.074-2.362,31.831-6.6c3.649,13.144,12.52,24.114,24.252,30.517
		C214.564,204.456,231.051,215,250,215c27.614,0,50-22.386,50-50C300,147.225,290.717,131.627,276.742,122.761z"/>
	<path id="XMLID_896_" style="fill:#91DC5A;" d="M150,5c-33.697,0-62.508,20.844-74.294,50.333C73.832,55.121,71.931,55,70,55
		c-27.614,0-50,22.386-50,50c0,6.257,1.159,12.24,3.258,17.761C9.283,131.627,0,147.225,0,165c0,27.614,22.386,50,50,50
		c18.949,0,35.436-10.544,43.917-26.083c11.731-6.403,20.603-17.373,24.252-30.516C127.926,162.638,138.685,165,150,165
		C150,127.5,150,54,150,5z"/>
</g>
<g>
</g>
<g>
</g>
<g>
</g>
<g>
</g>
<g>
</g>
<g>
</g>
<g>
</g>
<g>
</g>
<g>
</g>
<g>
</g>
<g>
</g>
<g>
</g>
<g>
</g>
<g>
</g>
<g>
</g>
</svg>
