<?xml version="1.0" encoding="iso-8859-1"?>
<!-- Generator: Adobe Illustrator 19.0.0, SVG Export Plug-In . SVG Version: 6.00 Build 0)  -->
<svg version="1.1" id="Layer_1" xmlns="http://www.w3.org/2000/svg" xmlns:xlink="http://www.w3.org/1999/xlink" x="0px" y="0px"
	 viewBox="0 0 320 320" style="enable-background:new 0 0 320 320;" xml:space="preserve">
<g id="XMLID_1739_">
	<path id="XMLID_1740_" style="fill:#91DC5A;" d="M208.255,0.011C208.092,0.008,207.937,0,207.771,0
		c-23.698,0.09-23.766,17.366-47.591,17.366c-0.062,0-0.119-0.004-0.181-0.004s-0.118,0.004-0.181,0.004
		c-23.825,0-23.893-17.276-47.591-17.366c-0.165,0-0.321,0.008-0.484,0.011C99.709,0.174,90,9.969,90,22.043V110h140V22.043
		C230,9.969,220.291,0.174,208.255,0.011z"/>
	<path id="XMLID_1741_" style="fill:#64C37D;" d="M159.819,17.366c-23.825,0-23.893-17.276-47.591-17.366
		c-0.165,0-0.321,0.008-0.484,0.011C99.709,0.174,90,9.969,90,22.043V110h70C160,110,159.882,17.366,159.819,17.366z"/>
	<path id="XMLID_1742_" style="fill:#FF5023;" d="M115,110V40c0-8.284,6.716-15,15-15s15,6.716,15,15v5c0,8.284,6.716,15,15,15
		s15-6.716,15-15l0,0c0-8.284,6.716-15,15-15s15,6.716,15,15v5c0,8.284,0,60,0,60H115z"/>
	<path id="XMLID_1743_" style="fill:#BD3C1A;" d="M160,110h-45V40c0-8.284,6.716-15,15-15s15,6.716,15,15v5c0,8.284,6.716,15,15,15
		C160.506,60,160,110,160,110z"/>
	<rect id="XMLID_1744_" x="90" y="110" style="fill:#BD720D;" width="140" height="210"/>
	<path id="XMLID_21_" style="fill:#FF9811;" d="M90,70h0.644C145.518,70,190,114.482,190,169.355v51.289
		C190,275.518,145.518,320,90.644,320H90V70z"/>
	<path id="XMLID_20_" style="fill:#FFAD41;" d="M230,70h-0.645C174.482,70,130,114.482,130,169.355v51.289
		C130,275.518,174.482,320,229.355,320H230V70z"/>
	<circle id="XMLID_19_" style="fill:#FF9811;" cx="200" cy="270" r="10"/>
	<circle id="XMLID_18_" style="fill:#FF9811;" cx="170" cy="230" r="10"/>
	<circle id="XMLID_17_" style="fill:#FF9811;" cx="200" cy="110" r="10"/>
	<circle id="XMLID_16_" style="fill:#FF9811;" cx="170" cy="150" r="10"/>
	<circle id="XMLID_15_" style="fill:#FF9811;" cx="200" cy="190" r="10"/>
</g>
<g>
</g>
<g>
</g>
<g>
</g>
<g>
</g>
<g>
</g>
<g>
</g>
<g>
</g>
<g>
</g>
<g>
</g>
<g>
</g>
<g>
</g>
<g>
</g>
<g>
</g>
<g>
</g>
<g>
</g>
</svg>
