<?xml version="1.0" encoding="iso-8859-1"?>
<!-- Generator: Adobe Illustrator 19.0.0, SVG Export Plug-In . SVG Version: 6.00 Build 0)  -->
<svg version="1.1" id="Layer_1" xmlns="http://www.w3.org/2000/svg" xmlns:xlink="http://www.w3.org/1999/xlink" x="0px" y="0px"
	 viewBox="0 0 310 310" style="enable-background:new 0 0 310 310;" xml:space="preserve">
<g id="XMLID_1057_">
	<path id="XMLID_1058_" style="fill:#FFE98F;" d="M180,250v-50h-50v50c-16.568,0-30,13.432-30,30s13.432,30,30,30
		c10.438,0,19.626-5.333,25-13.42c5.374,8.087,14.563,13.42,25,13.42c16.568,0,30-13.432,30-30S196.568,250,180,250z"/>
	<path id="XMLID_1059_" style="fill:#FFDA44;" d="M155,200h-25v50c-16.568,0-30,13.432-30,30s13.432,30,30,30
		c10.438,0,19.626-5.333,25-13.42C155,260.5,155,200,155,200z"/>
	<path id="XMLID_1060_" style="fill:#FF9811;" d="M180,210c29.637-16.11,55-53.521,55-100c0-60.751-35.817-110-80-110
		S75,49.249,75,110c0,46.479,25.363,83.89,55,100H180z"/>
	<path id="XMLID_1061_" style="fill:#BD720D;" d="M155,210c0-42.333,0-139.667,0-210c-44.183,0-80,49.249-80,110
		c0,46.479,25.363,83.89,55,100H155z"/>
</g>
<g>
</g>
<g>
</g>
<g>
</g>
<g>
</g>
<g>
</g>
<g>
</g>
<g>
</g>
<g>
</g>
<g>
</g>
<g>
</g>
<g>
</g>
<g>
</g>
<g>
</g>
<g>
</g>
<g>
</g>
</svg>
