<?xml version="1.0" encoding="iso-8859-1"?>
<!-- Generator: Adobe Illustrator 19.0.0, SVG Export Plug-In . SVG Version: 6.00 Build 0)  -->
<svg version="1.1" id="Layer_1" xmlns="http://www.w3.org/2000/svg" xmlns:xlink="http://www.w3.org/1999/xlink" x="0px" y="0px"
	 viewBox="0 0 320 320" style="enable-background:new 0 0 320 320;" xml:space="preserve">
<g id="XMLID_1141_">
	<path id="XMLID_1142_" style="fill:#4B905E;" d="M161.146,109V46c0-8.822,7.178-16,16-16h9c8.284,0,15-6.716,15-15s-6.716-15-15-15
		h-9c-25.364,0-46,20.636-46,46v63H161.146z"/>
	<path id="XMLID_1143_" style="fill:#FF5023;" d="M206.273,297.194c-19.993-2.189-34.427-20.167-32.239-40.159
		c0,0,15.744-128.944,15.744-151.985c0-23.043-19.573-43.719-43.719-43.719c-24.144,0-43.718,20.036-43.718,43.719
		c0,23.682,7.65,122.594,11.512,160.301c3.18,31.038,21.571,54.649,54.065,54.649c20.184,0,38.23-9.127,50.261-23.47
		C214.372,297.381,210.367,297.641,206.273,297.194z"/>
	<path id="XMLID_1144_" style="fill:#BD3C1A;" d="M146.146,61.334c-0.029-0.001-0.058-0.003-0.087-0.003
		c-24.144,0-43.718,20.036-43.718,43.719c0,23.682,7.65,122.594,11.512,160.301c2.382,23.252,13.303,42.335,32.293,50.446V61.334z"
		/>
	<path id="XMLID_1145_" style="fill:#91DC5A;" d="M179.119,71.177c-9.951-9.951-24.144-11.396-33.06-11.153
		c-8.916-0.242-0.631,40.731,0,39.965c0.631,0.767,1.291,1.52,2.01,2.237c15.007,15.008,41.401,10.351,41.401,10.351
		S194.644,86.701,179.119,71.177z"/>
	<path id="XMLID_1146_" style="fill:#64C37D;" d="M146.059,60.023c-8.916-0.242-23.109,1.202-33.06,11.153
		c-15.526,15.524-10.351,41.399-10.351,41.399s26.394,4.657,41.401-10.351c0.718-0.718,1.379-1.471,2.01-2.237
		C146.059,86.214,146.059,74.036,146.059,60.023z"/>
</g>
<g>
</g>
<g>
</g>
<g>
</g>
<g>
</g>
<g>
</g>
<g>
</g>
<g>
</g>
<g>
</g>
<g>
</g>
<g>
</g>
<g>
</g>
<g>
</g>
<g>
</g>
<g>
</g>
<g>
</g>
</svg>
