<?xml version="1.0" encoding="iso-8859-1"?>
<!-- Generator: Adobe Illustrator 19.0.0, SVG Export Plug-In . SVG Version: 6.00 Build 0)  -->
<svg version="1.1" id="Layer_1" xmlns="http://www.w3.org/2000/svg" xmlns:xlink="http://www.w3.org/1999/xlink" x="0px" y="0px"
	 viewBox="0 0 280 280" style="enable-background:new 0 0 280 280;" xml:space="preserve">
<g id="XMLID_1242_">
	<rect id="XMLID_1243_" x="35" style="fill:#FF9811;" width="210" height="140"/>
	<rect id="XMLID_1244_" x="35" y="70" style="fill:#402604;" width="70" height="70"/>
	<rect id="XMLID_1245_" x="105" y="70" style="fill:#BD720D;" width="70" height="70"/>
	<rect id="XMLID_25_" x="175" style="fill:#BD720D;" width="70" height="70"/>
	<rect id="XMLID_24_" x="105" style="fill:#804C09;" width="70" height="70"/>
	<rect id="XMLID_23_" x="105.001" y="60" style="fill:#804C09;" width="35" height="80"/>
	<polygon id="XMLID_1246_" style="fill:#FF5023;" points="245,280 35,280 35,180 50,150 245,150 	"/>
	<polygon id="XMLID_1247_" style="fill:#BD3C1A;" points="140,280 35,280 35,180 50,150 140,150 	"/>
	<polygon id="XMLID_1248_" style="fill:#FFE98F;" points="35,120 35,180 245,150 245,120 	"/>
	<polygon id="XMLID_1249_" style="fill:#FFDA44;" points="139.917,120 35,120 35,180 139.917,165.012 	"/>
	<rect id="XMLID_18_" x="105.001" style="fill:#402604;" width="35" height="70"/>
	<g id="XMLID_1250_">
		<ellipse id="XMLID_1251_" style="fill:#FFFFFF;" cx="140" cy="220" rx="40" ry="20"/>
		<path id="XMLID_1252_" style="fill:#FFE98F;" d="M140,240c-22.092,0-40-8.954-40-20s17.908-20,40-20"/>
	</g>
</g>
<g>
</g>
<g>
</g>
<g>
</g>
<g>
</g>
<g>
</g>
<g>
</g>
<g>
</g>
<g>
</g>
<g>
</g>
<g>
</g>
<g>
</g>
<g>
</g>
<g>
</g>
<g>
</g>
<g>
</g>
</svg>
