<?xml version="1.0" encoding="iso-8859-1"?>
<!-- Generator: Adobe Illustrator 19.0.0, SVG Export Plug-In . SVG Version: 6.00 Build 0)  -->
<svg version="1.1" id="Layer_1" xmlns="http://www.w3.org/2000/svg" xmlns:xlink="http://www.w3.org/1999/xlink" x="0px" y="0px"
	 viewBox="0 0 351.998 351.998" style="enable-background:new 0 0 351.998 351.998;" xml:space="preserve">
<g id="XMLID_1675_">
	<path id="XMLID_1676_" style="fill:#BD3C1A;" d="M300,159.655c0.919-0.622,1.913-1.163,2.991-1.583l28.3-11.032
		c7.815-3.046,16.62,0.819,19.666,8.635c3.046,7.814-0.819,16.619-8.634,19.665l-1.691,0.659l1.691,0.659
		c7.815,3.046,11.681,11.851,8.634,19.665c-3.046,7.815-11.852,11.681-19.666,8.635l-28.3-11.032
		c-1.078-0.42-2.071-0.961-2.991-1.583L300,159.655L300,159.655z"/>
	<path id="XMLID_1677_" style="fill:#FF5023;" d="M260,115.999H50l-50,120h260c33.137,0,60-26.863,60-60
		S293.137,115.999,260,115.999z"/>
	<polygon id="XMLID_1678_" style="fill:#BD3C1A;" points="50,115.999 0,235.999 160,235.999 160,115.999 	"/>
	<polygon id="XMLID_1679_" style="fill:#802812;" points="80,115.999 50,115.999 0,235.999 30,235.999 	"/>
	<circle id="XMLID_1680_" style="fill:#BD3C1A;" cx="265" cy="160.999" r="15"/>
	<circle id="XMLID_1681_" style="fill:#BD3C1A;" cx="200" cy="195.999" r="10"/>
	<circle id="XMLID_1682_" style="fill:#802812;" cx="110" cy="165.999" r="10"/>
</g>
<g>
</g>
<g>
</g>
<g>
</g>
<g>
</g>
<g>
</g>
<g>
</g>
<g>
</g>
<g>
</g>
<g>
</g>
<g>
</g>
<g>
</g>
<g>
</g>
<g>
</g>
<g>
</g>
<g>
</g>
</svg>
