<?xml version="1.0" encoding="iso-8859-1"?>
<!-- Generator: Adobe Illustrator 19.0.0, SVG Export Plug-In . SVG Version: 6.00 Build 0)  -->
<svg version="1.1" id="Layer_1" xmlns="http://www.w3.org/2000/svg" xmlns:xlink="http://www.w3.org/1999/xlink" x="0px" y="0px"
	 viewBox="0 0 352 352" style="enable-background:new 0 0 352 352;" xml:space="preserve">
<g id="XMLID_1875_">
	<g id="XMLID_1876_">
		<rect id="XMLID_1877_" x="156" y="152" style="fill:#FFF6D2;" width="40" height="200"/>
		<rect id="XMLID_1878_" x="156" y="152" style="fill:#FFE98F;" width="20" height="200"/>
	</g>
	<path id="XMLID_1879_" style="fill:#FF967B;" d="M253.654,166.05C263.717,162.815,271,153.384,271,142.248
		c0-13.807-11.193-25-25-25c3.139-4.179,5-9.371,5-15c0-13.807-11.193-25-25-25h-10.988c0.602-4.092,0.988-8.467,0.988-12.96
		C216,0,165.488,0,165.488,0c9.153,27.461-0.866,47.125-22.78,59.601c-19.897,11.329-40.538,19.861-41.654,41.079
		c-0.032,0.52-0.054,1.041-0.054,1.568c0,0.035,0.004,0.069,0.004,0.104c0,0.05-0.004,0.097-0.004,0.146
		c0,0.062,0.015,0.118,0.018,0.178c0.093,5.463,1.924,10.5,4.982,14.572c-13.807,0-25,11.193-25,25
		c0,11.136,7.283,20.567,17.346,23.802C84.377,177.227,76,191.477,76,207c0,35.898,44.771,65,100,65s100-29.102,100-65
		C276,191.477,267.623,177.227,253.654,166.05z"/>
	<path id="XMLID_1880_" style="fill:#FF734F;" d="M165.488,0c9.153,27.461-0.866,47.125-22.78,59.601
		c-19.897,11.329-40.538,19.861-41.654,41.079c-0.032,0.52-0.054,1.041-0.054,1.568c0,0.035,0.004,0.069,0.004,0.104
		c0,0.05-0.004,0.097-0.004,0.146c0,0.062,0.015,0.118,0.018,0.178c0.093,5.463,1.924,10.5,4.982,14.572c-13.807,0-25,11.193-25,25
		c0,11.136,7.283,20.567,17.346,23.802C84.377,177.227,76,191.477,76,207c0,35.898,44.771,65,100,65V1.637
		C169.85,0.01,165.488,0,165.488,0z"/>
</g>
<g>
</g>
<g>
</g>
<g>
</g>
<g>
</g>
<g>
</g>
<g>
</g>
<g>
</g>
<g>
</g>
<g>
</g>
<g>
</g>
<g>
</g>
<g>
</g>
<g>
</g>
<g>
</g>
<g>
</g>
</svg>
