<?xml version="1.0" encoding="iso-8859-1"?>
<!-- Generator: Adobe Illustrator 19.0.0, SVG Export Plug-In . SVG Version: 6.00 Build 0)  -->
<svg version="1.1" id="Layer_1" xmlns="http://www.w3.org/2000/svg" xmlns:xlink="http://www.w3.org/1999/xlink" x="0px" y="0px"
	 viewBox="0 0 360 360" style="enable-background:new 0 0 360 360;" xml:space="preserve">
<g id="XMLID_1163_">
	<path id="XMLID_1164_" style="fill:#FF5023;" d="M86.75,136.141C111.455,130.74,130,108.825,130,82.5c-20,0-55,0-55,0s0-15,0-55
		c-30.376,0-55,24.624-55,55c0,17.398,7.394,28.953,20.697,42.977C54,139.5,116.36,201.14,116.36,201.14l12.678-22.678
		C129.038,178.462,88.023,137.414,86.75,136.141z"/>
	<path id="XMLID_1165_" style="fill:#FF5023;" d="M25,227.5H0c0-24.814,20.186-45,45-45h65v25H45C33.972,207.5,25,216.472,25,227.5z
		"/>
	<path id="XMLID_1166_" style="fill:#FF5023;" d="M25,287.5H0c0-24.814,20.186-45,45-45h65v25H45C33.972,267.5,25,276.472,25,287.5z
		"/>
	<path id="XMLID_1167_" style="fill:#FF5023;" d="M65,332.5H40c0-24.814,20.186-45,45-45h95v25H85C73.972,312.5,65,321.472,65,332.5
		z"/>
	<ellipse id="XMLID_1168_" style="fill:#FF5023;" cx="180" cy="227.5" rx="120" ry="90"/>
	<path id="XMLID_1169_" style="fill:#BD3C1A;" d="M180,317.5c-66.274,0-120-40.295-120-90s53.726-90,120-90"/>
	<g id="XMLID_1170_">
		<circle id="XMLID_1171_" cx="135" cy="142.5" r="15"/>
	</g>
	<g id="XMLID_1172_">
		<circle id="XMLID_1173_" cx="225" cy="142.5" r="15"/>
	</g>
	<g id="XMLID_1174_">
		<path id="XMLID_1175_" style="fill:#FF5023;" d="M335,227.5h25c0-24.814-20.187-45-45-45h-65v25h65
			C326.028,207.5,335,216.472,335,227.5z"/>
	</g>
	<g id="XMLID_1176_">
		<path id="XMLID_1177_" style="fill:#FF5023;" d="M335,287.5h25c0-24.814-20.187-45-45-45h-65v25h65
			C326.028,267.5,335,276.472,335,287.5z"/>
	</g>
	<g id="XMLID_1178_">
		<path id="XMLID_1179_" style="fill:#FF5023;" d="M295,332.5h25c0-24.814-20.187-45-45-45h-95v25h95
			C286.028,312.5,295,321.472,295,332.5z"/>
	</g>
	<path id="XMLID_1180_" style="fill:#FF5023;" d="M273.25,136.141C248.545,130.74,230,108.825,230,82.5c20,0,55,0,55,0s0-15,0-55
		c30.375,0,55,24.624,55,55c0,17.398-7.395,28.953-20.697,42.977C306,139.5,243.64,201.14,243.64,201.14l-12.678-22.678
		C230.962,178.462,271.977,137.414,273.25,136.141z"/>
</g>
<g>
</g>
<g>
</g>
<g>
</g>
<g>
</g>
<g>
</g>
<g>
</g>
<g>
</g>
<g>
</g>
<g>
</g>
<g>
</g>
<g>
</g>
<g>
</g>
<g>
</g>
<g>
</g>
<g>
</g>
</svg>
