<?xml version="1.0" encoding="iso-8859-1"?>
<!-- Generator: Adobe Illustrator 19.0.0, SVG Export Plug-In . SVG Version: 6.00 Build 0)  -->
<svg version="1.1" id="Layer_1" xmlns="http://www.w3.org/2000/svg" xmlns:xlink="http://www.w3.org/1999/xlink" x="0px" y="0px"
	 viewBox="0 0 380 380" style="enable-background:new 0 0 380 380;" xml:space="preserve">
<g id="XMLID_1404_">
	<path id="XMLID_1405_" style="fill:#FFAD41;" d="M285.42,110.006C272.68,69.432,234.777,40,190,40
		c-44.778,0-82.679,29.432-95.42,70.006C42.307,110.232,0,152.674,0,205c0,16.467,4.191,31.953,11.563,45.453
		c0,0,32.442,66.151,33.602,68.556c7.408,15.351,24.709,24.06,41.989,19.994c19.986-4.703,32.375-24.717,27.672-44.703l-14.9-43.829
		C123.291,262.564,155.031,270,190,270s66.709-7.437,90.074-19.529l-14.9,43.829c-4.703,19.986,7.687,40,27.672,44.703
		c17.281,4.066,34.582-4.644,41.99-19.994c1.159-2.404,33.602-68.556,33.602-68.556C375.809,236.953,380,221.467,380,205
		C380,152.674,337.693,110.232,285.42,110.006z"/>
	<path id="XMLID_1406_" style="fill:#FF9811;" d="M190,40c-44.778,0-82.679,29.432-95.42,70.006C42.307,110.232,0,152.674,0,205
		c0,16.467,4.191,31.953,11.563,45.453c0,0,32.442,66.151,33.602,68.556c7.408,15.351,24.709,24.06,41.989,19.994
		c19.986-4.703,32.375-24.717,27.672-44.703l-14.9-43.829C123.291,262.564,155.031,270,190,270C190,207.668,190,107.668,190,40z"/>
	<path id="XMLID_1407_" style="fill:#FF9811;" d="M190,140c8.284,0,15-6.716,15-15V41.137C200.105,40.4,195.101,40,190,40
		c-5.1,0-10.105,0.4-15,1.137V125C175,133.284,181.716,140,190,140z"/>
	<path id="XMLID_1408_" style="fill:#BD720D;" d="M190,40c-5.1,0-10.105,0.4-15,1.137V125c0,8.284,6.716,15,15,15
		C190,108.334,190,73.668,190,40z"/>
	<path id="XMLID_1409_" style="fill:#FF9811;" d="M245,110c8.284,0,15-6.716,15-15V68.614c-8.627-8.46-18.771-15.374-30-20.28V95
		C230,103.284,236.716,110,245,110z"/>
	<path id="XMLID_1410_" style="fill:#BD720D;" d="M135,110c8.284,0,15-6.716,15-15V48.334c-11.229,4.906-21.374,11.82-30,20.28V95
		C120,103.284,126.716,110,135,110z"/>
</g>
<g>
</g>
<g>
</g>
<g>
</g>
<g>
</g>
<g>
</g>
<g>
</g>
<g>
</g>
<g>
</g>
<g>
</g>
<g>
</g>
<g>
</g>
<g>
</g>
<g>
</g>
<g>
</g>
<g>
</g>
</svg>
