<?xml version="1.0" encoding="iso-8859-1"?>
<!-- Generator: Adobe Illustrator 19.0.0, SVG Export Plug-In . SVG Version: 6.00 Build 0)  -->
<svg version="1.1" id="Layer_1" xmlns="http://www.w3.org/2000/svg" xmlns:xlink="http://www.w3.org/1999/xlink" x="0px" y="0px"
	 viewBox="0 0 297.248 297.248" style="enable-background:new 0 0 297.248 297.248;" xml:space="preserve">
<g id="XMLID_1338_">
	<polygon id="XMLID_1339_" style="fill:#FF5023;" points="48.624,207.248 68.624,297.248 228.624,297.248 248.624,207.248 
		148.624,197.248 	"/>
	<polygon id="XMLID_1340_" style="fill:#BD3C1A;" points="148.624,207.248 48.624,207.248 68.624,297.248 148.624,297.248 	"/>
	<g id="XMLID_1341_">
		<polygon id="XMLID_1342_" style="fill:#FF5023;" points="108.624,207.248 118.624,297.248 178.624,297.248 188.624,207.248 		"/>
		<polygon id="XMLID_1343_" style="fill:#FF734F;" points="148.624,207.248 148.624,297.248 178.624,297.248 188.624,207.248 		"/>
	</g>
	<path id="XMLID_1344_" style="fill:#FFE98F;" d="M273.624,182.248c0,13.807-11.193,25-25,25h-200c-13.807,0-25-11.193-25-25l0,0
		c0-13.807,11.193-25,25-25h200C262.431,157.248,273.624,168.441,273.624,182.248L273.624,182.248z"/>
	<path id="XMLID_1345_" style="fill:#FFDA44;" d="M148.624,157.248h-100c-13.807,0-25,11.193-25,25s11.193,25,25,25h100V157.248z"/>
	<path id="XMLID_1346_" style="fill:#804C09;" d="M228.624,117.248h-10c3.139-4.179,5-9.371,5-15c0-13.807-11.193-25-25-25h-10.988
		c0.602-4.092,0.988-8.467,0.988-12.96C188.624,0,138.112,0,138.112,0c9.154,27.461-0.866,47.125-22.78,59.6
		c-19.898,11.33-40.538,19.862-41.654,41.08c-0.032,0.52-0.054,1.041-0.054,1.568c0,0.035,0.004,0.069,0.004,0.104
		c-0.001,0.05-0.004,0.097-0.004,0.146c0,0.062,0.015,0.118,0.018,0.178c0.093,5.463,1.924,10.5,4.982,14.572h-10
		c-13.807,0-25,11.193-25,25s11.193,25,25,25h160c13.807,0,25-11.193,25-25S242.431,117.248,228.624,117.248z"/>
	<path id="XMLID_1347_" style="fill:#402604;" d="M148.624,1.637C142.474,0.01,138.112,0,138.112,0
		c9.154,27.461-0.866,47.125-22.78,59.6c-19.898,11.33-40.538,19.862-41.654,41.08c-0.032,0.52-0.054,1.041-0.054,1.568
		c0,0.035,0.004,0.069,0.004,0.104c-0.001,0.05-0.004,0.097-0.004,0.146c0,0.062,0.015,0.118,0.018,0.178
		c0.093,5.463,1.924,10.5,4.982,14.572h-10c-13.807,0-25,11.193-25,25s11.193,25,25,25h80V1.637z"/>
</g>
<g>
</g>
<g>
</g>
<g>
</g>
<g>
</g>
<g>
</g>
<g>
</g>
<g>
</g>
<g>
</g>
<g>
</g>
<g>
</g>
<g>
</g>
<g>
</g>
<g>
</g>
<g>
</g>
<g>
</g>
</svg>
