<?xml version="1.0" encoding="iso-8859-1"?>
<!-- Generator: Adobe Illustrator 19.0.0, SVG Export Plug-In . SVG Version: 6.00 Build 0)  -->
<svg version="1.1" id="Layer_1" xmlns="http://www.w3.org/2000/svg" xmlns:xlink="http://www.w3.org/1999/xlink" x="0px" y="0px"
	 viewBox="0 0 280 280" style="enable-background:new 0 0 280 280;" xml:space="preserve">
<g id="XMLID_960_">
	<path id="XMLID_961_" style="fill:#802812;" d="M240,120c0,0-44.772,30-100,30S40,120,40,120c0-55.229,44.771-70,100-70
		S240,64.771,240,120z"/>
	<polygon id="XMLID_962_" style="fill:#FFDA44;" points="180,40 180,20 140,20 140,0 100,0 100,40 60,40 60,220 100,220 100,180 
		140,180 140,200 180,200 180,220 220,220 220,40 	"/>
	<rect id="XMLID_963_" x="60" y="40" style="fill:#FFAD41;" width="40" height="180"/>
	<rect id="XMLID_964_" x="100" style="fill:#FFDA44;" width="40" height="180"/>
	<rect id="XMLID_965_" x="140" y="20" style="fill:#FFE98F;" width="40" height="180"/>
	<rect id="XMLID_966_" x="180" y="40" style="fill:#FFDA44;" width="40" height="180"/>
	<g id="XMLID_967_">
		<path id="XMLID_968_" style="fill:#FF5023;" d="M203.255,120c-11.235,23.648-35.332,40-63.255,40s-52.02-16.352-63.255-40H40
			l20,160h160l20-160H203.255z"/>
		<path id="XMLID_969_" style="fill:#BD3C1A;" d="M140,160c-27.923,0-52.02-16.352-63.255-40H40l20,160h80
			C140,280,140,199.333,140,160z"/>
	</g>
	<ellipse id="XMLID_970_" style="fill:#FFFFFF;" cx="140" cy="220" rx="40" ry="20"/>
	<path id="XMLID_971_" style="fill:#FFE98F;" d="M140,240c-22.091,0-40-8.954-40-20s17.909-20,40-20"/>
</g>
<g>
</g>
<g>
</g>
<g>
</g>
<g>
</g>
<g>
</g>
<g>
</g>
<g>
</g>
<g>
</g>
<g>
</g>
<g>
</g>
<g>
</g>
<g>
</g>
<g>
</g>
<g>
</g>
<g>
</g>
</svg>
