<?xml version="1.0" encoding="iso-8859-1"?>
<!-- Generator: Adobe Illustrator 19.0.0, SVG Export Plug-In . SVG Version: 6.00 Build 0)  -->
<svg version="1.1" id="Layer_1" xmlns="http://www.w3.org/2000/svg" xmlns:xlink="http://www.w3.org/1999/xlink" x="0px" y="0px"
	 viewBox="0 0 302 302" style="enable-background:new 0 0 302 302;" xml:space="preserve">
<g id="XMLID_1314_">
	<path id="XMLID_1315_" style="fill:#FFF6D2;" d="M302,151c0,38.195-37.128,63.81-62.158,88.84C214.81,264.872,189.195,302,151,302
		s-63.81-37.128-88.842-62.16C37.128,214.81,0,189.195,0,151s37.128-63.811,62.158-88.842C87.19,37.127,112.805,0,151,0
		s63.81,37.127,88.842,62.158C264.872,87.189,302,112.805,302,151z"/>
	<path id="XMLID_1316_" style="fill:#FFE98F;" d="M151,0c-38.195,0-63.81,37.127-88.842,62.158C37.128,87.189,0,112.805,0,151
		s37.128,63.81,62.158,88.84C87.19,264.872,112.805,302,151,302C151,219.539,151,115.659,151,0z"/>
	<circle id="XMLID_1317_" style="fill:#FFAD41;" cx="151" cy="150" r="50"/>
	<path id="XMLID_1318_" style="fill:#FF9811;" d="M151,200c-27.615,0-50-22.387-50-50s22.385-50,50-50"/>
</g>
<g>
</g>
<g>
</g>
<g>
</g>
<g>
</g>
<g>
</g>
<g>
</g>
<g>
</g>
<g>
</g>
<g>
</g>
<g>
</g>
<g>
</g>
<g>
</g>
<g>
</g>
<g>
</g>
<g>
</g>
</svg>
