<?xml version="1.0" encoding="iso-8859-1"?>
<!-- Generator: Adobe Illustrator 19.0.0, SVG Export Plug-In . SVG Version: 6.00 Build 0)  -->
<svg version="1.1" id="Layer_1" xmlns="http://www.w3.org/2000/svg" xmlns:xlink="http://www.w3.org/1999/xlink" x="0px" y="0px"
	 viewBox="0 0 255 255" style="enable-background:new 0 0 255 255;" xml:space="preserve">
<g id="XMLID_1706_">
	<path id="XMLID_1707_" style="fill:#DEDDE0;" d="M247.5,175c0-44.434-39.944-79.95-69.938-109.937
		c-0.02-0.021-0.043-0.043-0.063-0.063c-0.048-0.048-0.088-0.087-0.135-0.134C158.014,45.514,142.557,29.832,152.5,0c0,0-25,0-25,20
		c0-20-25-20-25-20c9.943,29.832-5.514,45.514-24.865,64.866C77.588,64.913,77.548,64.952,77.5,65
		c-0.02,0.021-0.042,0.043-0.063,0.063C47.444,95.05,7.5,130.566,7.5,175c0,0.262,0.01,0.512,0.014,0.769
		c-0.003,0.257-0.014,0.513-0.014,0.77C7.5,219.871,42.627,255,85.962,255c15.259,0,29.489-4.37,41.538-11.906
		C139.549,250.63,153.779,255,169.038,255c43.335,0,78.462-35.129,78.462-78.461c0-0.258-0.011-0.514-0.014-0.77
		C247.49,175.512,247.5,175.262,247.5,175z"/>
	<path id="XMLID_1708_" style="fill:#CDCDD0;" d="M102.5,0c9.943,29.832-5.514,45.514-24.865,64.866
		C77.588,64.913,77.548,64.952,77.5,65c-0.02,0.021-0.042,0.043-0.063,0.063C47.444,95.05,7.5,130.566,7.5,175
		c0,0.262,0.01,0.512,0.014,0.769c-0.003,0.257-0.014,0.513-0.014,0.77C7.5,219.871,42.627,255,85.962,255
		c15.259,0,29.489-4.37,41.538-11.906c0-13.194,0-30.563,0-49.594c0-24.492,0-76.004,0-116.895c0-27.464,0-50.132,0-56.605
		C127.5,0,102.5,0,102.5,0z"/>
	<path id="XMLID_1709_" style="fill:#EEEEEF;" d="M151.611,30.808c-0.586-1.816-0.781-2.66-1.003-3.416
		C148.649,19.525,148.943,10.671,152.5,0c0,0-25,0-25,20c0-20-25-20-25-20c3.557,10.671,3.851,19.525,1.892,27.392
		c-0.222,0.756-0.417,1.6-1.003,3.416C99.032,50.59,77.5,151.07,77.5,205c0,22.766,12.896,39.763,31.182,46.641
		c5.811,2.186,12.159,3.359,18.818,3.359s13.008-1.174,18.818-3.359C164.604,244.763,177.5,227.766,177.5,205
		C177.5,151.07,155.968,50.59,151.611,30.808z"/>
	<path id="XMLID_1710_" style="fill:#DEDDE0;" d="M103.389,30.808c0.586-1.816,0.781-2.66,1.003-3.416
		c1.959-7.866,1.665-16.721-1.892-27.392c0,0,25,0,25,20c0,5.535,0,233.584,0,235c-6.659,0-13.008-1.174-18.818-3.359
		C90.396,244.763,77.5,227.766,77.5,205C77.5,151.07,99.032,50.59,103.389,30.808z"/>
</g>
<g>
</g>
<g>
</g>
<g>
</g>
<g>
</g>
<g>
</g>
<g>
</g>
<g>
</g>
<g>
</g>
<g>
</g>
<g>
</g>
<g>
</g>
<g>
</g>
<g>
</g>
<g>
</g>
<g>
</g>
</svg>
