<?xml version="1.0" encoding="iso-8859-1"?>
<!-- Generator: Adobe Illustrator 19.0.0, SVG Export Plug-In . SVG Version: 6.00 Build 0)  -->
<svg version="1.1" id="Layer_1" xmlns="http://www.w3.org/2000/svg" xmlns:xlink="http://www.w3.org/1999/xlink" x="0px" y="0px"
	 viewBox="0 0 300 300" style="enable-background:new 0 0 300 300;" xml:space="preserve">
<g id="XMLID_1683_">
	<path id="XMLID_1684_" style="fill:#FFAD41;" d="M245,100h-5l-10.001,10l-10-10h-38.395C195.749,90.048,205,73.609,205,55
		c0-30.375-24.624-55-55-55S95,24.625,95,55c0,18.609,9.251,35.048,23.395,45H80l-10.001,10l-10-10H55c-13.807,0-25,11.193-25,25
		s11.193,25,25,25h5l10-10l10,10h20v43.469L71.719,265.9c-5.021,12.862,1.333,27.359,14.195,32.381
		c12.862,5.021,27.359-1.334,32.381-14.195l25.12-64.335h13.171l14.526,37.202L177,265.25l1.44,10.474l3.265,8.362
		c5.022,12.861,19.519,19.217,32.381,14.195s19.217-19.519,14.195-32.381l-3.28-8.399l-6.126-8.251l-1.16-10.411L200,193.469V150
		h19.999l10-10L240,150h5c13.807,0,25-11.193,25-25S258.807,100,245,100z"/>
	<path id="XMLID_1686_" style="fill:#FF9811;" d="M150,0c-30.376,0-55,24.625-55,55c0,18.609,9.251,35.048,23.395,45H79.999l-10,10
		l-10-10H55c-13.807,0-25,11.193-25,25s11.193,25,25,25h4.999L70,140l10,10h20v43.469l-17.749,45.459l-1.126,10.447l-6.169,8.234
		l-3.238,8.291c-5.021,12.862,1.333,27.359,14.195,32.381c12.862,5.021,27.359-1.334,32.381-14.195l3.249-8.32l1.332-9.766
		l5.971-8.938l14.568-37.311H150C150,219.751,150,50,150,0z"/>
	<circle id="XMLID_1687_" style="fill:#BD3C1A;" cx="130" cy="45" r="10"/>
	<circle id="XMLID_1688_" style="fill:#FF5023;" cx="170" cy="45" r="10"/>
	<rect id="XMLID_1689_" x="220" y="100" style="fill:#FFF6D2;" width="20" height="50"/>
	<rect id="XMLID_1690_" x="60" y="100" style="fill:#FFE98F;" width="20" height="50"/>
	<g id="XMLID_1696_">
		<g id="XMLID_1692_">
			<path id="XMLID_1693_" style="fill:#FFF6D2;" d="M170,70c0,11.046-8.955,20-20,20s-20-8.954-20-20H170z"/>
		</g>
		<g id="XMLID_1694_">
			<path id="XMLID_1695_" style="fill:#FFFFFF;" d="M170,70c0,11.046-8.955,20-20,20s-20-8.954-20-20H170z"/>
		</g>
	</g>
	<path id="XMLID_1698_" style="fill:#FFE98F;" d="M150,70c0,11.046,0,14.334,0,20c-11.045,0-20-8.954-20-20H150z"/>
	<g id="XMLID_1699_">
		
			<rect id="XMLID_1700_" x="76.901" y="247.339" transform="matrix(0.9315 0.3637 -0.3637 0.9315 100.5746 -19.4375)" style="fill:#FFE98F;" width="49.999" height="20.001"/>
		
			<rect id="XMLID_1701_" x="173.104" y="247.336" transform="matrix(0.9315 -0.3637 0.3637 0.9315 -80.0275 89.6752)" style="fill:#FFF6D2;" width="49.999" height="20.001"/>
	</g>
	<circle id="XMLID_1702_" style="fill:#FF5023;" cx="150" cy="140" r="10"/>
	<path id="XMLID_1703_" style="fill:#BD3C1A;" d="M150,130c-5.523,0-10,4.477-10,10s4.477,10,10,10"/>
	<circle id="XMLID_1704_" style="fill:#FF5023;" cx="150" cy="180" r="10"/>
	<path id="XMLID_1705_" style="fill:#BD3C1A;" d="M150,170c-5.523,0-10,4.477-10,10s4.477,10,10,10"/>
</g>
<g>
</g>
<g>
</g>
<g>
</g>
<g>
</g>
<g>
</g>
<g>
</g>
<g>
</g>
<g>
</g>
<g>
</g>
<g>
</g>
<g>
</g>
<g>
</g>
<g>
</g>
<g>
</g>
<g>
</g>
</svg>
