<?xml version="1.0" encoding="iso-8859-1"?>
<!-- Generator: Adobe Illustrator 19.0.0, SVG Export Plug-In . SVG Version: 6.00 Build 0)  -->
<svg version="1.1" id="Layer_1" xmlns="http://www.w3.org/2000/svg" xmlns:xlink="http://www.w3.org/1999/xlink" x="0px" y="0px"
	 viewBox="0 0 280 280" style="enable-background:new 0 0 280 280;" xml:space="preserve">
<g id="XMLID_1416_">
	<path id="XMLID_1417_" style="fill:#EEEEEF;" d="M216,60h-1V30H65v30h-1c-18.777,0-34,15.223-34,34v46h220V94
		C250,75.223,234.777,60,216,60z"/>
	<path id="XMLID_1418_" style="fill:#DEDDE0;" d="M140,30H65v30h-1c-18.777,0-34,15.223-34,34v46h110V30z"/>
	<path id="XMLID_1419_" style="fill:#FFAD41;" d="M140,120H30v126c0,18.777,15.223,34,34,34h152c18.777,0,34-15.223,34-34V120H140z"
		/>
	<path id="XMLID_1420_" style="fill:#FF9811;" d="M140,120H30v126c0,18.777,15.223,34,34,34h76V120z"/>
	<polygon id="XMLID_1421_" style="fill:#FFFFFF;" points="118.35,237.5 96.698,200 118.35,162.5 161.65,162.5 183.302,200 
		161.65,237.5 	"/>
	<polygon id="XMLID_1422_" style="fill:#FFE98F;" points="118.35,237.5 96.698,200 118.35,162.5 140,162.5 140,237.5 	"/>
	<path id="XMLID_1423_" style="fill:#BD720D;" d="M220,0h-35l-45,40h80c11.046,0,20-8.954,20-20S231.046,0,220,0z"/>
	<path id="XMLID_1424_" style="fill:#804C09;" d="M95,0H60C48.954,0,40,8.954,40,20s8.954,20,20,20h80L95,0z"/>
	<path id="XMLID_1425_" style="fill:#FFAD41;" d="M95,0v85c0,8.284,6.716,15,15,15s15-6.716,15-15V55c0-8.284,6.716-15,15-15
		s15,6.716,15,15v15c0,8.284,6.716,15,15,15s15-6.716,15-15v-5c0-8.284,0-65,0-65H95z"/>
	<path id="XMLID_1426_" style="fill:#FF9811;" d="M140,0H95v85c0,8.284,6.716,15,15,15s15-6.716,15-15V55c0-8.284,6.716-15,15-15
		C140.506,40,140,0,140,0z"/>
</g>
<g>
</g>
<g>
</g>
<g>
</g>
<g>
</g>
<g>
</g>
<g>
</g>
<g>
</g>
<g>
</g>
<g>
</g>
<g>
</g>
<g>
</g>
<g>
</g>
<g>
</g>
<g>
</g>
<g>
</g>
</svg>
