<?xml version="1.0" encoding="iso-8859-1"?>
<!-- Generator: Adobe Illustrator 19.0.0, SVG Export Plug-In . SVG Version: 6.00 Build 0)  -->
<svg version="1.1" id="Layer_1" xmlns="http://www.w3.org/2000/svg" xmlns:xlink="http://www.w3.org/1999/xlink" x="0px" y="0px"
	 viewBox="0 0 405.593 405.593" style="enable-background:new 0 0 405.593 405.593;" xml:space="preserve">
<g id="XMLID_1712_">
	<g id="XMLID_1713_">
		<path id="XMLID_1714_" style="fill:#FFAD41;" d="M385.593,272.796c0,11.045-8.954,20-20,20H40c-11.046,0-20-8.955-20-20l0,0
			c0-11.045,8.954-20,20-20h325.593C376.639,252.796,385.593,261.751,385.593,272.796L385.593,272.796z"/>
		<path id="XMLID_1715_" style="fill:#FF9811;" d="M202.796,252.796H40c-11.046,0-20,8.955-20,20s8.954,20,20,20h162.796V252.796z"
			/>
	</g>
	<path id="XMLID_1716_" style="fill:#FFAD41;" d="M375.593,212.796v-17.312c0-45.728-37.068-82.688-82.797-82.688h-180
		C67.068,112.796,30,149.757,30,195.485v17.312L375.593,212.796L375.593,212.796z"/>
	<path id="XMLID_1717_" style="fill:#FF9811;" d="M202.796,112.796h-90C67.068,112.796,30,149.757,30,195.485v17.312h172.796
		V112.796z"/>
	<path id="XMLID_1718_" style="fill:#FF5023;" d="M365.593,182.796h-12.798l-149.999,10l-150-10H40c-22.091,0-40,17.909-40,40
		s17.909,40,40,40h325.593c22.091,0,40-17.909,40-40S387.684,182.796,365.593,182.796z"/>
	<path id="XMLID_1719_" style="fill:#BD3C1A;" d="M202.796,192.796l-150.001-10H40c-22.091,0-40,17.909-40,40s17.909,40,40,40
		h162.796V192.796z"/>
	<g id="XMLID_1720_">
		<path id="XMLID_1721_" style="fill:#FFE98F;" d="M352.796,182.796v30c0,11.046-8.954,20-20,20
			c-21.667,0-21.667-15.758-43.336-15.758c-21.668,0-21.668,15.758-43.335,15.758c-21.665,0-21.665-15.758-43.328-15.758
			c-21.665,0-21.665,15.758-43.33,15.758c-21.667,0-21.667-15.758-43.335-15.758c-21.669,0-21.669,15.758-43.336,15.758
			c-11.046,0-20-8.954-20-20v-30H352.796z"/>
		<path id="XMLID_1722_" style="fill:#FFDA44;" d="M202.797,217.039c-21.665,0-21.665,15.758-43.33,15.758
			c-21.667,0-21.667-15.758-43.335-15.758c-21.669,0-21.669,15.758-43.336,15.758c-11.046,0-20-8.954-20-20v-30h150
			C202.796,182.796,202.797,202.463,202.797,217.039z"/>
	</g>
</g>
<g>
</g>
<g>
</g>
<g>
</g>
<g>
</g>
<g>
</g>
<g>
</g>
<g>
</g>
<g>
</g>
<g>
</g>
<g>
</g>
<g>
</g>
<g>
</g>
<g>
</g>
<g>
</g>
<g>
</g>
</svg>
