<?xml version="1.0" encoding="iso-8859-1"?>
<!-- Generator: Adobe Illustrator 19.0.0, SVG Export Plug-In . SVG Version: 6.00 Build 0)  -->
<svg version="1.1" id="Layer_1" xmlns="http://www.w3.org/2000/svg" xmlns:xlink="http://www.w3.org/1999/xlink" x="0px" y="0px"
	 viewBox="0 0 360 360" style="enable-background:new 0 0 360 360;" xml:space="preserve">
<g id="XMLID_1865_">
	<g id="XMLID_1866_">
		<path id="XMLID_1867_" style="fill:#BD3C1A;" d="M150,268.667V91.605C141.222,84.355,129.967,80,117.692,80
			c-15.833,0-29.645,6.783-38.358,18.604c-16.564,22.474-40.965,91.972-46.503,111.98C30.986,217.254,30,224.279,30,231.539
			c0,13.433,3.382,26.074,9.331,37.128H150z"/>
		<path id="XMLID_1868_" style="fill:#FF5023;" d="M320.669,268.667c5.949-11.054,9.331-23.695,9.331-37.128
			c0-7.26-0.986-14.285-2.831-20.955c-5.538-20.009-29.938-89.507-46.503-111.98C271.952,86.783,258.141,80,242.308,80
			c-12.274,0-23.529,4.355-32.308,11.605v177.061L320.669,268.667L320.669,268.667z"/>
		<path id="XMLID_1869_" style="fill:#FF734F;" d="M280.669,268.667c5.949-11.054,9.331-23.695,9.331-37.128
			c0-7.26-0.986-14.285-2.831-20.955c-5.538-20.009-19.938-89.507-36.503-111.98C241.952,86.783,228.141,80,212.308,80
			c-12.274,0-23.529,4.355-32.308,11.605C171.222,84.355,159.967,80,147.692,80c-15.833,0-29.645,6.783-38.358,18.604
			c-16.564,22.474-30.965,91.972-36.503,111.98C70.986,217.254,70,224.279,70,231.539c0,13.433,3.382,26.074,9.331,37.128H280.669z"
			/>
		<path id="XMLID_1870_" style="fill:#FF5023;" d="M180,268.667V91.605C171.222,84.355,159.967,80,147.692,80
			c-15.833,0-29.645,6.783-38.358,18.604c-16.564,22.474-30.965,91.972-36.503,111.98C70.986,217.254,70,224.279,70,231.539
			c0,13.433,3.382,26.074,9.331,37.128H180z"/>
		<path id="XMLID_1871_" style="fill:#FF5023;" d="M229.236,268.667c0.492-2.816,0.764-5.709,0.764-8.667l-10-140
			c0-22.092-17.908-40-40-40s-40,17.908-40,40l-10,140c0,2.958,0.271,5.851,0.764,8.667H229.236z"/>
		<path id="XMLID_1872_" style="fill:#BD3C1A;" d="M180,268.667V80c-22.092,0-40,17.908-40,40l-10,140
			c0,2.958,0.271,5.851,0.764,8.667H180z"/>
	</g>
	<path id="XMLID_1873_" style="fill:#CDCDD0;" d="M360,265c0,8.284-6.716,15-15,15H15c-8.284,0-15-6.716-15-15l0,0
		c0-8.284,6.716-15,15-15h330C353.284,250,360,256.716,360,265L360,265z"/>
	<path id="XMLID_1874_" style="fill:#ACABB1;" d="M180,250H15c-8.284,0-15,6.716-15,15s6.716,15,15,15h165V250z"/>
</g>
<g>
</g>
<g>
</g>
<g>
</g>
<g>
</g>
<g>
</g>
<g>
</g>
<g>
</g>
<g>
</g>
<g>
</g>
<g>
</g>
<g>
</g>
<g>
</g>
<g>
</g>
<g>
</g>
<g>
</g>
</svg>
