<?xml version="1.0" encoding="iso-8859-1"?>
<!-- Generator: Adobe Illustrator 19.0.0, SVG Export Plug-In . SVG Version: 6.00 Build 0)  -->
<svg version="1.1" id="Layer_1" xmlns="http://www.w3.org/2000/svg" xmlns:xlink="http://www.w3.org/1999/xlink" x="0px" y="0px"
	 viewBox="0 0 370 370" style="enable-background:new 0 0 370 370;" xml:space="preserve">
<g id="XMLID_1820_">
	<g id="XMLID_1821_">
		<path id="XMLID_1822_" style="fill:#CDCDD0;" d="M216.177,32.644c-5.526,6.175-15.01,6.699-21.181,1.173
			C192.246,31.355,188.696,30,185,30c-8.271,0-15,6.729-15,15s6.729,15,15,15c8.284,0,15,6.716,15,15v280c0,8.284-6.716,15-15,15
			s-15-6.716-15-15V87.42c-17.459-6.192-30-22.865-30-42.42c0-24.813,20.186-45,45-45c11.091,0,21.746,4.071,30.004,11.463
			C221.177,16.988,221.702,26.472,216.177,32.644z"/>
		<path id="XMLID_1823_" style="fill:#ACABB1;" d="M185,30c-8.271,0-15,6.729-15,15s6.729,15,15,15c0,41.5,0,250,0,310
			c-8.284,0-15-6.716-15-15V87.42c-17.459-6.192-30-22.865-30-42.42c0-24.813,20.186-45,45-45C185,12,185,19.5,185,30z"/>
	</g>
	<path id="XMLID_1824_" style="fill:#FF5023;" d="M275,155c0,0.749-36,175-36,175H131L95,155c0,0,22.5-45,90-45S275,154.251,275,155
		z"/>
	<path id="XMLID_1825_" style="fill:#BD3C1A;" d="M185,330h-54L95,155c0,0,22.5-45,90-45C185,186.334,185,330,185,330z"/>
	<path id="XMLID_1826_" style="fill:#802812;" d="M155,195.001c0-8.284-6.716-15-15-15h-39.857l6.172,30H140
		C148.284,210.001,155,203.285,155,195.001z"/>
	<path id="XMLID_1827_" style="fill:#BD3C1A;" d="M215,225c0,8.284,6.716,15,15,15h27.573c2.109-10.233,4.208-20.419,6.181-30H230
		C221.716,210,215,216.716,215,225z"/>
	<path id="XMLID_1828_" style="fill:#802812;" d="M155,255c0-8.284-6.716-15-15-15h-27.515l6.172,30H140
		C148.284,270,155,263.284,155,255z"/>
	<path id="XMLID_1829_" style="fill:#BD3C1A;" d="M230,269.999c-8.284,0-15,6.716-15,15s6.716,15,15,15h15.195
		c1.827-8.851,3.944-19.108,6.191-30H230z"/>
</g>
<g>
</g>
<g>
</g>
<g>
</g>
<g>
</g>
<g>
</g>
<g>
</g>
<g>
</g>
<g>
</g>
<g>
</g>
<g>
</g>
<g>
</g>
<g>
</g>
<g>
</g>
<g>
</g>
<g>
</g>
</svg>
