<?xml version="1.0" encoding="iso-8859-1"?>
<!-- Generator: Adobe Illustrator 19.0.0, SVG Export Plug-In . SVG Version: 6.00 Build 0)  -->
<svg version="1.1" id="Layer_1" xmlns="http://www.w3.org/2000/svg" xmlns:xlink="http://www.w3.org/1999/xlink" x="0px" y="0px"
	 viewBox="0 0 330 330" style="enable-background:new 0 0 330 330;" xml:space="preserve">
<g id="XMLID_1073_">
	<path id="XMLID_19_" style="fill:#91DC5A;" d="M328.634,76.127c0,0-43.532-7.682-68.284,17.07
		c-24.753,24.754-17.072,68.285-17.072,68.285s42.678,8.535,68.284-17.072C337.17,118.805,328.634,76.127,328.634,76.127z"/>
	<path id="XMLID_18_" style="fill:#91DC5A;" d="M328.634,253.873c0,0-43.532,7.682-68.284-17.07
		c-24.753-24.754-17.072-68.285-17.072-68.285s42.678-8.535,68.284,17.072C337.17,211.195,328.634,253.873,328.634,253.873z"/>
	<path id="XMLID_17_" style="fill:#64C37D;" d="M265,150c-8.284,0-15,6.716-15,15l0,0c0,8.284,6.716,15,15,15h50
		c8.284,0,15-6.716,15-15l0,0c0-8.284-6.716-15-15-15H265z"/>
	<path id="XMLID_1074_" style="fill:#FFE98F;" d="M270,135h-4.979C250.268,91.63,204.359,60,150,60S49.732,91.63,34.979,135H30
		c-16.568,0-30,13.432-30,30s13.432,30,30,30h4.979C49.732,238.371,95.641,270,150,270s100.268-31.629,115.021-75H270
		c16.568,0,30-13.432,30-30S286.568,135,270,135z"/>
	<path id="XMLID_1075_" style="fill:#FFDA44;" d="M150,60C95.641,60,49.732,91.63,34.979,135H30c-16.568,0-30,13.432-30,30
		s13.432,30,30,30h4.979C49.732,238.371,95.641,270,150,270V60z"/>
</g>
<g>
</g>
<g>
</g>
<g>
</g>
<g>
</g>
<g>
</g>
<g>
</g>
<g>
</g>
<g>
</g>
<g>
</g>
<g>
</g>
<g>
</g>
<g>
</g>
<g>
</g>
<g>
</g>
<g>
</g>
</svg>
