<?xml version="1.0" encoding="iso-8859-1"?>
<!-- Generator: Adobe Illustrator 19.0.0, SVG Export Plug-In . SVG Version: 6.00 Build 0)  -->
<svg version="1.1" id="Layer_1" xmlns="http://www.w3.org/2000/svg" xmlns:xlink="http://www.w3.org/1999/xlink" x="0px" y="0px"
	 viewBox="0 0 327.41 327.41" style="enable-background:new 0 0 327.41 327.41;" xml:space="preserve">
<g id="XMLID_853_">
	<circle id="XMLID_854_" style="fill:#91DC5A;" cx="163.705" cy="158.891" r="125.186"/>
	<path id="XMLID_855_" style="fill:#64C37D;" d="M163.705,284.077c-69.138,0-125.186-56.047-125.186-125.186
		S94.567,33.705,163.705,33.705"/>
	<path id="XMLID_856_" style="fill:#C2FB3B;" d="M280.945,63.555c0,0-69.563-9.637-108.338,34.075
		c-3.385,3.816-6.33,7.82-8.902,11.944c-2.572-4.124-5.518-8.128-8.902-11.944C116.026,53.919,46.465,63.555,46.465,63.555
		S29.899,132.93,67.381,175.182c37.486,42.254,108.341,34.075,108.341,34.075s0.002-0.007,0.003-0.008
		c24.049-1.276,60.773-7.542,84.305-34.067C297.512,132.931,280.945,63.555,280.945,63.555z"/>
	<path id="XMLID_857_" style="fill:#91DC5A;" d="M163.705,109.575c-2.572-4.124-5.518-8.128-8.902-11.944
		C116.026,53.919,46.465,63.555,46.465,63.555S29.899,132.93,67.381,175.182c27.963,31.52,74.487,34.975,96.324,34.697
		L163.705,109.575L163.705,109.575z"/>
	<path id="XMLID_16_" style="fill:#91DC5A;" d="M322.472,95.535c0,0,22.434,93.947-28.325,151.165
		c-31.876,35.93-81.625,44.409-114.191,46.134c-19.296,1.022-32.523,0.011-32.523,0.011s-24.185-91.974,28.328-151.165
		C228.271,82.485,322.472,95.535,322.472,95.535z"/>
	<path id="XMLID_858_" style="fill:#64C37D;" d="M163.545,157.609c-3.443-5.498-7.378-10.838-11.895-15.93
		C99.14,82.485,4.939,95.535,4.939,95.535S-17.495,189.482,33.265,246.7c37.8,42.608,100.645,47.346,130.28,46.987V157.609z"/>
</g>
<g>
</g>
<g>
</g>
<g>
</g>
<g>
</g>
<g>
</g>
<g>
</g>
<g>
</g>
<g>
</g>
<g>
</g>
<g>
</g>
<g>
</g>
<g>
</g>
<g>
</g>
<g>
</g>
<g>
</g>
</svg>
