<?xml version="1.0" encoding="iso-8859-1"?>
<!-- Generator: Adobe Illustrator 19.0.0, SVG Export Plug-In . SVG Version: 6.00 Build 0)  -->
<svg version="1.1" id="Layer_1" xmlns="http://www.w3.org/2000/svg" xmlns:xlink="http://www.w3.org/1999/xlink" x="0px" y="0px"
	 viewBox="0 0 363.639 363.639" style="enable-background:new 0 0 363.639 363.639;" xml:space="preserve">
<g id="XMLID_1437_">
	<g id="XMLID_1438_">
		<path id="XMLID_1439_" style="fill:#BD3C1A;" d="M230.084,329.127l-17.878-45.862h-60.774l-17.878,45.862
			c-5.077,13.024,1.365,27.7,14.391,32.777c13.025,5.076,27.698-1.364,32.776-14.39l1.099-2.82l1.099,2.82
			c5.078,13.025,19.751,19.466,32.776,14.39C228.718,356.827,235.16,342.151,230.084,329.127z"/>
		<path id="XMLID_1440_" style="fill:#802812;" d="M151.431,283.265l-17.878,45.862c-5.077,13.024,1.365,27.7,14.391,32.777
			c13.025,5.076,27.698-1.364,32.776-14.39l1.099-2.82v-61.43h-30.388V283.265z"/>
	</g>
	<path id="XMLID_1441_" style="fill:#FF5023;" d="M241.819,170.643c0-35.898-26.863-65-60-65s-60,29.102-60,65
		c0,17.006,6.035,32.48,15.904,44.064c-3.764,7.728-5.904,16.557-5.904,25.936c0,30.375,22.386,55,50,55s50-24.625,50-55
		c0-9.379-2.14-18.208-5.904-25.936C235.783,203.124,241.819,187.649,241.819,170.643z"/>
	<path id="XMLID_1442_" style="fill:#FF5023;" d="M76.819,208.64h-25c0-24.814,20.186-45,45-45h65v25h-65
		C85.79,188.64,76.819,197.611,76.819,208.64z"/>
	<path id="XMLID_1443_" style="fill:#FF5023;" d="M96.819,253.64h-25c0-24.814,20.186-45,45-45h65v25h-65
		C105.79,233.64,96.819,242.611,96.819,253.64z"/>
	<path id="XMLID_1444_" style="fill:#FF5023;" d="M126.819,298.64h-25c0-24.813,20.186-45,45-45h35v25h-35
		C135.79,278.64,126.819,287.611,126.819,298.64z"/>
	<path id="XMLID_1445_" style="fill:#FF5023;" d="M286.819,208.64h25c0-24.814-20.187-45-45-45h-65v25h65
		C277.847,188.64,286.819,197.611,286.819,208.64z"/>
	<path id="XMLID_1446_" style="fill:#FF5023;" d="M266.819,253.64h25c0-24.814-20.187-45-45-45h-65v25h65
		C257.847,233.64,266.819,242.611,266.819,253.64z"/>
	<path id="XMLID_1447_" style="fill:#FF5023;" d="M236.819,298.64h25c0-24.813-20.187-45-45-45h-35v25h35
		C227.847,278.64,236.819,287.611,236.819,298.64z"/>
	<path id="XMLID_1448_" style="fill:#FF5023;" d="M88.569,108.642c24.705-5.401,43.25-27.316,43.25-53.642c-20,0-55,0-55,0
		s0-15,0-55c-30.376,0-55,24.624-55,55c0,17.398,7.394,28.953,20.697,42.977C55.819,112,118.179,173.64,118.179,173.64
		l12.678-22.678C130.857,150.962,89.842,109.914,88.569,108.642z"/>
	<path id="XMLID_1449_" style="fill:#FF5023;" d="M275.069,108.642c-24.706-5.402-43.25-27.317-43.25-53.642c20,0,55,0,55,0
		s0-15,0-55c30.375,0,55,24.624,55,55c0,17.398-7.395,28.953-20.697,42.977C307.819,112,245.458,173.64,245.458,173.64
		l-12.678-22.678C232.78,150.962,273.795,109.914,275.069,108.642z"/>
	<path id="XMLID_1450_" style="fill:#BD3C1A;" d="M181.819,105.644c-33.137,0-60,29.102-60,65c0,17.006,6.035,32.48,15.904,44.064
		c-3.764,7.728-5.904,16.557-5.904,25.936c0,30.375,22.386,55,50,55C181.819,234.64,181.819,164.64,181.819,105.644z"/>
	<g id="XMLID_1451_">
		<path id="XMLID_1452_" style="fill:#BD3C1A;" d="M251.819,83.64c0,38.66-31.34,60-70,60s-70-21.34-70-60c0-50,70-70,70-70
			S251.819,33.64,251.819,83.64z"/>
		<path id="XMLID_1453_" style="fill:#802812;" d="M181.819,143.64c-38.66,0-70-21.34-70-60c0-50,70-70,70-70"/>
		<g id="XMLID_1454_">
			<circle id="XMLID_1455_" cx="146.819" cy="28.64" r="15"/>
		</g>
		<g id="XMLID_1456_">
			<circle id="XMLID_1457_" cx="216.819" cy="28.64" r="15"/>
		</g>
	</g>
</g>
<g>
</g>
<g>
</g>
<g>
</g>
<g>
</g>
<g>
</g>
<g>
</g>
<g>
</g>
<g>
</g>
<g>
</g>
<g>
</g>
<g>
</g>
<g>
</g>
<g>
</g>
<g>
</g>
<g>
</g>
</svg>
