<?xml version="1.0" encoding="iso-8859-1"?>
<!-- Generator: Adobe Illustrator 19.0.0, SVG Export Plug-In . SVG Version: 6.00 Build 0)  -->
<svg version="1.1" id="Layer_1" xmlns="http://www.w3.org/2000/svg" xmlns:xlink="http://www.w3.org/1999/xlink" x="0px" y="0px"
	 viewBox="0 0 280 280" style="enable-background:new 0 0 280 280;" xml:space="preserve">
<g id="XMLID_1394_">
	<path id="XMLID_25_" style="fill:#FFD6A0;" d="M90,230c0,27.614,22.386,50,50,50s50-22.386,50-50L180,60c0-22.092-17.908-40-40-40
		s-40,17.908-40,40L90,230z"/>
	<path id="XMLID_24_" style="fill:#FFC170;" d="M90,230c0,27.614,22.386,50,50,50c0-90,0-170,0-260c-22.092,0-40,17.908-40,40
		L90,230z"/>
	<path id="XMLID_1395_" style="fill:#FF5023;" d="M280,120V99.355C280,44.482,235.518,0,180.644,0H99.355
		C44.482,0,0,44.482,0,99.355V120H280z"/>
	<path id="XMLID_1396_" style="fill:#BD3C1A;" d="M140,0H99.355C44.482,0,0,44.482,0,99.355V120h140V0z"/>
	<g id="XMLID_1397_">
		<circle id="XMLID_1398_" style="fill:#FFE98F;" cx="50" cy="74.678" r="10"/>
		<circle id="XMLID_1399_" style="fill:#FFE98F;" cx="100" cy="44.678" r="10"/>
		<circle id="XMLID_1400_" style="fill:#FFF6D2;" cx="230" cy="74.678" r="10"/>
		<circle id="XMLID_1401_" style="fill:#FFF6D2;" cx="180" cy="44.678" r="10"/>
		<circle id="XMLID_1402_" style="fill:#FFF6D2;" cx="140" cy="74.678" r="10"/>
		<path id="XMLID_1403_" style="fill:#FFE98F;" d="M140,64.678c-5.523,0-10,4.477-10,10c0,5.524,4.477,10,10,10"/>
	</g>
</g>
<g>
</g>
<g>
</g>
<g>
</g>
<g>
</g>
<g>
</g>
<g>
</g>
<g>
</g>
<g>
</g>
<g>
</g>
<g>
</g>
<g>
</g>
<g>
</g>
<g>
</g>
<g>
</g>
<g>
</g>
</svg>
