<?xml version="1.0" encoding="iso-8859-1"?>
<!-- Generator: Adobe Illustrator 19.0.0, SVG Export Plug-In . SVG Version: 6.00 Build 0)  -->
<svg version="1.1" id="Layer_1" xmlns="http://www.w3.org/2000/svg" xmlns:xlink="http://www.w3.org/1999/xlink" x="0px" y="0px"
	 viewBox="0 0 300 300" style="enable-background:new 0 0 300 300;" xml:space="preserve">
<g id="XMLID_1411_">
	<path id="XMLID_1412_" style="fill:#565659;" d="M250,200c0,55.229-44.771,100-100,100S50,255.229,50,200C50,120,150,0,150,0
		S250,120,250,200z"/>
	<path id="XMLID_1413_" d="M150,300c-55.229,0-100-44.771-100-100C50,120,150,0,150,0S150,200.428,150,300z"/>
	<path id="XMLID_1414_" style="fill:#FFAD41;" d="M200,210c0,27.614-22.386,50-50,50l0,0c-27.614,0-50-22.386-50-50v-40
		c0-27.614,22.386-50,50-50l0,0c27.614,0,50,22.386,50,50V210z"/>
	<path id="XMLID_1415_" style="fill:#FF9811;" d="M150,260L150,260c-27.614,0-50-22.386-50-50v-40c0-27.614,22.386-50,50-50l0,0
		C150,180,150,200,150,260z"/>
</g>
<g>
</g>
<g>
</g>
<g>
</g>
<g>
</g>
<g>
</g>
<g>
</g>
<g>
</g>
<g>
</g>
<g>
</g>
<g>
</g>
<g>
</g>
<g>
</g>
<g>
</g>
<g>
</g>
<g>
</g>
</svg>
