<?xml version="1.0" encoding="iso-8859-1"?>
<!-- Generator: Adobe Illustrator 19.0.0, SVG Export Plug-In . SVG Version: 6.00 Build 0)  -->
<svg version="1.1" id="Layer_1" xmlns="http://www.w3.org/2000/svg" xmlns:xlink="http://www.w3.org/1999/xlink" x="0px" y="0px"
	 viewBox="0 0 290 290" style="enable-background:new 0 0 290 290;" xml:space="preserve">
<g id="XMLID_1356_">
	<polygon id="XMLID_25_" style="fill:#FFAD41;" points="65,80.581 166.695,15 166.695,125 	"/>
	<path id="XMLID_1357_" style="fill:#BD720D;" d="M248.717,156.564C252.624,152.154,255,146.355,255,140c0-13.807-11.193-25-25-25
		c-1.943,0-3.832,0.229-5.648,0.648c0.42-1.814,0.648-3.705,0.648-5.648c0-13.807-11.193-25-25-25c-3.621,0-7.059,0.775-10.165,2.16
		C188.425,74.691,177.847,65,165,65c-8.179,0-15.439,3.928-20,10c-4.561-6.072-11.821-10-20-10c-12.847,0-23.425,9.691-24.835,22.16
		C97.059,85.775,93.621,85,90,85c-13.807,0-25,11.193-25,25c0,1.943,0.229,3.834,0.648,5.648C63.832,115.229,61.943,115,60,115
		c-13.807,0-25,11.193-25,25c0,6.355,2.376,12.154,6.283,16.564c-4.654,1.732-8.646,4.816-11.518,8.77H145h115.234
		C257.363,161.381,253.371,158.297,248.717,156.564z"/>
	<path id="XMLID_1358_" style="fill:#804C09;" d="M29.766,165.334H145V75c-4.561-6.072-11.821-10-20-10
		c-12.847,0-23.425,9.691-24.835,22.16C97.059,85.775,93.621,85,90,85c-13.807,0-25,11.193-25,25c0,1.943,0.229,3.834,0.648,5.648
		C63.832,115.229,61.943,115,60,115c-13.807,0-25,11.193-25,25c0,6.355,2.376,12.154,6.283,16.564
		C36.629,158.297,32.637,161.381,29.766,165.334z"/>
	<polygon id="XMLID_22_" style="fill:#FFE98F;" points="196.214,25 281.066,109.853 175,131.066 	"/>
	<circle id="XMLID_1359_" style="fill:#BD720D;" cx="185" cy="125" r="30"/>
	<polygon id="XMLID_20_" style="fill:#FFDA44;" points="103.786,25 18.934,109.853 125,131.066 	"/>
	<circle id="XMLID_1360_" style="fill:#804C09;" cx="115" cy="125" r="30"/>
	<g id="XMLID_1361_">
		<path id="XMLID_1362_" style="fill:#91DC5A;" d="M275,155H15c-8.284,0-15,6.716-15,15s6.716,15,15,15h10
			c0,35.264,26.079,64.424,60,69.277V275h120v-20.723c33.921-4.854,60-34.014,60-69.277h10c8.284,0,15-6.716,15-15
			S283.284,155,275,155z"/>
	</g>
	<g id="XMLID_1363_">
		<path id="XMLID_1364_" style="fill:#64C37D;" d="M15,155c-8.284,0-15,6.716-15,15s6.716,15,15,15h10
			c0,35.264,26.079,64.424,60,69.277V275h60V155H15z"/>
	</g>
</g>
<g>
</g>
<g>
</g>
<g>
</g>
<g>
</g>
<g>
</g>
<g>
</g>
<g>
</g>
<g>
</g>
<g>
</g>
<g>
</g>
<g>
</g>
<g>
</g>
<g>
</g>
<g>
</g>
<g>
</g>
</svg>
