<?xml version="1.0" encoding="iso-8859-1"?>
<!-- Generator: Adobe Illustrator 19.0.0, SVG Export Plug-In . SVG Version: 6.00 Build 0)  -->
<svg version="1.1" id="Layer_1" xmlns="http://www.w3.org/2000/svg" xmlns:xlink="http://www.w3.org/1999/xlink" x="0px" y="0px"
	 viewBox="0 0 300 300" style="enable-background:new 0 0 300 300;" xml:space="preserve">
<g id="XMLID_1518_">
	<g id="XMLID_1519_">
		<g id="XMLID_1520_">
			<polygon id="XMLID_34_" style="fill:#BD3C1A;" points="219.786,30 190.214,0 49.786,0 49.786,30 			"/>
			
				<rect id="XMLID_33_" x="125.003" y="-19.141" transform="matrix(-0.3484 -0.9373 0.9373 -0.3484 131.7395 213.2897)" style="fill:#FF5023;" width="30" height="159.993"/>
		</g>
		<polygon id="XMLID_1521_" style="fill:#FFDA44;" points="250.214,170 190.214,170 190.214,0 220.214,0 250.214,90 		"/>
		<g id="XMLID_1522_">
			<path id="XMLID_1523_" style="fill:#FFDA44;" d="M233.154,235c4.546-10.759,7.06-22.586,7.06-35c0-49.705-40.295-90-90-90
				s-90,40.295-90,90c0,12.414,2.514,24.241,7.059,35H233.154z"/>
			<path id="XMLID_1524_" style="fill:#FFAD41;" d="M150.214,235c0-22.923,0-45,0-125c-49.705,0-90,40.295-90,90
				c0,12.414,2.514,24.241,7.059,35H150.214z"/>
		</g>
		<path id="XMLID_1525_" style="fill:#FFE98F;" d="M220.214,0v95c0,8.284,6.716,15,15,15s15-6.716,15-15V0H220.214z"/>
	</g>
	<polygon id="XMLID_1526_" style="fill:#FF5023;" points="50,140 20,210 40,220 70,150 	"/>
	<polygon id="XMLID_1527_" style="fill:#FF734F;" points="250,140 280,210 260,220 230,150 	"/>
	<polygon id="XMLID_1528_" style="fill:#BD3C1A;" points="50,140 70,300 230,300 250,140 	"/>
	<polygon id="XMLID_1529_" style="fill:#FF5023;" points="103.333,140 110,300 180,300 186.667,140 	"/>
	<polygon id="XMLID_1530_" style="fill:#802812;" points="50,140 70,300 120,300 113.333,140 	"/>
	<g id="XMLID_1531_">
		<ellipse id="XMLID_1532_" style="fill:#FFFFFF;" cx="150" cy="220" rx="40" ry="20"/>
		<path id="XMLID_1533_" style="fill:#FFE98F;" d="M150,240c-22.092,0-40-8.953-40-20c0-11.046,17.908-20,40-20"/>
	</g>
	<g id="XMLID_1534_">
		<polygon id="XMLID_1535_" style="fill:#FF734F;" points="50,140 90,220 210,220 250,140 		"/>
		<polygon id="XMLID_1536_" style="fill:#FF5023;" points="150,140 50,140 90,220 150,220 		"/>
	</g>
</g>
<g>
</g>
<g>
</g>
<g>
</g>
<g>
</g>
<g>
</g>
<g>
</g>
<g>
</g>
<g>
</g>
<g>
</g>
<g>
</g>
<g>
</g>
<g>
</g>
<g>
</g>
<g>
</g>
<g>
</g>
</svg>
