<?xml version="1.0" encoding="iso-8859-1"?>
<!-- Generator: Adobe Illustrator 19.0.0, SVG Export Plug-In . SVG Version: 6.00 Build 0)  -->
<svg version="1.1" id="Layer_1" xmlns="http://www.w3.org/2000/svg" xmlns:xlink="http://www.w3.org/1999/xlink" x="0px" y="0px"
	 viewBox="0 0 287.848 287.848" style="enable-background:new 0 0 287.848 287.848;" xml:space="preserve">
<g id="XMLID_1508_">
	<path id="XMLID_1509_" style="fill:#91DC5A;" d="M265.873,1.366c0,0-42.678-8.535-68.283,17.072
		c-7.257,7.256-11.77,15.883-14.514,24.521c-2.744-8.639-7.257-17.266-14.514-24.521C142.957-7.17,100.279,1.366,100.279,1.366
		s-7.682,43.532,17.07,68.285c21.166,21.164,56.056,18.617,65.727,17.434c9.67,1.184,44.561,3.731,65.727-17.434
		C273.555,44.898,265.873,1.366,265.873,1.366z"/>
	<path id="XMLID_1510_" style="fill:#64C37D;" d="M183.076,42.959c-2.744-8.639-7.257-17.266-14.514-24.521
		C142.957-7.17,100.279,1.366,100.279,1.366s-7.682,43.532,17.07,68.285c21.166,21.164,56.056,18.617,65.727,17.434L183.076,42.959
		L183.076,42.959z"/>
	<path id="XMLID_1511_" style="fill:#804C09;" d="M258.076,72.848c0,0-32.324,0.072-32.848,0.098v-0.098
		c-16.718,0-32.111,2.89-46.402,7.805v117.195h19.25v-65c0-15.318,11.456-28.137,26.649-29.816
		c0.512-0.057,33.351-0.184,33.351-0.184c8.284,0,15-6.716,15-15S266.36,72.848,258.076,72.848z"/>
	<path id="XMLID_1512_" style="fill:#402604;" d="M168.076,197.848h15V79.242c-40.006,12.382-71.314,40.859-98.454,67.999
		l21.213,21.213c19.614-19.614,40.407-38.95,64.374-51.491c-1.385,5.069-2.133,10.395-2.133,15.885V197.848z"/>
	<g id="XMLID_1513_">
		<g id="XMLID_1514_">
			<ellipse id="XMLID_24_" style="fill:#91DC5A;" cx="183.076" cy="227.848" rx="50" ry="60"/>
			<path id="XMLID_23_" style="fill:#64C37D;" d="M183.076,287.848c-27.615,0-50-26.864-50-60c0-33.139,22.387-60,50-60"/>
		</g>
		<ellipse id="XMLID_1515_" style="fill:#4B905E;" cx="183.076" cy="267.85" rx="15" ry="10"/>
	</g>
	<g id="XMLID_1516_">
		<g id="XMLID_1517_">
			
				<ellipse id="XMLID_19_" transform="matrix(0.7071 -0.7071 0.7071 0.7071 -108.6268 102.9855)" style="fill:#91DC5A;" cx="70.001" cy="182.617" rx="59.999" ry="50"/>
			<path id="XMLID_18_" style="fill:#64C37D;" d="M27.574,225.046c-19.527-19.526-16.36-54.35,7.071-77.782
				c23.432-23.432,58.256-26.597,77.781-7.07"/>
		</g>
		
			<ellipse id="XMLID_16_" transform="matrix(0.7071 -0.7071 0.7071 0.7071 -136.9134 91.2691)" style="fill:#4B905E;" cx="41.715" cy="210.904" rx="10" ry="15"/>
	</g>
</g>
<g>
</g>
<g>
</g>
<g>
</g>
<g>
</g>
<g>
</g>
<g>
</g>
<g>
</g>
<g>
</g>
<g>
</g>
<g>
</g>
<g>
</g>
<g>
</g>
<g>
</g>
<g>
</g>
<g>
</g>
</svg>
