<?xml version="1.0" encoding="iso-8859-1"?>
<!-- Generator: Adobe Illustrator 19.0.0, SVG Export Plug-In . SVG Version: 6.00 Build 0)  -->
<svg version="1.1" id="Layer_1" xmlns="http://www.w3.org/2000/svg" xmlns:xlink="http://www.w3.org/1999/xlink" x="0px" y="0px"
	 viewBox="0 0 250 250" style="enable-background:new 0 0 250 250;" xml:space="preserve">
<g id="XMLID_1613_">
	<path id="XMLID_1614_" style="fill:#802812;" d="M225,90c0,0-44.772,60-100,60S25,90,25,90c0-55.229,44.771-70,100-70
		S225,34.771,225,90z"/>
	<circle id="XMLID_1615_" style="fill:#804C09;" cx="85" cy="100" r="30"/>
	<circle id="XMLID_1616_" style="fill:#804C09;" cx="165" cy="100" r="30"/>
	<g id="XMLID_1617_">
		<path id="XMLID_1618_" style="fill:#FF9811;" d="M125,0C94.624,0,70,24.625,70,55c0,30.376,24.624,55,55,55s55-24.624,55-55
			C180,24.625,155.376,0,125,0z M125,80c-13.807,0-25-11.193-25-25c0-13.808,11.193-25,25-25s25,11.192,25,25
			C150,68.807,138.807,80,125,80z"/>
		<path id="XMLID_1621_" style="fill:#BD720D;" d="M125,80c-13.807,0-25-11.193-25-25c0-13.808,11.193-25,25-25V0
			C94.624,0,70,24.625,70,55c0,30.376,24.624,55,55,55V80z"/>
	</g>
	<path id="XMLID_1622_" style="fill:#BD720D;" d="M125,80c-30.376,0-55,24.625-55,55c0,30.376,24.624,55,55,55s55-24.624,55-55
		C180,104.625,155.376,80,125,80z M125,160c-13.807,0-25-11.193-25-25c0-13.808,11.193-25,25-25s25,11.192,25,25
		C150,148.807,138.807,160,125,160z"/>
	<g id="XMLID_1625_">
		<path id="XMLID_1626_" style="fill:#FFAD41;" d="M164.98,44.125c-15.756,0-29.953,6.636-39.98,17.252
			c-10.027-10.616-24.225-17.252-39.981-17.252c-30.376,0-55,24.625-55,55c0,30.376,24.624,55,55,55
			c15.756,0,29.953-6.636,39.981-17.252c10.027,10.616,24.225,17.252,39.98,17.252c30.376,0,55-24.624,55-55
			C219.98,68.75,195.356,44.125,164.98,44.125z M85.019,124.125c-13.807,0-25-11.193-25-25c0-13.808,11.193-25,25-25
			c13.549,0,24.571,10.778,24.981,24.228c-0.003,0.259-0.02,0.514-0.02,0.772s0.016,0.514,0.02,0.772
			C109.591,113.346,98.568,124.125,85.019,124.125z M164.98,124.125c-13.549,0-24.571-10.779-24.98-24.228
			c0.003-0.259,0.019-0.514,0.019-0.772s-0.016-0.514-0.019-0.772c0.409-13.449,11.432-24.228,24.98-24.228
			c13.807,0,25,11.192,25,25C189.98,112.932,178.787,124.125,164.98,124.125z"/>
		<path id="XMLID_1630_" style="fill:#FF9811;" d="M124.995,61.388C114.968,50.77,100.777,44.125,85.02,44.125
			c-30.376,0-55,24.625-55,55c0,30.376,24.624,55,55,55c15.757,0,29.948-6.645,39.975-17.263
			C124.995,125.167,124.995,77.333,124.995,61.388z M85.019,124.125c-13.807,0-25-11.193-25-25c0-13.808,11.193-25,25-25
			c13.548,0,24.571,10.777,24.981,24.227c-0.003,0.259-0.02,0.514-0.02,0.773s0.016,0.515,0.02,0.773
			C109.59,113.347,98.568,124.125,85.019,124.125z"/>
	</g>
	<g id="XMLID_1633_">
		<g id="XMLID_1634_">
			<path id="XMLID_1635_" style="fill:#FF5023;" d="M188.255,90c-11.235,23.647-35.332,40-63.255,40s-52.02-16.353-63.255-40H25
				l20,160h160l20-160H188.255z"/>
			<path id="XMLID_1636_" style="fill:#BD3C1A;" d="M125,130c-27.923,0-52.02-16.353-63.255-40H25l20,160h80
				C125,250,125,169.334,125,130z"/>
		</g>
		<ellipse id="XMLID_1637_" style="fill:#FFFFFF;" cx="125" cy="190" rx="40" ry="20"/>
		<path id="XMLID_1638_" style="fill:#FFE98F;" d="M125,210c-22.091,0-40-8.954-40-20s17.909-20,40-20"/>
	</g>
</g>
<g>
</g>
<g>
</g>
<g>
</g>
<g>
</g>
<g>
</g>
<g>
</g>
<g>
</g>
<g>
</g>
<g>
</g>
<g>
</g>
<g>
</g>
<g>
</g>
<g>
</g>
<g>
</g>
<g>
</g>
</svg>
