<?xml version="1.0" encoding="iso-8859-1"?>
<!-- Generator: Adobe Illustrator 19.0.0, SVG Export Plug-In . SVG Version: 6.00 Build 0)  -->
<svg version="1.1" id="Layer_1" xmlns="http://www.w3.org/2000/svg" xmlns:xlink="http://www.w3.org/1999/xlink" x="0px" y="0px"
	 viewBox="0 0 295 295" style="enable-background:new 0 0 295 295;" xml:space="preserve">
<g id="XMLID_1050_">
	<path id="XMLID_1051_" style="fill:#FFAD41;" d="M197.304,64.896C172.336,53.472,162.533,29.901,172.5,0c0,0-25,0-25,20
		c0-20-25-20-25-20c9.967,29.901,0.164,53.472-24.804,64.896C56.282,82.238,27.5,120.536,27.5,165c0,60.752,53.726,110,120,110
		c66.273,0,120-49.248,120-110C267.5,120.536,238.719,82.238,197.304,64.896z"/>
	<path id="XMLID_1052_" style="fill:#FF9811;" d="M147.5,20c0-20-25-20-25-20c9.967,29.901,0.164,53.472-24.804,64.896
		C56.282,82.238,27.5,120.536,27.5,165c0,60.752,53.726,110,120,110C147.5,213,147.5,36.374,147.5,20z"/>
	<path id="XMLID_1053_" style="fill:#BD720D;" d="M147.5,65c0,0-60,20-60,110c0,25.804,4.846,49.532,12.96,68.294
		c10.991,25.409,27.977,37.144,47.04,37.144V65z"/>
	<path id="XMLID_1054_" style="fill:#FF9811;" d="M147.5,65c0,0,60,20,60,110c0,25.804-4.846,49.532-12.961,68.294
		c-10.99,25.409-27.977,37.144-47.039,37.144V65z"/>
	<g id="XMLID_1055_">
		<path id="XMLID_1056_" style="fill:#804C09;" d="M122.639,272.63C123.953,285.201,134.581,295,147.5,295
			s23.547-9.799,24.861-22.37c-8.021,1.55-16.337,2.37-24.861,2.37C138.975,275,130.66,274.179,122.639,272.63z"/>
	</g>
</g>
<g>
</g>
<g>
</g>
<g>
</g>
<g>
</g>
<g>
</g>
<g>
</g>
<g>
</g>
<g>
</g>
<g>
</g>
<g>
</g>
<g>
</g>
<g>
</g>
<g>
</g>
<g>
</g>
<g>
</g>
</svg>
