<?xml version="1.0" encoding="iso-8859-1"?>
<!-- Generator: Adobe Illustrator 19.0.0, SVG Export Plug-In . SVG Version: 6.00 Build 0)  -->
<svg version="1.1" id="Layer_1" xmlns="http://www.w3.org/2000/svg" xmlns:xlink="http://www.w3.org/1999/xlink" x="0px" y="0px"
	 viewBox="0 0 360 360" style="enable-background:new 0 0 360 360;" xml:space="preserve">
<g id="XMLID_1765_">
	<path id="XMLID_1766_" style="fill:#FFAD41;" d="M310,173.179c0-11.046-8.954-20-20-20c11.046,0,20-8.954,20-20
		c0-11.046-8.954-20-20-20H70c-11.046,0-20,8.954-20,20c0,11.046,8.954,20,20,20c-11.046,0-20,8.954-20,20c0,11.046,8.954,20,20,20
		c-11.046,0-20,8.954-20,20c0,11.046,8.954,20,20,20c-11.046,0-20,8.954-20,20c0,11.046,8.954,20,20,20l110,10l110-10
		c11.046,0,20-8.954,20-20s-8.954-20-20-20c11.046,0,20-8.954,20-20c0-11.046-8.954-20-20-20
		C301.046,193.179,310,184.225,310,173.179z"/>
	<path id="XMLID_1767_" style="fill:#FF5023;" d="M180,80.751c-0.316-13.269-11.164-23.93-24.509-23.93
		c-4.77,0-9.219,1.365-12.984,3.721c-3.765-2.355-8.214-3.721-12.983-3.721C115.979,56.821,105,67.8,105,81.345
		c0,0.79,0.051,1.567,0.124,2.339c1.333,22.063,17.561,39.495,37.396,39.495c20.191,0,36.646-18.062,37.457-40.685
		C179.993,82.113,180,80.751,180,80.751z"/>
	<path id="XMLID_1768_" style="fill:#FF9811;" d="M180,233.179H70c-11.046,0-20,8.954-20,20c0,11.046,8.954,20,20,20h110V233.179z"
		/>
	<path id="XMLID_1769_" style="fill:#FF9811;" d="M310,213.179c0,11.046-8.954,20-20,20H70c-11.046,0-20-8.954-20-20l0,0
		c0-11.046,8.954-20,20-20h220C301.046,193.179,310,202.133,310,213.179L310,213.179z"/>
	<path id="XMLID_1770_" style="fill:#BD720D;" d="M180,193.179H70c-11.046,0-20,8.954-20,20c0,11.046,8.954,20,20,20h110V193.179z"
		/>
	<path id="XMLID_1771_" style="fill:#FF9811;" d="M180,153.179H70c-11.046,0-20,8.954-20,20c0,11.046,8.954,20,20,20h110V153.179z"
		/>
	<path id="XMLID_1772_" style="fill:#FF9811;" d="M310,133.179c0,11.046-8.954,20-20,20H70c-11.046,0-20-8.954-20-20l0,0
		c0-11.046,8.954-20,20-20h220C301.046,113.179,310,122.133,310,133.179L310,133.179z"/>
	<path id="XMLID_1773_" style="fill:#BD720D;" d="M180,113.179H70c-11.046,0-20,8.954-20,20c0,11.046,8.954,20,20,20h110V113.179z"
		/>
	<path id="XMLID_1774_" style="fill:#804C09;" d="M105,113.179v115c0,8.284,6.716,15,15,15s15-6.716,15-15v-35
		c0-8.284,6.716-15,15-15s15,6.716,15,15v15c0,8.284,6.716,15,15,15s15-6.716,15-15v-40c0-8.284,6.716-15,15-15s15,6.716,15,15v10
		c0,8.284,6.716,15,15,15s15-6.716,15-15v-65H105z"/>
	<path id="XMLID_1775_" style="fill:#402604;" d="M180,113.179h-75v115c0,8.284,6.716,15,15,15s15-6.716,15-15v-35
		c0-8.284,6.716-15,15-15s15,6.716,15,15v15c0,8.284,6.716,15,15,15C180,174.846,180,113.179,180,113.179z"/>
	<path id="XMLID_1776_" style="fill:#CDCDD0;" d="M360,288.179c0,8.284-6.716,15-15,15H15c-8.284,0-15-6.716-15-15l0,0
		c0-8.284,6.716-15,15-15h330C353.284,273.179,360,279.895,360,288.179L360,288.179z"/>
	<path id="XMLID_1777_" style="fill:#ACABB1;" d="M180,273.179H15c-8.284,0-15,6.716-15,15s6.716,15,15,15h165V273.179z"/>
</g>
<g>
</g>
<g>
</g>
<g>
</g>
<g>
</g>
<g>
</g>
<g>
</g>
<g>
</g>
<g>
</g>
<g>
</g>
<g>
</g>
<g>
</g>
<g>
</g>
<g>
</g>
<g>
</g>
<g>
</g>
</svg>
