<?xml version="1.0" encoding="iso-8859-1"?>
<!-- Generator: Adobe Illustrator 19.0.0, SVG Export Plug-In . SVG Version: 6.00 Build 0)  -->
<svg version="1.1" id="Layer_1" xmlns="http://www.w3.org/2000/svg" xmlns:xlink="http://www.w3.org/1999/xlink" x="0px" y="0px"
	 viewBox="0 0 290 290" style="enable-background:new 0 0 290 290;" xml:space="preserve">
<g id="XMLID_998_">
	<path id="XMLID_18_" style="fill:#91DC5A;" d="M231.721,1.366c0,0,7.682,43.532-17.07,68.284
		c-24.754,24.753-68.285,17.072-68.285,17.072s-8.535-42.678,17.072-68.284C189.043-7.17,231.721,1.366,231.721,1.366z"/>
	<path id="XMLID_999_" style="fill:#804C09;" d="M160,75c0,8.284-6.716,15-15,15l0,0c-8.284,0-15-6.716-15-15V25
		c0-8.284,6.716-15,15-15l0,0c8.284,0,15,6.716,15,15V75z"/>
	<path id="XMLID_1000_" style="fill:#FFDA44;" d="M205,147.977V120c0-33.137-26.863-60-60-60s-60,26.863-60,60v27.977
		C63.642,162.646,50,184.98,50,210c0,44.183,42.532,80,95,80c52.467,0,95-35.817,95-80C240,184.98,226.357,162.647,205,147.977z"/>
	<path id="XMLID_1001_" style="fill:#FFAD41;" d="M145,60c-33.137,0-60,26.863-60,60v27.977C63.642,162.646,50,184.98,50,210
		c0,44.183,42.532,80,95,80C145,207,145,156,145,60z"/>
</g>
<g>
</g>
<g>
</g>
<g>
</g>
<g>
</g>
<g>
</g>
<g>
</g>
<g>
</g>
<g>
</g>
<g>
</g>
<g>
</g>
<g>
</g>
<g>
</g>
<g>
</g>
<g>
</g>
<g>
</g>
</svg>
