<?xml version="1.0" encoding="iso-8859-1"?>
<!-- Generator: Adobe Illustrator 19.0.0, SVG Export Plug-In . SVG Version: 6.00 Build 0)  -->
<svg version="1.1" id="Layer_1" xmlns="http://www.w3.org/2000/svg" xmlns:xlink="http://www.w3.org/1999/xlink" x="0px" y="0px"
	 viewBox="0 0 320 320" style="enable-background:new 0 0 320 320;" xml:space="preserve">
<g id="XMLID_1745_">
	<path id="XMLID_1746_" style="fill:#FFDA44;" d="M185,15c0-8.283-11.193-15-25-15c-13.808,0-25,6.717-25,15
		c0,4.906,3.928,9.264,10,12v23h30V27C181.072,24.263,185,19.906,185,15z"/>
	<path id="XMLID_1747_" style="fill:#FFAD41;" d="M160,0c-13.808,0-25,6.717-25,15c0,4.906,3.928,9.264,10,12v23h15
		C160,50,160,9,160,0z"/>
	<path id="XMLID_1748_" style="fill:#BD720D;" d="M160,40c-38.66,0-70,13.432-70,30s20,40,20,40v40h100v-40c0,0,20-23.432,20-40
		S198.66,40,160,40z"/>
	<path id="XMLID_1749_" style="fill:#804C09;" d="M90,70c0,16.568,20,40,20,40v60h100v-60c0,0,20-23.432,20-40C196,70,116,70,90,70z
		"/>
	<path id="XMLID_1750_" style="fill:#402604;" d="M160,170V70H90c0,16.568,20,40,20,40v60H160z"/>
	<path id="XMLID_1751_" style="fill:#BD720D;" d="M110,150c0,0-30,122.289-30,136c0,18.669,15.223,34,34,34h92
		c18.777,0,34-15.331,34-34c0-13.711-25.451-97.299-30-136H110z"/>
	<path id="XMLID_1752_" style="fill:#804C09;" d="M160,150h-50c0,0-30,122.289-30,136c0,18.669,15.223,34,34,34h46V150z"/>
</g>
<g>
</g>
<g>
</g>
<g>
</g>
<g>
</g>
<g>
</g>
<g>
</g>
<g>
</g>
<g>
</g>
<g>
</g>
<g>
</g>
<g>
</g>
<g>
</g>
<g>
</g>
<g>
</g>
<g>
</g>
</svg>
