<?xml version="1.0" encoding="iso-8859-1"?>
<!-- Generator: Adobe Illustrator 19.0.0, SVG Export Plug-In . SVG Version: 6.00 Build 0)  -->
<svg version="1.1" id="Layer_1" xmlns="http://www.w3.org/2000/svg" xmlns:xlink="http://www.w3.org/1999/xlink" x="0px" y="0px"
	 viewBox="0 0 310.334 310.334" style="enable-background:new 0 0 310.334 310.334;" xml:space="preserve">
<g id="XMLID_1253_">
	<rect id="XMLID_1254_" x="0.334" y="80.167" style="fill:#FFAD41;" width="280" height="180"/>
	<path id="XMLID_1255_" style="fill:#FF9811;" d="M80.334,80.167c-27.71,0-63.824,12.527-80.334,32.222v147.778h150.334v-180
		C150.334,80.167,80.334,80.167,80.334,80.167z"/>
	<rect id="XMLID_1256_" y="80.167" style="fill:#804C09;" width="280.334" height="70.5"/>
	<rect id="XMLID_1257_" y="80.167" style="fill:#402604;" width="150.334" height="70.5"/>
	<rect id="XMLID_1258_" y="150.167" style="fill:#FF5023;" width="280.334" height="40"/>
	<rect id="XMLID_1259_" y="150.167" style="fill:#BD3C1A;" width="150.334" height="40"/>
	<path id="XMLID_1260_" style="fill:#804C09;" d="M200.648,129.834H0.334v20.333h15.012c8.284,0,15,6.716,15,15v45
		c0,8.284,6.716,15,15,15s15-6.716,15-15v-40c0-8.284,6.716-15,15-15s15,6.716,15,15v30c0,8.284,6.716,15,15,15s15-6.716,15-15v-30
		c0-8.284,6.716-15,15-15s15,6.716,15,15v40c0,8.284,6.716,15,15,15s15-6.716,15-15v-45c0-8.284,6.716-15,15-15h9.504
		C204.152,143.149,202.721,136.349,200.648,129.834z"/>
	<path id="XMLID_1261_" style="fill:#402604;" d="M150.334,80.167H0v70h15.346c8.284,0,15,6.716,15,15v45c0,8.284,6.716,15,15,15
		s15-6.716,15-15v-40c0-8.284,6.716-15,15-15s15,6.716,15,15v30c0,8.284,6.716,15,15,15s15-6.716,15-15v-30c0-8.284,6.716-15,15-15
		s15,6.716,15,15L150.334,80.167z"/>
	<rect id="XMLID_1262_" x="0.334" y="240.167" style="fill:#BD720D;" width="310" height="30"/>
	<rect id="XMLID_17_" x="230.334" y="80.167" style="fill:#BD720D;" width="80" height="190"/>
	<rect id="XMLID_1263_" x="0.334" y="240.167" style="fill:#804C09;" width="150" height="30"/>
	<circle id="XMLID_1264_" style="fill:#BD720D;" cx="270.334" cy="80.167" r="40"/>
</g>
<g>
</g>
<g>
</g>
<g>
</g>
<g>
</g>
<g>
</g>
<g>
</g>
<g>
</g>
<g>
</g>
<g>
</g>
<g>
</g>
<g>
</g>
<g>
</g>
<g>
</g>
<g>
</g>
<g>
</g>
</svg>
