<?xml version="1.0" encoding="iso-8859-1"?>
<!-- Generator: Adobe Illustrator 19.0.0, SVG Export Plug-In . SVG Version: 6.00 Build 0)  -->
<svg version="1.1" id="Layer_1" xmlns="http://www.w3.org/2000/svg" xmlns:xlink="http://www.w3.org/1999/xlink" x="0px" y="0px"
	 viewBox="0 0 360 360" style="enable-background:new 0 0 360 360;" xml:space="preserve">
<g id="XMLID_919_">
	<path id="XMLID_920_" style="fill:#91DC5A;" d="M286.721,81.366c0,0-12.27-2.451-27.598-0.781
		c9.331-23.234,4.75-49.219,4.75-49.219s-28.378-5.673-52.736,6.117C201.174,14.842,179.999,0,179.999,0
		s-21.429,14.305-31.313,37.395c-24.319-11.676-52.559-6.029-52.559-6.029s-4.581,25.985,4.75,49.219
		c-15.328-1.67-27.598,0.781-27.598,0.781s-7.682,43.532,17.07,68.284c24.754,24.753,68.285,17.072,68.285,17.072h42.73
		c0,0,43.531,7.681,68.285-17.072C294.402,124.897,286.721,81.366,286.721,81.366z"/>
	<path id="XMLID_921_" style="fill:#64C37D;" d="M179.999,0c0,0-21.429,14.305-31.313,37.395
		c-24.319-11.676-52.559-6.029-52.559-6.029s-4.581,25.985,4.75,49.219c-15.328-1.67-27.598,0.781-27.598,0.781
		s-7.682,43.532,17.07,68.284c24.754,24.753,68.285,17.072,68.285,17.072H180L179.999,0z"/>
	<path id="XMLID_922_" style="fill:#FFAD41;" d="M280,264.005C280,317.022,237.021,360,184.005,360h-8.01
		C122.979,360,80,317.022,80,264.005v-48.01C80,162.979,122.979,120,175.995,120h8.01C237.021,120,280,162.979,280,215.995V264.005z
		"/>
	<path id="XMLID_923_" style="fill:#FF9811;" d="M180,120h-4.005C122.979,120,80,162.979,80,215.995v48.01
		C80,317.022,122.979,360,175.995,360H180V120z"/>
	<rect id="XMLID_924_" x="100" y="200" style="fill:#FFDA44;" width="0.001" height="0.001"/>
	<rect id="XMLID_925_" x="100" y="279.999" style="fill:#FFDA44;" width="0.001" height="0.001"/>
	<rect id="XMLID_926_" x="260" y="200" style="fill:#FFDA44;" width="0.001" height="0.001"/>
	<rect id="XMLID_927_" x="260" y="279.999" style="fill:#FFDA44;" width="0.001" height="0.001"/>
	<polygon id="XMLID_26_" style="fill:#FFE98F;" points="150,320 180,280 220,320 180,360 	"/>
	<polygon id="XMLID_25_" style="fill:#FFE98F;" points="150,240 180,199.999 220,240 180,280 	"/>
	<polygon id="XMLID_24_" style="fill:#FFE98F;" points="150,160 180,119.999 220,160 180,200 	"/>
	<polygon id="XMLID_23_" style="fill:#FFC170;" points="140,320 180,280 180,360 	"/>
	<polygon id="XMLID_22_" style="fill:#FFC170;" points="140,240 180,199.999 180,280 	"/>
	<polygon id="XMLID_21_" style="fill:#FFC170;" points="140,160 180,119.999 180,200 	"/>
	<path id="XMLID_928_" style="fill:#FFC170;" d="M100,199.999L100,199.999L140,160l-21.145-21.145
		c-15.51,11.507-27.43,27.579-33.77,46.231L100,199.999L100,199.999z"/>
	<polygon id="XMLID_929_" style="fill:#FFC170;" points="100,279.999 100,280 140,240 100,200 100,200.001 100,200 80,220 80,260 
		100,280 	"/>
	<path id="XMLID_930_" style="fill:#FFC170;" d="M100,280L100,280L100,280l-14.914,14.914c6.34,18.652,18.26,34.724,33.77,46.231
		L140,320L100,280z"/>
	<path id="XMLID_931_" style="fill:#FFE98F;" d="M260,200L260,200L260,200l14.914-14.914c-6.34-18.652-18.26-34.724-33.77-46.231
		L220,160.001L260,200z"/>
	<polygon id="XMLID_932_" style="fill:#FFE98F;" points="260,200.001 260,200 220,240 260,280 260,279.999 260,280 280,260 280,220 
		260,200 	"/>
	<path id="XMLID_933_" style="fill:#FFE98F;" d="M260,280L260,280l-40,40l21.145,21.145c15.51-11.508,27.43-27.579,33.77-46.231
		L260,280L260,280z"/>
</g>
<g>
</g>
<g>
</g>
<g>
</g>
<g>
</g>
<g>
</g>
<g>
</g>
<g>
</g>
<g>
</g>
<g>
</g>
<g>
</g>
<g>
</g>
<g>
</g>
<g>
</g>
<g>
</g>
<g>
</g>
</svg>
