<?xml version="1.0" encoding="iso-8859-1"?>
<!-- Generator: Adobe Illustrator 19.0.0, SVG Export Plug-In . SVG Version: 6.00 Build 0)  -->
<svg version="1.1" id="Layer_1" xmlns="http://www.w3.org/2000/svg" xmlns:xlink="http://www.w3.org/1999/xlink" x="0px" y="0px"
	 viewBox="0 0 367.695 367.695" style="enable-background:new 0 0 367.695 367.695;" xml:space="preserve">
<g id="XMLID_897_">
	<path id="XMLID_898_" style="fill:#FFAD41;" d="M338.181,183.181H29.514L0,212.695c101.536,101.537,266.159,101.536,367.695,0
		C358.625,203.625,348.647,193.647,338.181,183.181z"/>
	<path id="XMLID_23_" style="fill:#FF9811;" d="M183.848,288.848c-66.54,0-133.08-25.384-183.848-76.152L183.848,28.848
		C183.848,28.848,183.848,194.848,183.848,288.848z"/>
	<path id="XMLID_899_" style="fill:#FF5023;" d="M316.077,161.077H51.619l-23.335,23.335
		c39.813,39.812,94.813,64.436,155.564,64.436s115.751-24.624,155.563-64.436C331.849,176.849,316.077,161.077,316.077,161.077z"/>
	<path id="XMLID_900_" style="fill:#BD3C1A;" d="M183.848,161.077H51.619l-23.335,23.335
		c39.813,39.812,94.813,64.436,155.564,64.436C183.848,248.848,183.848,161.077,183.848,161.077z"/>
	<path id="XMLID_901_" style="fill:#FFE98F;" d="M183.848,28.848L51.619,161.077c16.58,16.58,44.01,18.524,66.011,27.647
		c21.223,8.8,41.813,27.124,66.218,27.124s44.996-18.324,66.218-27.124c22.001-9.123,49.431-11.067,66.011-27.647
		C253.44,98.44,183.848,28.848,183.848,28.848z"/>
	<path id="XMLID_902_" style="fill:#FFDA44;" d="M51.619,161.077c3.616,3.616,7.75,6.536,12.229,8.986v98.785
		c0,11.046,8.955,20,20,20s20-8.954,20-20v-50c0-11.046,8.955-20,20-20s20,8.954,20,20v100c0,11.046,8.955,20,20,20s20-8.954,20-20
		v-290L51.619,161.077z"/>
	<circle id="XMLID_903_" style="fill:#BD3C1A;" cx="128.848" cy="143.848" r="25"/>
	<circle id="XMLID_904_" style="fill:#FF5023;" cx="238.848" cy="143.848" r="25"/>
	<circle id="XMLID_905_" style="fill:#FF5023;" cx="183.848" cy="93.848" r="25"/>
	<path id="XMLID_906_" style="fill:#BD3C1A;" d="M183.848,118.848c-13.807,0-25-11.193-25-25s11.193-25,25-25"/>
</g>
<g>
</g>
<g>
</g>
<g>
</g>
<g>
</g>
<g>
</g>
<g>
</g>
<g>
</g>
<g>
</g>
<g>
</g>
<g>
</g>
<g>
</g>
<g>
</g>
<g>
</g>
<g>
</g>
<g>
</g>
</svg>
