<?xml version="1.0" encoding="iso-8859-1"?>
<!-- Generator: Adobe Illustrator 19.0.0, SVG Export Plug-In . SVG Version: 6.00 Build 0)  -->
<svg version="1.1" id="Layer_1" xmlns="http://www.w3.org/2000/svg" xmlns:xlink="http://www.w3.org/1999/xlink" x="0px" y="0px"
	 viewBox="0 0 335 335" style="enable-background:new 0 0 335 335;" xml:space="preserve">
<g id="XMLID_1147_">
	<g id="XMLID_1148_">
		<path id="XMLID_1149_" style="fill:#FF5023;" d="M220,175.251H80c-44.112,0-80-35.888-80-80s35.888-80,80-80h115v30H80
			c-27.57,0-50,22.43-50,50s22.43,50,50,50h140V175.251z"/>
	</g>
	<path id="XMLID_1150_" style="fill:#BD3C1A;" d="M202.5,258.72c-1.211-0.818-2.519-1.531-3.939-2.085l-37.268-14.528
		c-10.291-4.011-21.887,1.079-25.898,11.371c-4.012,10.292,1.078,21.886,11.37,25.897l2.228,0.868l-2.228,0.868
		c-10.292,4.012-15.382,15.605-11.37,25.897c4.012,10.292,15.607,15.382,25.898,11.371l37.268-14.528
		c1.42-0.554,2.728-1.267,3.939-2.085V258.72z"/>
	<g id="XMLID_1151_">
		<path id="XMLID_1152_" style="fill:#FF5023;" d="M225,85.251h-70v90h60c22.092,0,40,17.908,40,40s-17.908,40-40,40h-20v50h30
			c60.751,0,110-49.249,110-110S285.751,85.251,225,85.251z"/>
	</g>
	<g id="XMLID_1153_">
		<path id="XMLID_1154_" style="fill:#BD3C1A;" d="M245,125.251c0-27.614-22.386-50-50-50H65c0,55.229,44.773,100,100,100h30
			C222.614,175.251,245,152.866,245,125.251z"/>
	</g>
	<g id="XMLID_1155_">
		<circle id="XMLID_1156_" cx="130" cy="110.251" r="15"/>
	</g>
	<g id="XMLID_1157_">
		<path id="XMLID_1158_" style="fill:#FF5023;" d="M219.953,235.251h-25c0-24.814,20.187-45,45-45h16.25v25h-16.25
			C228.925,215.251,219.953,224.223,219.953,235.251z"/>
	</g>
</g>
<g>
</g>
<g>
</g>
<g>
</g>
<g>
</g>
<g>
</g>
<g>
</g>
<g>
</g>
<g>
</g>
<g>
</g>
<g>
</g>
<g>
</g>
<g>
</g>
<g>
</g>
<g>
</g>
<g>
</g>
</svg>
