<?xml version="1.0" encoding="iso-8859-1"?>
<!-- Generator: Adobe Illustrator 19.0.0, SVG Export Plug-In . SVG Version: 6.00 Build 0)  -->
<svg version="1.1" id="Layer_1" xmlns="http://www.w3.org/2000/svg" xmlns:xlink="http://www.w3.org/1999/xlink" x="0px" y="0px"
	 viewBox="0 0 320 320" style="enable-background:new 0 0 320 320;" xml:space="preserve">
<g id="XMLID_1365_">
	<circle id="XMLID_1366_" style="fill:#FF9811;" cx="160" cy="131" r="40"/>
	<path id="XMLID_1367_" style="fill:#FF9811;" d="M160,293.334c-41.537,0-80.201-15.679-108.869-44.148
		c-29.104-28.901-45.474-68.86-46.102-112.531C5.011,135.773,5,134.889,5,134c0-27.876,9.299-54.271,26.185-74.321
		C49.111,38.39,73.313,26.666,99.333,26.666c22.631,0,43.977,9.11,60.667,25.031c16.69-15.921,38.036-25.031,60.667-25.031
		c26.019,0,50.222,11.724,68.148,33.013C305.701,79.729,315,106.124,315,134c0,0.89-0.01,1.774-0.029,2.657
		c-0.629,43.668-17,83.629-46.102,112.528C240.201,277.655,201.537,293.334,160,293.334z M99.333,76.666
		c-11.019,0-21.639,5.404-29.903,15.219C60.125,102.936,55,117.892,55,134c0,0.564,0.008,1.127,0.02,1.686l0.003,0.183
		c0.424,30.546,11.554,58.19,31.34,77.84c19.238,19.104,45.39,29.625,73.637,29.625c28.248,0,54.399-10.521,73.637-29.625
		c19.786-19.649,30.916-47.293,31.34-77.84l0.003-0.199c0.012-0.556,0.02-1.11,0.02-1.67c0-16.108-5.125-31.064-14.43-42.115
		c-8.264-9.815-18.884-15.219-29.903-15.219c-15.371,0-29.938,10.743-38.017,28.036L160,153.189l-22.65-48.486
		C129.271,87.409,114.704,76.666,99.333,76.666z"/>
	<path id="XMLID_1370_" style="fill:#FF9811;" d="M160,293.334c-41.537,0-80.201-15.679-108.869-44.148
		c-29.104-28.901-45.474-68.86-46.102-112.531C5.011,135.773,5,134.889,5,134c0-27.876,9.299-54.271,26.185-74.321
		C49.111,38.39,73.313,26.666,99.333,26.666c22.631,0,43.977,9.11,60.667,25.031c16.69-15.921,38.036-25.031,60.667-25.031
		c26.019,0,50.222,11.724,68.148,33.013C305.701,79.729,315,106.124,315,134c0,0.89-0.01,1.774-0.029,2.657
		c-0.629,43.668-17,83.629-46.102,112.528C240.201,277.655,201.537,293.334,160,293.334z M99.333,76.666
		c-11.019,0-21.639,5.404-29.903,15.219C60.125,102.936,55,117.892,55,134c0,0.564,0.008,1.127,0.02,1.686l0.003,0.183
		c0.424,30.546,11.554,58.19,31.34,77.84c19.238,19.104,45.39,29.625,73.637,29.625c28.248,0,54.399-10.521,73.637-29.625
		c19.786-19.649,30.916-47.293,31.34-77.84l0.003-0.199c0.012-0.556,0.02-1.11,0.02-1.67c0-16.108-5.125-31.064-14.43-42.115
		c-8.264-9.815-18.884-15.219-29.903-15.219c-15.371,0-29.938,10.743-38.017,28.036L160,153.189l-22.65-48.486
		C129.271,87.409,114.704,76.666,99.333,76.666z"/>
	<g id="XMLID_1373_">
		<path id="XMLID_1374_" style="fill:#FF9811;" d="M20,291.666c-11.046,0-20-8.954-20-20s8.954-20,20-20
			c66.168,0,120-53.832,120-120c0-11.046,8.954-20,20-20s20,8.954,20,20C180,219.891,108.224,291.666,20,291.666z"/>
		<path id="XMLID_1375_" style="fill:#FF9811;" d="M300,291.666c-88.224,0-160-71.775-160-160c0-11.046,8.954-20,20-20
			s20,8.954,20,20c0,66.168,53.832,120,120,120c11.046,0,20,8.954,20,20C320,282.712,311.046,291.666,300,291.666z"/>
	</g>
	<path id="XMLID_1376_" style="fill:#BE720D;" d="M160,243.334c-7.933,0-15.699-0.83-23.194-2.447
		c8.971-9.588,16.777-20.274,23.194-31.838V51.697c-16.69-15.921-38.036-25.031-60.667-25.031c-26.02,0-50.222,11.724-68.148,33.013
		C14.299,79.729,5,106.124,5,134c0,0.889,0.011,1.773,0.029,2.654c0.618,43.032,16.532,82.452,44.842,111.248
		c-9.553,2.456-19.563,3.764-29.871,3.764c-11.046,0-20,8.954-20,20s8.954,20,20,20c24.468,0,47.666-5.528,68.423-15.39
		c21.681,11.143,46.085,17.058,71.577,17.058V243.334z M97.471,223.229c-3.909-2.886-7.623-6.061-11.108-9.52
		c-19.786-19.649-30.915-47.294-31.34-77.84l-0.003-0.183C55.008,135.127,55,134.564,55,134c0-16.108,5.125-31.064,14.43-42.115
		c8.264-9.815,18.884-15.219,29.903-15.219c13.894,0,27.131,8.78,35.513,23.24C125.792,107.239,120,118.441,120,131
		c0,13.026,6.23,24.594,15.869,31.898C129.432,186.754,115.809,207.689,97.471,223.229z"/>
	<g id="XMLID_1379_">
		<path id="XMLID_1380_" style="fill:#BE720D;" d="M159.853,278.336L159.853,278.336c-5.52-0.01-10-4.49-9.99-10.01l0,0
			c0-5.53,4.48-10,10.01-9.99l0,0c5.52,0,9.99,4.479,9.99,10.01l0,0c-0.01,5.521-4.48,9.99-10,9.99l0,0H159.853z"/>
		<path id="XMLID_1381_" style="fill:#BE720D;" d="M159.873,258.336L159.873,258.336L159.873,258.336z"/>
		<g id="XMLID_1382_">
			<path id="XMLID_1383_" style="fill:#BE720D;" d="M254.953,228.195c-4.33-3.43-5.05-9.72-1.62-14.05l0,0c0,0,0,0,0,0.01l0,0
				c3.43-4.329,9.72-5.06,14.05-1.619l0,0c4.32,3.43,5.05,9.72,1.61,14.04v0.01c-1.97,2.479-4.89,3.78-7.84,3.78l0,0
				C258.983,230.366,256.783,229.655,254.953,228.195z"/>
		</g>
		<path id="XMLID_1384_" style="fill:#BE720D;" d="M283.763,178.226c-5.38-1.28-8.71-6.66-7.44-12.03l0,0
			c1.27-5.38,6.66-8.71,12.03-7.439l0,0c5.38,1.27,8.71,6.66,7.44,12.03l0,0c-1.09,4.6-5.19,7.71-9.73,7.71l0,0
			C285.303,178.496,284.533,178.405,283.763,178.226z"/>
		<path id="XMLID_1385_" style="fill:#BE720D;" d="M277.543,113.377L277.543,113.377L277.543,113.377
			c-1.31-5.371,1.97-10.781,7.34-12.091l0,0c5.36-1.311,10.78,1.97,12.09,7.341l0,0c1.31,5.358-1.98,10.769-7.34,12.089l0,0
			c-0.8,0.189-1.6,0.28-2.38,0.28l0,0C282.753,120.996,278.663,117.936,277.543,113.377z"/>
		<path id="XMLID_1386_" style="fill:#BE720D;" d="M250.493,71.496L250.493,71.496L250.493,71.496c-4.5-3.2-5.55-9.45-2.34-13.95
			l0,0c3.21-4.49,9.45-5.54,13.95-2.33l0,0c4.5,3.2,5.54,9.45,2.34,13.941l0,0c-1.95,2.739-5.03,4.199-8.15,4.199l0,0
			C254.283,73.355,252.253,72.756,250.493,71.496z"/>
		<path id="XMLID_1387_" style="fill:#BE720D;" d="M191.703,58.266c-1.809-5.22,0.941-10.92,6.16-12.729v-0.011
			c5.21-1.81,10.91,0.95,12.73,6.17l0,0c1.81,5.211-0.95,10.91-6.16,12.721l0,0l0,0l0,0c-1.09,0.38-2.2,0.56-3.289,0.56l0,0
			C197.003,64.976,193.133,62.386,191.703,58.266z"/>
		<path id="XMLID_1388_" style="fill:#804C09;" d="M159.863,278.336L159.863,278.336h-0.01l0,0c-5.52-0.01-10-4.49-9.99-10.01l0,0
			c0-5.53,4.48-10,10.01-9.99l0,0"/>
		<path id="XMLID_1389_" style="fill:#804C09;" d="M50.823,226.355c-3.43-4.34-2.69-10.63,1.65-14.05l0,0
			c4.33-3.42,10.62-2.689,14.04,1.65l0,0c3.42,4.33,2.69,10.62-1.65,14.04l0,0c-1.83,1.449-4.02,2.159-6.19,2.159l0,0
			C55.723,230.155,52.793,228.846,50.823,226.355z"/>
		<path id="XMLID_1390_" style="fill:#804C09;" d="M24.143,170.496c-1.26-5.38,2.08-10.761,7.45-12.02l0,0
			c5.38-1.26,10.76,2.08,12.02,7.46l0,0c1.26,5.37-2.08,10.75-7.46,12.01l0,0c-0.77,0.182-1.53,0.271-2.29,0.271l0,0
			C29.323,178.216,25.223,175.105,24.143,170.496z"/>
		<path id="XMLID_1391_" style="fill:#804C09;" d="M30.403,120.426c-5.36-1.33-8.63-6.75-7.3-12.11l0,0
			c1.33-5.359,6.75-8.63,12.11-7.3l0,0c5.36,1.33,8.63,6.75,7.3,12.111l0,0c-1.13,4.559-5.21,7.599-9.7,7.599l0,0
			C32.023,120.726,31.213,120.627,30.403,120.426z"/>
		<path id="XMLID_1392_" style="fill:#804C09;" d="M55.763,68.956c-3.18-4.511-2.11-10.75,2.4-13.931l0,0
			c4.51-3.189,10.75-2.119,13.94,2.391l0,0c3.19,4.52,2.11,10.75-2.4,13.939l0,0c-1.75,1.24-3.77,1.84-5.76,1.84l0,0
			C60.803,73.186,57.713,71.716,55.763,68.956z"/>
		<path id="XMLID_1393_" style="fill:#804C09;" d="M115.793,64.496L115.793,64.496L115.793,64.496c-5.21-1.83-7.94-7.551-6.1-12.761
			l0,0c1.84-5.199,7.55-7.94,12.76-6.09l0,0c5.211,1.83,7.941,7.55,6.1,12.75l0,0c-1.45,4.11-5.31,6.681-9.43,6.681l0,0
			C118.013,65.076,116.893,64.886,115.793,64.496z"/>
	</g>
</g>
<g>
</g>
<g>
</g>
<g>
</g>
<g>
</g>
<g>
</g>
<g>
</g>
<g>
</g>
<g>
</g>
<g>
</g>
<g>
</g>
<g>
</g>
<g>
</g>
<g>
</g>
<g>
</g>
<g>
</g>
</svg>
