<?xml version="1.0" encoding="iso-8859-1"?>
<!-- Generator: Adobe Illustrator 19.0.0, SVG Export Plug-In . SVG Version: 6.00 Build 0)  -->
<svg version="1.1" id="Layer_1" xmlns="http://www.w3.org/2000/svg" xmlns:xlink="http://www.w3.org/1999/xlink" x="0px" y="0px"
	 viewBox="0 0 318.289 318.289" style="enable-background:new 0 0 318.289 318.289;" xml:space="preserve">
<g id="XMLID_1466_">
	<path id="XMLID_22_" style="fill:#802812;" d="M52.85,160.856c-1.434,0.278-2.864,0.698-4.26,1.311l-36.626,16.08
		C1.852,182.687-2.748,194.486,1.692,204.6c4.441,10.114,16.238,14.713,26.353,10.272l2.189-0.961l-0.962,2.189
		c-4.44,10.114,0.158,21.911,10.272,26.352c10.114,4.441,21.913-0.16,26.353-10.273l16.08-36.626
		c0.612-1.396,1.033-2.824,1.311-4.26L52.85,160.856z"/>
	<g id="XMLID_1467_">
		<path id="XMLID_1468_" style="fill:#EEEEEF;" d="M303.289,214.144c0,27.614-22.386,50-50,50h-140c-27.614,0-50-22.386-50-50v-40
			c0-27.614,22.386-50,50-50h140c27.614,0,50,22.386,50,50V214.144z"/>
		<path id="XMLID_1469_" style="fill:#DEDDE0;" d="M183.289,124.144h-70c-27.614,0-50,22.386-50,50v40c0,27.614,22.386,50,50,50h70
			V124.144z"/>
		<path id="XMLID_1470_" style="fill:#FF5023;" d="M63.289,199.832c0-38.66,53.726-70,120-70c66.273,0,120,31.34,120,70
			c0,0.056-0.004,0.111-0.004,0.167c9.586-13.735,15.004-29.325,15.004-45.854c0-55.229-60.441-100-135-100s-135,44.771-135,100
			c0,16.529,5.418,32.119,15.004,45.854C63.293,199.943,63.289,199.888,63.289,199.832z"/>
		<path id="XMLID_1471_" style="fill:#BD3C1A;" d="M183.289,54.144c-74.559,0-135,44.771-135,100
			c0,16.529,5.418,32.119,15.004,45.854c0-0.056-0.004-0.111-0.004-0.167c0-38.66,53.726-70,120-70
			C183.289,109.146,183.289,90.478,183.289,54.144z"/>
		<path id="XMLID_1472_" style="fill:#802812;" d="M143.289,58.639c-14.533,3.335-28.027,8.423-40,14.959v74.069
			c11.541-6.025,25.099-10.758,40-13.832V58.639z"/>
		<path id="XMLID_1473_" style="fill:#BD3C1A;" d="M223.289,58.639c14.533,3.335,28.027,8.423,40,14.959v74.069
			c-11.541-6.025-25.099-10.758-40-13.832V58.639z"/>
	</g>
</g>
<g>
</g>
<g>
</g>
<g>
</g>
<g>
</g>
<g>
</g>
<g>
</g>
<g>
</g>
<g>
</g>
<g>
</g>
<g>
</g>
<g>
</g>
<g>
</g>
<g>
</g>
<g>
</g>
<g>
</g>
</svg>
