<?xml version="1.0" encoding="iso-8859-1"?>
<!-- Generator: Adobe Illustrator 19.0.0, SVG Export Plug-In . SVG Version: 6.00 Build 0)  -->
<svg version="1.1" id="Layer_1" xmlns="http://www.w3.org/2000/svg" xmlns:xlink="http://www.w3.org/1999/xlink" x="0px" y="0px"
	 viewBox="0 0 320 320" style="enable-background:new 0 0 320 320;" xml:space="preserve">
<g id="XMLID_1024_">
	<g id="XMLID_1025_">
		<circle id="XMLID_1026_" style="fill:#FFE98F;" cx="160" cy="200" r="100"/>
		<circle id="XMLID_1027_" style="fill:#FFE98F;" cx="65" cy="195" r="25"/>
		<circle id="XMLID_1028_" style="fill:#FFE98F;" cx="75" cy="155" r="25"/>
		<circle id="XMLID_1029_" style="fill:#FFE98F;" cx="105" cy="125" r="25"/>
		<circle id="XMLID_1030_" style="fill:#FFE98F;" cx="255" cy="195" r="25"/>
		<circle id="XMLID_1031_" style="fill:#FFE98F;" cx="245" cy="155" r="25"/>
		<circle id="XMLID_1032_" style="fill:#FFE98F;" cx="215" cy="125" r="25"/>
		<circle id="XMLID_1033_" style="fill:#FFE98F;" cx="140" cy="105" r="25"/>
		<circle id="XMLID_1034_" style="fill:#FFE98F;" cx="180" cy="105" r="25"/>
	</g>
	<path id="XMLID_1035_" style="fill:#FFDA44;" d="M160,89.999C155.439,83.928,148.179,80,140,80
		c-12.847,0-23.425,9.691-24.835,22.161C112.059,100.776,108.621,100,105,100c-13.807,0-25,11.193-25,25
		c0,1.943,0.229,3.833,0.649,5.649C78.832,130.229,76.944,130,75,130c-13.807,0-25,11.193-25,25c0,6.355,2.376,12.154,6.283,16.565
		C46.774,175.104,40,184.259,40,195c0,12.779,9.591,23.311,21.966,24.81C71.158,265.549,111.554,300,160,300
		C160,251.667,160,151.667,160,89.999z"/>
	<path id="XMLID_1036_" style="fill:#91DC5A;" d="M290,200H30c-8.284,0-15,6.716-15,15s6.716,15,15,15h10
		c0,35.264,26.079,64.423,60,69.277V320h120v-20.723c33.921-4.854,60-34.014,60-69.277h10c8.284,0,15-6.716,15-15
		S298.284,200,290,200z"/>
	<path id="XMLID_1037_" style="fill:#64C37D;" d="M30,200c-8.284,0-15,6.716-15,15s6.716,15,15,15h10
		c0,35.264,26.079,64.423,60,69.277V320h60V200H30z"/>
	<polygon id="XMLID_1038_" style="fill:#BD3C1A;" points="190,170 160,140 160,0 190,0 	"/>
	
		<rect id="XMLID_16_" x="205.853" y="10.213" transform="matrix(-0.9373 -0.3484 0.3484 -0.9373 396.4348 251.7152)" style="fill:#FF5023;" width="29.999" height="159.993"/>
	<path id="XMLID_1039_" style="fill:#FFE98F;" d="M226.141,195.333C229.241,189.225,231,182.32,231,175c0-24.852-20.148-45-45-45
		c-9.69,0-18.656,3.073-26,8.283v57.05L226.141,195.333L226.141,195.333z"/>
</g>
<g>
</g>
<g>
</g>
<g>
</g>
<g>
</g>
<g>
</g>
<g>
</g>
<g>
</g>
<g>
</g>
<g>
</g>
<g>
</g>
<g>
</g>
<g>
</g>
<g>
</g>
<g>
</g>
<g>
</g>
</svg>
