<?xml version="1.0" encoding="iso-8859-1"?>
<!-- Generator: Adobe Illustrator 19.0.0, SVG Export Plug-In . SVG Version: 6.00 Build 0)  -->
<svg version="1.1" id="Layer_1" xmlns="http://www.w3.org/2000/svg" xmlns:xlink="http://www.w3.org/1999/xlink" x="0px" y="0px"
	 viewBox="0 0 361.292 361.292" style="enable-background:new 0 0 361.292 361.292;" xml:space="preserve">
<g id="XMLID_907_">
	<path id="XMLID_908_" style="fill:#BD720D;" d="M336.323,268.646c3.238-12.686,4.968-29.306,4.968-43c0-88.366-71.634-160-160-160
		s-160,71.634-160,160c0,13.694,1.73,30.314,4.968,43H336.323z"/>
	<path id="XMLID_909_" style="fill:#804C09;" d="M181.292,268.646c0-20,0-113,0-203c-88.366,0-160,71.634-160,160
		c0,13.694,1.73,30.314,4.968,43H181.292z"/>
	<g id="XMLID_910_">
		
			<rect id="XMLID_22_" x="31.733" y="115.197" transform="matrix(-0.8805 -0.4741 0.4741 -0.8805 70.7992 288.2433)" style="fill:#FFE98F;" width="80.002" height="40.001"/>
		<path id="XMLID_21_" style="fill:#BD720D;" d="M179.421,125.034c-25.896-13.944-68.755-11.734-89.402-2.709l-18.964,35.218
			c3.83,22.205,25.577,59.202,51.474,73.146c38.901,20.947,83.173,14.276,98.884-14.9
			C237.123,186.614,218.323,145.98,179.421,125.034z"/>
		<circle id="XMLID_20_" style="fill:#FFE98F;" cx="39.223" cy="100.651" r="25"/>
		<circle id="XMLID_19_" style="fill:#FFE98F;" cx="25" cy="127.065" r="25"/>
	</g>
	<path id="XMLID_911_" style="fill:#FF9811;" d="M181.292,126.093v115.799c17.611-2.809,32.36-11.688,40.121-26.102
		C236.866,187.09,218.909,147.321,181.292,126.093z"/>
	<path id="XMLID_912_" style="fill:#CDCDD0;" d="M361.292,280.646c0,8.284-6.716,15-15,15h-330c-8.284,0-15-6.716-15-15l0,0
		c0-8.284,6.716-15,15-15h330C354.576,265.646,361.292,272.362,361.292,280.646L361.292,280.646z"/>
	<path id="XMLID_913_" style="fill:#ACABB1;" d="M181.292,265.646h-165c-8.284,0-15,6.716-15,15s6.716,15,15,15h165V265.646z"/>
</g>
<g>
</g>
<g>
</g>
<g>
</g>
<g>
</g>
<g>
</g>
<g>
</g>
<g>
</g>
<g>
</g>
<g>
</g>
<g>
</g>
<g>
</g>
<g>
</g>
<g>
</g>
<g>
</g>
<g>
</g>
</svg>
