<?xml version="1.0" encoding="iso-8859-1"?>
<!-- Generator: Adobe Illustrator 19.0.0, SVG Export Plug-In . SVG Version: 6.00 Build 0)  -->
<svg version="1.1" id="Layer_1" xmlns="http://www.w3.org/2000/svg" xmlns:xlink="http://www.w3.org/1999/xlink" x="0px" y="0px"
	 viewBox="0 0 386.593 386.593" style="enable-background:new 0 0 386.593 386.593;" xml:space="preserve">
<g id="XMLID_1217_">
	<g id="XMLID_1218_">
		<path id="XMLID_1219_" style="fill:#91DC5A;" d="M333.297,193.491c-2.175-3.904-4.203-7.793-5.829-11.712
			c-7.665-18.486-9.024-41.717-22.955-55.647c-13.93-13.93-37.16-15.289-55.645-22.955c-17.832-7.394-35.066-23.11-55.572-23.11
			s-37.741,15.717-55.572,23.11c-18.485,7.664-41.714,9.025-55.645,22.955c-13.93,13.931-15.289,37.161-22.955,55.647
			c-1.625,3.919-3.654,7.808-5.829,11.712H333.297z"/>
		<path id="XMLID_1220_" style="fill:#64C37D;" d="M193.297,193.491V80.066c-20.505,0-37.741,15.717-55.572,23.11
			c-18.485,7.664-41.714,9.025-55.645,22.955c-13.93,13.931-15.289,37.161-22.955,55.647c-1.625,3.919-3.654,7.808-5.829,11.712
			L193.297,193.491L193.297,193.491z"/>
	</g>
	<g id="XMLID_1221_">
		<g id="XMLID_1222_">
			<g id="XMLID_1223_">
				<path id="XMLID_1224_" style="fill:#CDCDD0;" d="M382.201,126.437c-5.858-5.858-15.355-5.858-21.213,0L245.896,241.528h42.426
					L382.2,147.65C388.058,141.791,388.058,132.295,382.201,126.437z"/>
			</g>
			<g id="XMLID_1225_">
				<path id="XMLID_28_" style="fill:#FF5023;" d="M343.31,186.541l38.891-38.892c5.857-5.858,5.857-15.354,0-21.213
					c-5.858-5.858-15.355-5.858-21.213,0l-38.891,38.891L343.31,186.541z"/>
			</g>
		</g>
	</g>
	<g id="XMLID_1226_">
		<g id="XMLID_1227_">
			<path id="XMLID_1228_" style="fill:#ACABB1;" d="M4.393,126.437c5.858-5.858,15.356-5.858,21.213,0l115.091,115.091H98.271
				L4.393,147.65C-1.464,141.791-1.464,132.295,4.393,126.437z"/>
			<path id="XMLID_23_" style="fill:#BD3C1A;" d="M43.284,186.541L4.393,147.65c-5.857-5.858-5.857-15.354,0-21.213
				c5.858-5.858,15.356-5.858,21.213,0l38.891,38.891L43.284,186.541z"/>
		</g>
	</g>
	<path id="XMLID_20_" style="fill:#FFFFFF;" d="M271.865,173.084c10.65-10.65,10.65-27.918,0-38.568
		c-10.651-10.651-27.918-10.65-38.569-0.001"/>
	<path id="XMLID_19_" style="fill:#FFF6D2;" d="M114.728,173.084c-10.65-10.65-10.65-27.918,0-38.568
		c10.651-10.651,27.918-10.65,38.569-0.001"/>
	<circle id="XMLID_1229_" style="fill:#FF5023;" cx="193.297" cy="186.528" r="40"/>
	<path id="XMLID_1230_" style="fill:#BD3C1A;" d="M193.297,226.528c-22.091,0-40-17.908-40-40s17.909-40,40-40"/>
	<path id="XMLID_1231_" style="fill:#FFE98F;" d="M353.297,186.528h-160h-160c-8.284,0-15,6.716-15,15s6.716,15,15,15h10
		c0,35.264,26.079,64.424,60,69.277v20.723h90h90v-20.723c33.921-4.853,60-34.014,60-69.277h10c8.284,0,15-6.716,15-15
		C368.297,193.244,361.581,186.528,353.297,186.528z"/>
	<path id="XMLID_1232_" style="fill:#FFDA44;" d="M33.297,186.528c-8.284,0-15,6.716-15,15s6.716,15,15,15h10
		c0,35.264,26.079,64.424,60,69.277v20.723h90v-120L33.297,186.528L33.297,186.528z"/>
</g>
<g>
</g>
<g>
</g>
<g>
</g>
<g>
</g>
<g>
</g>
<g>
</g>
<g>
</g>
<g>
</g>
<g>
</g>
<g>
</g>
<g>
</g>
<g>
</g>
<g>
</g>
<g>
</g>
<g>
</g>
</svg>
