<?xml version="1.0" encoding="iso-8859-1"?>
<!-- Generator: Adobe Illustrator 19.0.0, SVG Export Plug-In . SVG Version: 6.00 Build 0)  -->
<svg version="1.1" id="Layer_1" xmlns="http://www.w3.org/2000/svg" xmlns:xlink="http://www.w3.org/1999/xlink" x="0px" y="0px"
	 viewBox="0 0 280 280" style="enable-background:new 0 0 280 280;" xml:space="preserve">
<g id="XMLID_1458_">
	<path id="XMLID_1459_" style="fill:#ACABB1;" d="M140,0c-38.66,0-70,13.432-70,30s20,40,20,40v40h100V70c0,0,20-23.432,20-40
		S178.66,0,140,0z"/>
	<path id="XMLID_1460_" style="fill:#808084;" d="M70,30c0,16.568,20,40,20,40v60h100V70c0,0,20-23.432,20-40C176,30,96,30,70,30z"
		/>
	<path id="XMLID_1461_" style="fill:#565659;" d="M140,130V30H70c0,16.568,20,40,20,40v60H140z"/>
	<path id="XMLID_1462_" style="fill:#DEDDE0;" d="M90,110c0,0-30,122.289-30,136c0,18.668,15.223,34,34,34h92
		c18.777,0,34-15.332,34-34c0-13.711-25.451-97.299-30-136H90z"/>
	<path id="XMLID_1463_" style="fill:#CDCDD0;" d="M140,110H90c0,0-30,122.289-30,136c0,18.668,15.223,34,34,34h46V110z"/>
	<path id="XMLID_1464_" style="fill:#EEEEEF;" d="M80.37,150C71.596,186.981,60,237.474,60,246c0,18.668,15.223,34,34,34h92
		c18.777,0,34-15.332,34-34c0-9.918-13.315-56.395-22.405-96H80.37z"/>
	<path id="XMLID_1465_" style="fill:#DEDDE0;" d="M140,150H80.37C71.596,186.981,60,237.474,60,246c0,18.668,15.223,34,34,34h46V150
		z"/>
</g>
<g>
</g>
<g>
</g>
<g>
</g>
<g>
</g>
<g>
</g>
<g>
</g>
<g>
</g>
<g>
</g>
<g>
</g>
<g>
</g>
<g>
</g>
<g>
</g>
<g>
</g>
<g>
</g>
<g>
</g>
</svg>
