<?xml version="1.0" encoding="iso-8859-1"?>
<!-- Generator: Adobe Illustrator 19.0.0, SVG Export Plug-In . SVG Version: 6.00 Build 0)  -->
<svg version="1.1" id="Layer_1" xmlns="http://www.w3.org/2000/svg" xmlns:xlink="http://www.w3.org/1999/xlink" x="0px" y="0px"
	 viewBox="0 0 400 400" style="enable-background:new 0 0 400 400;" xml:space="preserve">
<g id="XMLID_1002_">
	<path id="XMLID_1003_" style="fill:#FFAD41;" d="M390,205v-17.311C390,141.961,352.932,105,307.203,105H92.796
		C47.068,105,10,141.961,10,187.689V205H390z"/>
	<path id="XMLID_1004_" style="fill:#FF9811;" d="M200,105H92.796C47.068,105,10,141.961,10,187.689V205h190V105z"/>
	<path id="XMLID_1005_" style="fill:#BD720D;" d="M95,105v35c0,8.284,6.716,15,15,15s15-6.716,15-15v-35H95z"/>
	<path id="XMLID_1006_" style="fill:#FF9811;" d="M185,105v35c0,8.284,6.716,15,15,15s15-6.716,15-15v-35H185z"/>
	<path id="XMLID_1007_" style="fill:#FF9811;" d="M185,105v35c0,8.284,6.716,15,15,15s15-6.716,15-15v-35H185z"/>
	<path id="XMLID_1008_" style="fill:#BD720D;" d="M185,105v35c0,8.284,6.716,15,15,15c0-22.333,0-50,0-50H185z"/>
	<path id="XMLID_1009_" style="fill:#FF9811;" d="M275,105v35c0,8.284,6.716,15,15,15s15-6.716,15-15v-35H275z"/>
	<g id="XMLID_1010_">
		<path id="XMLID_1011_" style="fill:#BD720D;" d="M350,210H50c-16.568,0-30,13.432-30,30s13.432,30,30,30h300
			c16.568,0,30-13.432,30-30S366.568,210,350,210z"/>
		<path id="XMLID_1012_" style="fill:#804C09;" d="M200,210H50c-16.568,0-30,13.432-30,30s13.432,30,30,30h150V210z"/>
	</g>
	<g id="XMLID_1013_">
		<path id="XMLID_1014_" style="fill:#FFAD41;" d="M400,275c0,11.045-8.954,20-20,20H20c-11.046,0-20-8.955-20-20l0,0
			c0-11.045,8.954-20,20-20h360C391.046,255,400,263.955,400,275L400,275z"/>
		<path id="XMLID_1015_" style="fill:#FF9811;" d="M200,255H20c-11.046,0-20,8.955-20,20s8.954,20,20,20h180V255z"/>
	</g>
	<path id="XMLID_1016_" style="fill:#91DC5A;" d="M385,195H200H60H15c-8.283,0-15,6.716-15,15s6.717,15,15,15h45h140h185
		c8.285,0,15-6.716,15-15S393.285,195,385,195z"/>
	<path id="XMLID_1017_" style="fill:#64C37D;" d="M200,195H15c-8.283,0-15,6.716-15,15s6.717,15,15,15h185V195z"/>
	<g id="XMLID_1018_">
		<polygon id="XMLID_1019_" style="fill:#FFDA44;" points="40,195 110,185 180,195 110,245 		"/>
	</g>
	<g id="XMLID_1020_">
		<polygon id="XMLID_1021_" style="fill:#FFE98F;" points="220,195 290,185 360,195 290,245 		"/>
	</g>
	<rect id="XMLID_1022_" x="30" y="175" style="fill:#FF9811;" width="160" height="20"/>
	<rect id="XMLID_1023_" x="210" y="175" style="fill:#FFAD41;" width="160" height="20"/>
</g>
<g>
</g>
<g>
</g>
<g>
</g>
<g>
</g>
<g>
</g>
<g>
</g>
<g>
</g>
<g>
</g>
<g>
</g>
<g>
</g>
<g>
</g>
<g>
</g>
<g>
</g>
<g>
</g>
<g>
</g>
</svg>
