<?xml version="1.0" encoding="iso-8859-1"?>
<!-- Generator: Adobe Illustrator 19.0.0, SVG Export Plug-In . SVG Version: 6.00 Build 0)  -->
<svg version="1.1" id="Layer_1" xmlns="http://www.w3.org/2000/svg" xmlns:xlink="http://www.w3.org/1999/xlink" x="0px" y="0px"
	 viewBox="0 0 325 325" style="enable-background:new 0 0 325 325;" xml:space="preserve">
<g id="XMLID_1076_">
	<g id="XMLID_1077_">
		<g id="XMLID_1078_">
			<path id="XMLID_27_" style="fill:#CDCDD0;" d="M170.834,286.331c-5.858-5.858-5.858-15.355,0-21.213L291.042,144.91
				c5.858-5.858,15.355-5.858,21.213,0l0,0c5.857,5.858,5.857,15.355,0,21.213L192.047,286.331
				C186.189,292.189,176.692,292.189,170.834,286.331L170.834,286.331z"/>
		</g>
		<g id="XMLID_1079_">
			<path id="XMLID_25_" style="fill:#FF5023;" d="M273.364,205.013l38.891-38.891c5.857-5.858,5.857-15.355,0-21.213
				c-5.858-5.858-15.355-5.858-21.213,0L252.151,183.8L273.364,205.013z"/>
		</g>
	</g>
	<g id="XMLID_1080_">
		<path id="XMLID_1081_" style="fill:#91DC5A;" d="M283.352,205h-260c-8.284,0-15,6.716-15,15s6.716,15,15,15h10
			c0,35.264,26.079,64.423,60,69.277V325h120v-20.723c33.921-4.854,60-34.014,60-69.277h10c8.284,0,15-6.716,15-15
			S291.636,205,283.352,205z"/>
	</g>
	<g id="XMLID_1082_">
		<path id="XMLID_1083_" style="fill:#64C37D;" d="M23.352,205c-8.284,0-15,6.716-15,15s6.716,15,15,15h10
			c0,35.264,26.079,64.423,60,69.277V325h60V205H23.352z"/>
	</g>
	<g id="XMLID_1084_">
		<path id="XMLID_1085_" style="fill:#FFE98F;" d="M185.352,180c-8.284,0-15-6.716-15-15c0-6.31-1.053-8.777-2.797-12.865
			c-2.318-5.434-5.203-12.196-5.203-24.637c0-12.442,2.885-19.204,5.203-24.638c1.744-4.088,2.797-6.556,2.797-12.865
			c0-6.308-1.053-8.774-2.796-12.861c-2.318-5.433-5.204-12.194-5.204-24.636c0-12.441,2.885-19.203,5.204-24.636
			c1.744-4.087,2.796-6.554,2.796-12.862c0-8.284,6.716-15,15-15s15,6.716,15,15c0,12.441-2.885,19.203-5.204,24.636
			c-1.744,4.087-2.796,6.554-2.796,12.862s1.053,8.774,2.796,12.861c2.318,5.433,5.204,12.195,5.204,24.636
			c0,12.442-2.885,19.204-5.203,24.638c-1.744,4.088-2.797,6.556-2.797,12.865c0,6.31,1.053,8.777,2.797,12.865
			c2.318,5.434,5.203,12.196,5.203,24.637C200.352,173.284,193.636,180,185.352,180z"/>
	</g>
	<g id="XMLID_1086_">
		<path id="XMLID_1087_" style="fill:#FFDA44;" d="M129.352,180c-8.284,0-15-6.716-15-15c0-6.31-1.053-8.777-2.797-12.865
			c-2.318-5.434-5.203-12.196-5.203-24.637c0-12.442,2.885-19.204,5.203-24.638c1.744-4.088,2.797-6.556,2.797-12.865
			c0-6.308-1.053-8.774-2.796-12.861c-2.318-5.433-5.204-12.194-5.204-24.636c0-8.284,6.716-15,15-15s15,6.716,15,15
			c0,6.308,1.053,8.774,2.796,12.862c2.318,5.433,5.204,12.194,5.204,24.635c0,12.442-2.885,19.204-5.203,24.638
			c-1.744,4.088-2.797,6.556-2.797,12.865c0,6.31,1.053,8.777,2.797,12.865c2.318,5.434,5.203,12.196,5.203,24.637
			C144.352,173.284,137.636,180,129.352,180z"/>
	</g>
</g>
<g>
</g>
<g>
</g>
<g>
</g>
<g>
</g>
<g>
</g>
<g>
</g>
<g>
</g>
<g>
</g>
<g>
</g>
<g>
</g>
<g>
</g>
<g>
</g>
<g>
</g>
<g>
</g>
<g>
</g>
</svg>
