<?xml version="1.0" encoding="iso-8859-1"?>
<!-- Generator: Adobe Illustrator 19.0.0, SVG Export Plug-In . SVG Version: 6.00 Build 0)  -->
<svg version="1.1" id="Layer_1" xmlns="http://www.w3.org/2000/svg" xmlns:xlink="http://www.w3.org/1999/xlink" x="0px" y="0px"
	 viewBox="0 0 280 280" style="enable-background:new 0 0 280 280;" xml:space="preserve">
<g id="XMLID_1830_">
	<rect id="XMLID_1831_" x="100" y="60.001" style="fill:#EEEEEF;" width="80" height="70"/>
	<rect id="XMLID_1832_" x="100" y="60.001" style="fill:#DEDDE0;" width="40" height="70"/>
	<path id="XMLID_1833_" style="fill:#804C09;" d="M100,110c0,0-40,70-40,136c0,18.668,15.223,34,34,34h92c18.777,0,34-15.332,34-34
		c0-66-40-136-40-136H100z"/>
	<path id="XMLID_1834_" style="fill:#402604;" d="M140,110h-40c0,0-40,70-40,136c0,18.668,15.223,34,34,34h46V110z"/>
	<path id="XMLID_1835_" style="fill:#FF5023;" d="M205,0H75c-8.284,0-15,6.716-15,15s6.716,15,15,15h5c0,14.202,20,34.286,20,34.286
		h80c0,0,20-20.084,20-34.286h5c8.284,0,15-6.716,15-15S213.284,0,205,0z"/>
	<path id="XMLID_1836_" style="fill:#BD3C1A;" d="M140,0H75c-8.284,0-15,6.716-15,15s6.716,15,15,15h5c0,14.202,20,34.286,20,34.286
		h40V0z"/>
	<g id="XMLID_1837_">
		<polygon id="XMLID_1838_" style="fill:#FFDA44;" points="124.123,225 108.245,197.5 124.123,170 155.877,170 171.755,197.5 
			155.877,225 		"/>
		<polygon id="XMLID_1839_" style="fill:#FF9811;" points="124.123,225 108.245,197.5 124.123,170 140,170 140,225 		"/>
	</g>
</g>
<g>
</g>
<g>
</g>
<g>
</g>
<g>
</g>
<g>
</g>
<g>
</g>
<g>
</g>
<g>
</g>
<g>
</g>
<g>
</g>
<g>
</g>
<g>
</g>
<g>
</g>
<g>
</g>
<g>
</g>
</svg>
