<?xml version="1.0" encoding="iso-8859-1"?>
<!-- Generator: Adobe Illustrator 19.0.0, SVG Export Plug-In . SVG Version: 6.00 Build 0)  -->
<svg version="1.1" id="Layer_1" xmlns="http://www.w3.org/2000/svg" xmlns:xlink="http://www.w3.org/1999/xlink" x="0px" y="0px"
	 viewBox="0 0 350 350" style="enable-background:new 0 0 350 350;" xml:space="preserve">
<g id="XMLID_1795_">
	<path id="XMLID_1796_" style="fill:#FFAD41;" d="M225.999,15H94c-13.255,0-24,10.744-24,23.999s10.746,23.999,24,23.999v108
		h131.999v-108c13.255,0,24.001-10.744,24.001-23.999S239.255,15,225.999,15z"/>
	<path id="XMLID_1797_" style="fill:#FF9811;" d="M160,170.998V15H94c-13.255,0-24,10.744-24,23.999s10.746,23.999,24,23.999v108
		H160z"/>
	<path id="XMLID_1798_" style="fill:#565659;" d="M350,230c0,8.284-6.716,15-15,15h-20c-8.284,0-15-6.716-15-15l0,0
		c0-8.284,6.716-15,15-15h20C343.284,215,350,221.716,350,230L350,230z"/>
	<path id="XMLID_1799_" style="fill:#DEDDE0;" d="M320,315V200.98C320,142.448,272.552,95,214.02,95H105.979
		C47.448,95,0,142.448,0,200.98V315H320z"/>
	<path id="XMLID_1800_" style="fill:#CDCDD0;" d="M160,95h-54.021C47.448,95,0,142.448,0,200.98V315h160V95z"/>
	<rect id="XMLID_1801_" y="275" style="fill:#565659;" width="320" height="40"/>
	<rect id="XMLID_1802_" y="275" width="160" height="40"/>
	<rect id="XMLID_1803_" x="30" y="295" width="30" height="40"/>
	<rect id="XMLID_1804_" x="260" y="295" style="fill:#565659;" width="30" height="40"/>
</g>
<g>
</g>
<g>
</g>
<g>
</g>
<g>
</g>
<g>
</g>
<g>
</g>
<g>
</g>
<g>
</g>
<g>
</g>
<g>
</g>
<g>
</g>
<g>
</g>
<g>
</g>
<g>
</g>
<g>
</g>
</svg>
