<?xml version="1.0" encoding="iso-8859-1"?>
<!-- Generator: Adobe Illustrator 19.0.0, SVG Export Plug-In . SVG Version: 6.00 Build 0)  -->
<svg version="1.1" id="Layer_1" xmlns="http://www.w3.org/2000/svg" xmlns:xlink="http://www.w3.org/1999/xlink" x="0px" y="0px"
	 viewBox="0 0 240 240" style="enable-background:new 0 0 240 240;" xml:space="preserve">
<g id="XMLID_1537_">
	<path id="XMLID_25_" style="fill:#ACABB1;" d="M240,79.497c-5.523,21.39-62.02,25.298-126.189,8.729
		C49.641,71.657,2.098,40.887,7.621,19.497s62.02-25.299,126.189-8.73c44.846,11.579,81.57,30.095,97.737,47.497
		C238.515,65.764,240,72.579,240,79.497z"/>
	<path id="XMLID_1538_" style="fill:#808084;" d="M120,7.492C61.723-5.137,12.744-0.343,7.621,19.497
		C2.098,40.887,49.64,71.657,113.81,88.226c2.073,0.536,4.134,1.037,6.189,1.529L120,7.492L120,7.492z"/>
	<rect id="XMLID_1539_" x="10" y="99.495" style="fill:#FF5023;" width="220" height="120"/>
	<rect id="XMLID_1540_" x="10" y="99.495" style="fill:#BD3C1A;" width="110" height="120"/>
	<rect id="XMLID_1541_" y="209.495" style="fill:#DEDDE0;" width="240" height="30"/>
	<rect id="XMLID_1542_" y="209.495" style="fill:#CDCDD0;" width="120" height="30"/>
	<rect id="XMLID_1543_" y="79.495" style="fill:#DEDDE0;" width="240" height="30"/>
	<rect id="XMLID_1544_" y="79.495" style="fill:#CDCDD0;" width="120" height="30"/>
	<path id="XMLID_1545_" style="fill:#CDCDD0;" d="M187.652,157.187c12.5-8.332,8.334-24.999,8.334-24.999
		c-25,0-33.332,24.999-33.332,24.999s8.332,25.001,33.332,25.001C195.986,182.188,200.152,165.521,187.652,157.187z"/>
	<path id="XMLID_1546_" style="fill:#FFFFFF;" d="M172.654,157.187c0,0-39.23,27.309-70,27.309c-40,0-59.307-27.309-59.307-27.309
		s19.307-27.691,59.307-27.691C133.424,129.495,172.654,157.187,172.654,157.187z"/>
	<path id="XMLID_1547_" style="fill:#DEDDE0;" d="M120,131.914c-5.871-1.499-11.748-2.419-17.346-2.419
		c-40,0-59.307,27.691-59.307,27.691s19.307,27.309,59.307,27.309c5.598,0,11.475-0.906,17.346-2.385V131.914z"/>
</g>
<g>
</g>
<g>
</g>
<g>
</g>
<g>
</g>
<g>
</g>
<g>
</g>
<g>
</g>
<g>
</g>
<g>
</g>
<g>
</g>
<g>
</g>
<g>
</g>
<g>
</g>
<g>
</g>
<g>
</g>
</svg>
