<?xml version="1.0" encoding="iso-8859-1"?>
<!-- Generator: Adobe Illustrator 19.0.0, SVG Export Plug-In . SVG Version: 6.00 Build 0)  -->
<svg version="1.1" id="Layer_1" xmlns="http://www.w3.org/2000/svg" xmlns:xlink="http://www.w3.org/1999/xlink" x="0px" y="0px"
	 viewBox="0 0 330 330" style="enable-background:new 0 0 330 330;" xml:space="preserve">
<g id="XMLID_1753_">
	<circle id="XMLID_1754_" style="fill:#ACABB1;" cx="190" cy="140" r="60"/>
	<circle id="XMLID_1755_" style="fill:#FFFFFF;" cx="190" cy="140" r="30"/>
	<polygon id="XMLID_1756_" style="fill:#CDCDD0;" points="190,110 190,80 190,40 100,40 130,90 130,110 160,120 	"/>
	<polygon id="XMLID_1757_" style="fill:#BD720D;" points="190,40 160,50 130,40 130,0 190,0 	"/>
	<rect id="XMLID_1758_" x="130" style="fill:#804C09;" width="30" height="40"/>
	<polygon id="XMLID_1759_" style="fill:#FF9811;" points="180,70 140,70 130,40 190,40 	"/>
	<polygon id="XMLID_1760_" style="fill:#BD720D;" points="160,70 140,70 130,40 160,40 	"/>
	<path id="XMLID_1761_" style="fill:#FF5023;" d="M209.998,199.744C198.75,189.75,190,185,190,161.334V110h-30h-30v51.334
		c0,23.666-8.75,28.416-19.998,38.41C94.301,213.696,80,235,80,255c0,40,30,60,80,60s80-20,80-60
		C240,235,225.699,213.696,209.998,199.744z"/>
	<path id="XMLID_1762_" style="fill:#BD3C1A;" d="M160,110h-30v51.334c0,23.666-8.75,28.416-19.998,38.41
		C94.301,213.696,80,235,80,255c0,40,30,60,80,60C160,272,160,110,160,110z"/>
	<path id="XMLID_1763_" style="fill:#FF734F;" d="M220,315c0,8.284-6.716,15-15,15h-90c-8.284,0-15-6.716-15-15l0,0
		c0-8.284,6.716-15,15-15h90C213.284,300,220,306.716,220,315L220,315z"/>
	<path id="XMLID_1764_" style="fill:#FF5023;" d="M160,300h-45c-8.284,0-15,6.716-15,15s6.716,15,15,15h45V300z"/>
</g>
<g>
</g>
<g>
</g>
<g>
</g>
<g>
</g>
<g>
</g>
<g>
</g>
<g>
</g>
<g>
</g>
<g>
</g>
<g>
</g>
<g>
</g>
<g>
</g>
<g>
</g>
<g>
</g>
<g>
</g>
</svg>
