<?xml version="1.0" encoding="iso-8859-1"?>
<!-- Generator: Adobe Illustrator 19.0.0, SVG Export Plug-In . SVG Version: 6.00 Build 0)  -->
<svg version="1.1" id="Layer_1" xmlns="http://www.w3.org/2000/svg" xmlns:xlink="http://www.w3.org/1999/xlink" x="0px" y="0px"
	 viewBox="0 0 264.485 264.485" style="enable-background:new 0 0 264.485 264.485;" xml:space="preserve">
<g id="XMLID_1639_">
	<g id="XMLID_1640_">
		<g id="XMLID_1641_">
			<g id="XMLID_1642_">
				<g id="XMLID_1643_">
					<path id="XMLID_1644_" style="fill:#CDCDD0;" d="M236.998,4.394c-5.858-5.858-15.355-5.858-21.214,0L100.693,119.485h42.426
						l93.879-93.878C242.855,19.748,242.855,10.252,236.998,4.394z"/>
				</g>
				<g id="XMLID_1645_">
					<path id="XMLID_27_" style="fill:#FF5023;" d="M198.106,64.498l38.892-38.892c5.857-5.858,5.857-15.355,0-21.213
						c-5.858-5.858-15.355-5.858-21.214,0l-38.891,38.891L198.106,64.498z"/>
				</g>
			</g>
		</g>
	</g>
	<g id="XMLID_1646_">
		<path id="XMLID_1647_" style="fill:#DEDDE0;" d="M49.094,84.485v146c0,18.777,15.223,34,34,34h80c18.777,0,34-15.223,34-34v-146
			L49.094,84.485L49.094,84.485z"/>
		<path id="XMLID_1648_" style="fill:#CDCDD0;" d="M49.094,84.485v146c0,18.777,15.223,34,34,34h40v-180L49.094,84.485
			L49.094,84.485z"/>
	</g>
	<path id="XMLID_1649_" style="fill:#FFDA44;" d="M223.094,79.485c0,8.284-6.716,15-15,15h-170c-8.284,0-15-6.716-15-15l0,0
		c0-8.284,6.716-15,15-15h170C216.378,64.485,223.094,71.2,223.094,79.485L223.094,79.485z"/>
	<path id="XMLID_1650_" style="fill:#FFAD41;" d="M123.094,64.485h-85c-8.284,0-15,6.716-15,15s6.716,15,15,15h85V64.485z"/>
	<g id="XMLID_1651_">
		<path id="XMLID_1652_" style="fill:#FFFFFF;" d="M163.094,164.486c0-22.092-17.908-40-40-40s-40,17.908-40,40h-35v40h150v-40
			H163.094z"/>
		<path id="XMLID_1653_" style="fill:#FFE98F;" d="M83.094,164.486h-34v40h74v-40v-40
			C101.002,124.485,83.094,142.394,83.094,164.486z"/>
	</g>
</g>
<g>
</g>
<g>
</g>
<g>
</g>
<g>
</g>
<g>
</g>
<g>
</g>
<g>
</g>
<g>
</g>
<g>
</g>
<g>
</g>
<g>
</g>
<g>
</g>
<g>
</g>
<g>
</g>
<g>
</g>
</svg>
